Tektur-Black.ufo
<glyph name="numbersign" format="2">
  <advance width="780"/>
  <unicode hex="0023"/>
  <outline>
    <contour>
      <point x="140" y="0" type="line"/>
      <point x="330" y="0" type="line"/>
      <point x="330" y="700" type="line"/>
      <point x="140" y="700" type="line"/>
    </contour>
    <contour>
      <point x="450" y="0" type="line"/>
      <point x="640" y="0" type="line"/>
      <point x="640" y="700" type="line"/>
      <point x="450" y="700" type="line"/>
    </contour>
    <contour>
      <point x="740" y="100" type="line"/>
      <point x="740" y="270" type="line"/>
      <point x="40" y="270" type="line"/>
      <point x="40" y="100" type="line"/>
    </contour>
    <contour>
      <point x="740" y="430" type="line"/>
      <point x="740" y="600" type="line"/>
      <point x="40" y="600" type="line"/>
      <point x="40" y="430" type="line"/>
    </contour>
  </outline>
</glyph>
<glyph name="dollar" format="2">
  <advance width="660"/>
  <unicode hex="0024"/>
  <outline>
    <contour>
      <point x="45" y="30" type="line"/>
      <point x="215" y="30" type="line"/>
      <point x="215" y="-60" type="line"/>
      <point x="425" y="-60" type="line"/>
      <point x="425" y="30" type="line"/>
      <point x="485" y="30" type="line"/>
      <point x="625" y="170" type="line"/>
      <point x="625" y="407" type="line"/>
      <point x="255" y="440" type="line"/>
      <point x="255" y="500" type="line"/>
      <point x="615" y="500" type="line"/>
      <point x="615" y="670" type="line"/>
      <point x="445" y="670" type="line"/>
      <point x="445" y="760" type="line"/>
      <point x="235" y="760" type="line"/>
      <point x="235" y="670" type="line"/>
      <point x="175" y="670" type="line"/>
      <point x="35" y="530" type="line"/>
      <point x="35" y="303" type="line"/>
      <point x="405" y="270" type="line"/>
      <point x="405" y="200" type="line"/>
      <point x="45" y="200" type="line"/>
    </contour>
  </outline>
</glyph>
<glyph name="percent" format="2">
  <advance width="600"/>
  <unicode hex="0025"/>
  <outline>
    <contour>
      <point x="10" y="0" type="line"/>
      <point x="215" y="0" type="line"/>
      <point x="590" y="700" type="line"/>
      <point x="385" y="700" type="line"/>
    </contour>
    <contour>
      <point x="360" y="0" type="line"/>
      <point x="560" y="0" type="line"/>
      <point x="560" y="200" type="line"/>
      <point x="360" y="200" type="line"/>
    </contour>
    <contour>
      <point x="40" y="500" type="line"/>
      <point x="240" y="500" type="line"/>
      <point x="240" y="700" type="line"/>
      <point x="40" y="700" type="line"/>
    </contour>
  </outline>
</glyph>
<glyph name="ampersand" format="2">
  <advance width="835"/>
  <unicode hex="0026"/>
  <outline>
    <contour>
      <point x="587" y="0" type="line"/>
      <point x="825" y="0" type="line"/>
      <point x="430" y="530" type="line"/>
      <point x="675" y="530" type="line"/>
      <point x="675" y="700" type="line"/>
      <point x="195" y="700" type="line"/>
      <point x="121" y="626" type="line"/>
    </contour>
    <contour>
      <point x="380" y="320" type="line"/>
      <point x="380" y="480" type="line"/>
      <point x="140" y="480" type="line"/>
      <point x="30" y="370" type="line"/>
      <point x="30" y="110" type="line"/>
      <point x="140" y="0" type="line"/>
      <point x="444" y="0" type="line"/>
      <point x="825" y="460" type="line"/>
      <point x="593" y="460" type="line"/>
      <point x="357" y="170" type="line"/>
      <point x="250" y="170" type="line"/>
      <point x="250" y="320" type="line"/>
    </contour>
  </outline>
</glyph>
<glyph name="quotesingle" format="2">
  <advance width="220"/>
  <unicode hex="0027"/>
  <outline>
    <contour>
      <point x="30" y="460" type="line"/>
      <point x="190" y="460" type="line"/>
      <point x="210" y="700" type="line"/>
      <point x="10" y="700" type="line"/>
    </contour>
  </outline>
</glyph>
<glyph name="parenleft" format="2">
  <advance width="350"/>
  <unicode hex="0028"/>
  <outline>
    <contour>
      <point x="40" y="10" type="line"/>
      <point x="190" y="-140" type="line"/>
      <point x="330" y="-140" type="line"/>
      <point x="330" y="35" type="line"/>
      <point x="260" y="35" type="line"/>
      <point x="260" y="575" type="line"/>
      <point x="330" y="575" type="line"/>
      <point x="330" y="750" type="line"/>
      <point x="190" y="750" type="line"/>
      <point x="40" y="600" type="line"/>
    </contour>
  </outline>
</glyph>
<glyph name="asterisk" format="2">
  <advance width="540"/>
  <unicode hex="002A"/>
  <outline>
    <contour>
      <point x="350" y="220" type="line"/>
      <point x="350" y="322" type="line"/>
      <point x="450" y="265" type="line"/>
      <point x="530" y="404" type="line"/>
      <point x="432" y="460" type="line"/>
      <point x="530" y="516" type="line"/>
      <point x="450" y="655" type="line"/>
      <point x="350" y="598" type="line"/>
      <point x="350" y="700" type="line"/>
      <point x="190" y="700" type="line"/>
      <point x="190" y="598" type="line"/>
      <point x="90" y="655" type="line"/>
      <point x="10" y="516" type="line"/>
      <point x="108" y="460" type="line"/>
      <point x="10" y="404" type="line"/>
      <point x="90" y="265" type="line"/>
      <point x="190" y="322" type="line"/>
      <point x="190" y="220" type="line"/>
    </contour>
  </outline>
</glyph>
<glyph name="comma" format="2">
  <advance width="280"/>
  <unicode hex="002C"/>
  <outline>
    <contour>
      <point x="50" y="0" type="line"/>
      <point x="125" y="0" type="line"/>
      <point x="10" y="-140" type="line"/>
      <point x="135" y="-140" type="line"/>
      <point x="250" y="0" type="line"/>
      <point x="250" y="200" type="line"/>
      <point x="50" y="200" type="line"/>
    </contour>
  </outline>
</glyph>
<glyph name="hyphen" format="2">
  <advance width="340"/>
  <unicode hex="002D"/>
  <unicode hex="2010"/>
  <unicode hex="2011"/>
  <unicode hex="00AD"/>
  <outline>
    <contour>
      <point x="40" y="220" type="line"/>
      <point x="300" y="220" type="line"/>
      <point x="300" y="420" type="line"/>
      <point x="40" y="420" type="line"/>
    </contour>
  </outline>
</glyph>
<glyph name="zero" format="2">
  <advance width="650"/>
  <unicode hex="0030"/>
  <anchor x="325" y="0" name="bottom"/>
  <anchor x="325" y="700" name="top"/>
  <outline>
    <contour>
      <point x="35" y="150" type="line"/>
      <point x="185" y="0" type="line"/>
      <point x="465" y="0" type="line"/>
      <point x="615" y="150" type="line"/>
      <point x="615" y="550" type="line"/>
      <point x="465" y="700" type="line"/>
      <point x="185" y="700" type="line"/>
      <point x="35" y="550" type="line"/>
    </contour>
    <contour>
      <point x="255" y="500" type="line"/>
      <point x="395" y="500" type="line"/>
      <point x="395" y="200" type="line"/>
      <point x="255" y="200" type="line"/>
    </contour>
  </outline>
</glyph>
<glyph name="two" format="2">
  <advance width="610"/>
  <unicode hex="0032"/>
  <outline>
    <contour>
      <point x="575" y="190" type="line"/>
      <point x="255" y="190" type="line"/>
      <point x="255" y="240" type="line"/>
      <point x="575" y="290" type="line"/>
      <point x="575" y="550" type="line"/>
      <point x="425" y="700" type="line"/>
      <point x="35" y="700" type="line"/>
      <point x="35" y="510" type="line"/>
      <point x="355" y="510" type="line"/>
      <point x="355" y="440" type="line"/>
      <point x="35" y="390" type="line"/>
      <point x="35" y="0" type="line"/>
      <point x="575" y="0" type="line"/>
    </contour>
  </outline>
</glyph>
<glyph name="three" format="2">
  <advance width="630"/>
  <unicode hex="0033"/>
  <outline>
    <contour>
      <point x="470" y="0" type="line"/>
      <point x="610" y="140" type="line"/>
      <point x="610" y="296" type="line"/>
      <point x="523" y="366" type="line"/>
      <point x="590" y="419" type="line"/>
      <point x="590" y="560" type="line"/>
      <point x="450" y="700" type="line"/>
      <point x="40" y="700" type="line"/>
      <point x="40" y="520" type="line"/>
      <point x="362" y="520" type="line"/>
      <point x="362" y="440" type="line"/>
      <point x="90" y="440" type="line"/>
      <point x="90" y="270" type="line"/>
      <point x="382" y="270" type="line"/>
      <point x="382" y="180" type="line"/>
      <point x="30" y="180" type="line"/>
      <point x="30" y="0" type="line"/>
    </contour>
  </outline>
</glyph>
<glyph name="four" format="2">
  <advance width="640"/>
  <unicode hex="0034"/>
  <outline>
    <contour>
      <point x="40" y="180" type="line"/>
      <point x="380" y="180" type="line"/>
      <point x="380" y="0" type="line"/>
      <point x="600" y="0" type="line"/>
      <point x="600" y="700" type="line"/>
      <point x="380" y="700" type="line"/>
      <point x="380" y="380" type="line"/>
      <point x="260" y="380" type="line"/>
      <point x="280" y="700" type="line"/>
      <point x="60" y="700" type="line"/>
    </contour>
  </outline>
</glyph>
<glyph name="five" format="2">
  <advance width="610"/>
  <unicode hex="0035"/>
  <outline>
    <contour>
      <point x="575" y="510" type="line"/>
      <point x="575" y="700" type="line"/>
      <point x="35" y="700" type="line"/>
      <point x="35" y="300" type="line"/>
      <point x="355" y="266" type="line"/>
      <point x="355" y="190" type="line"/>
      <point x="35" y="190" type="line"/>
      <point x="35" y="0" type="line"/>
      <point x="425" y="0" type="line"/>
      <point x="575" y="150" type="line"/>
      <point x="575" y="420" type="line"/>
      <point x="255" y="455" type="line"/>
      <point x="255" y="510" type="line"/>
    </contour>
  </outline>
</glyph>
<glyph name="six" format="2">
  <advance width="650"/>
  <unicode hex="0036"/>
  <outline>
    <contour>
      <point x="175" y="0" type="line"/>
      <point x="475" y="0" type="line"/>
      <point x="615" y="140" type="line"/>
      <point x="615" y="375" type="line"/>
      <point x="540" y="450" type="line"/>
      <point x="255" y="450" type="line"/>
      <point x="255" y="510" type="line"/>
      <point x="580" y="510" type="line"/>
      <point x="580" y="700" type="line"/>
      <point x="175" y="700" type="line"/>
      <point x="35" y="560" type="line"/>
      <point x="35" y="140" type="line"/>
    </contour>
    <contour>
      <point x="255" y="180" type="line"/>
      <point x="255" y="310" type="line"/>
      <point x="395" y="310" type="line"/>
      <point x="395" y="180" type="line"/>
    </contour>
  </outline>
</glyph>
<glyph name="seven" format="2">
  <advance width="580"/>
  <unicode hex="0037"/>
  <outline>
    <contour>
      <point x="35" y="0" type="line"/>
      <point x="299" y="0" type="line"/>
      <point x="555" y="430" type="line"/>
      <point x="555" y="700" type="line"/>
      <point x="25" y="700" type="line"/>
      <point x="25" y="440" type="line"/>
      <point x="234" y="440" type="line"/>
      <point x="234" y="520" type="line"/>
      <point x="335" y="520" type="line"/>
      <point x="335" y="460" type="line"/>
    </contour>
  </outline>
</glyph>
<glyph name="eight" format="2">
  <advance width="650"/>
  <unicode hex="0038"/>
  <outline>
    <contour>
      <point x="280" y="425" type="line"/>
      <point x="280" y="530" type="line"/>
      <point x="370" y="530" type="line"/>
      <point x="370" y="425" type="line"/>
    </contour>
    <contour>
      <point x="270" y="170" type="line"/>
      <point x="270" y="285" type="line"/>
      <point x="395" y="285" type="line"/>
      <point x="395" y="170" type="line"/>
    </contour>
    <contour>
      <point x="170" y="0" type="line"/>
      <point x="480" y="0" type="line"/>
      <point x="630" y="150" type="line"/>
      <point x="630" y="286" type="line"/>
      <point x="533" y="366" type="line"/>
      <point x="610" y="429" type="line"/>
      <point x="610" y="550" type="line"/>
      <point x="460" y="700" type="line"/>
      <point x="190" y="700" type="line"/>
      <point x="40" y="550" type="line"/>
      <point x="40" y="429" type="line"/>
      <point x="117" y="366" type="line"/>
      <point x="20" y="286" type="line"/>
      <point x="20" y="150" type="line"/>
    </contour>
  </outline>
</glyph>
<glyph name="question" format="2">
  <advance width="560"/>
  <unicode hex="003F"/>
  <outline>
    <contour>
      <point x="110" y="0" type="line"/>
      <point x="310" y="0" type="line"/>
      <point x="310" y="200" type="line"/>
      <point x="110" y="200" type="line"/>
    </contour>
    <contour>
      <point x="310" y="230" type="line"/>
      <point x="310" y="277" type="line"/>
      <point x="545" y="343" type="line"/>
      <point x="545" y="560" type="line"/>
      <point x="405" y="700" type="line"/>
      <point x="15" y="700" type="line"/>
      <point x="15" y="510" type="line"/>
      <point x="345" y="510" type="line"/>
      <point x="345" y="470" type="line"/>
      <point x="110" y="417" type="line"/>
      <point x="110" y="230" type="line"/>
    </contour>
  </outline>
</glyph>
<glyph name="at" format="2">
  <advance width="800"/>
  <unicode hex="0040"/>
  <outline>
    <contour>
      <point x="40" y="0" type="line"/>
      <point x="180" y="-140" type="line"/>
      <point x="760" y="-140" type="line"/>
      <point x="760" y="20" type="line"/>
      <point x="240" y="20" type="line"/>
      <point x="240" y="540" type="line"/>
      <point x="560" y="540" type="line"/>
      <point x="560" y="470" type="line"/>
      <point x="300" y="450" type="line"/>
      <point x="300" y="170" type="line"/>
      <point x="410" y="70" type="line"/>
      <point x="660" y="70" type="line"/>
      <point x="760" y="170" type="line"/>
      <point x="760" y="560" type="line"/>
      <point x="620" y="700" type="line"/>
      <point x="180" y="700" type="line"/>
      <point x="40" y="560" type="line"/>
    </contour>
    <contour>
      <point x="500" y="220" type="line"/>
      <point x="500" y="380" type="line"/>
      <point x="560" y="400" type="line"/>
      <point x="560" y="220" type="line"/>
    </contour>
  </outline>
</glyph>
<glyph name="A" format="2">
  <advance width="640"/>
  <unicode hex="0041"/>
  <anchor x="320" y="0" name="bottom"/>
  <anchor x="520" y="0" name="ogonek"/>
  <anchor x="320" y="700" name="top"/>
  <outline>
    <contour>
      <point x="5" y="0" type="line"/>
      <point x="240" y="0" type="line"/>
      <point x="256" y="130" type="line"/>
      <point x="384" y="130" type="line"/>
      <point x="400" y="0" type="line"/>
      <point x="635" y="0" type="line"/>
      <point x="510" y="700" type="line"/>
      <point x="130" y="700" type="line"/>
    </contour>
    <contour>
      <point x="274" y="280" type="line"/>
      <point x="305" y="530" type="line"/>
      <point x="335" y="530" type="line"/>
      <point x="366" y="280" type="line"/>
    </contour>
  </outline>
</glyph>
<glyph name="B" format="2">
  <advance width="660"/>
  <unicode hex="0042"/>
  <anchor x="295" y="0" name="bottom"/>
  <anchor x="295" y="700" name="top"/>
  <outline>
    <contour>
      <point x="260" y="425" type="line"/>
      <point x="260" y="530" type="line"/>
      <point x="395" y="530" type="line"/>
      <point x="395" y="425" type="line"/>
    </contour>
    <contour>
      <point x="260" y="170" type="line"/>
      <point x="260" y="285" type="line"/>
      <point x="410" y="285" type="line"/>
      <point x="410" y="170" type="line"/>
    </contour>
    <contour>
      <point x="620" y="560" type="line"/>
      <point x="480" y="700" type="line"/>
      <point x="40" y="700" type="line"/>
      <point x="40" y="0" type="line"/>
      <point x="500" y="0" type="line"/>
      <point x="640" y="140" type="line"/>
      <point x="640" y="296" type="line"/>
      <point x="553" y="366" type="line"/>
      <point x="620" y="419" type="line"/>
    </contour>
  </outline>
</glyph>
<glyph name="C" format="2">
  <advance width="550"/>
  <unicode hex="0043"/>
  <anchor x="335" y="0" name="bottom"/>
  <anchor x="335" y="700" name="top"/>
  <outline>
    <contour>
      <point x="35" y="150" type="line"/>
      <point x="185" y="0" type="line"/>
      <point x="535" y="0" type="line"/>
      <point x="535" y="205" type="line"/>
      <point x="275" y="205" type="line"/>
      <point x="275" y="495" type="line"/>
      <point x="525" y="495" type="line"/>
      <point x="525" y="700" type="line"/>
      <point x="185" y="700" type="line"/>
      <point x="35" y="550" type="line"/>
    </contour>
  </outline>
</glyph>
<glyph name="D" format="2">
  <advance width="635"/>
  <unicode hex="0044"/>
  <anchor x="290" y="700" name="top"/>
  <anchor x="290" y="0" name="bottom"/>
  <outline>
    <contour>
      <point x="260" y="190" type="line"/>
      <point x="260" y="510" type="line"/>
      <point x="380" y="510" type="line"/>
      <point x="380" y="190" type="line"/>
    </contour>
    <contour>
      <point x="40" y="0" type="line"/>
      <point x="450" y="0" type="line"/>
      <point x="600" y="150" type="line"/>
      <point x="600" y="550" type="line"/>
      <point x="450" y="700" type="line"/>
      <point x="40" y="700" type="line"/>
    </contour>
  </outline>
</glyph>
<glyph name="E" format="2">
  <advance width="560"/>
  <unicode hex="0045"/>
  <anchor x="280" y="0" name="bottom"/>
  <anchor x="410" y="0" name="ogonek"/>
  <anchor x="280" y="700" name="top"/>
  <outline>
    <contour>
      <point x="40" y="0" type="line"/>
      <point x="530" y="0" type="line"/>
      <point x="530" y="180" type="line"/>
      <point x="260" y="180" type="line"/>
      <point x="260" y="270" type="line"/>
      <point x="470" y="270" type="line"/>
      <point x="470" y="440" type="line"/>
      <point x="260" y="440" type="line"/>
      <point x="260" y="520" type="line"/>
      <point x="520" y="520" type="line"/>
      <point x="520" y="700" type="line"/>
      <point x="40" y="700" type="line"/>
    </contour>
  </outline>
</glyph>
<glyph name="F" format="2">
  <advance width="550"/>
  <unicode hex="0046"/>
  <anchor x="275" y="0" name="bottom"/>
  <anchor x="275" y="700" name="top"/>
  <outline>
    <contour>
      <point x="40" y="0" type="line"/>
      <point x="260" y="0" type="line"/>
      <point x="260" y="190" type="line"/>
      <point x="500" y="190" type="line"/>
      <point x="500" y="380" type="line"/>
      <point x="260" y="380" type="line"/>
      <point x="260" y="500" type="line"/>
      <point x="520" y="500" type="line"/>
      <point x="520" y="700" type="line"/>
      <point x="40" y="700" type="line"/>
    </contour>
  </outline>
</glyph>
<glyph name="G" format="2">
  <advance width="640"/>
  <unicode hex="0047"/>
  <anchor x="335" y="0" name="bottom"/>
  <anchor x="335" y="700" name="top"/>
  <outline>
    <contour>
      <point x="35" y="150" type="line"/>
      <point x="185" y="0" type="line"/>
      <point x="605" y="0" type="line"/>
      <point x="605" y="435" type="line"/>
      <point x="315" y="435" type="line"/>
      <point x="315" y="265" type="line"/>
      <point x="415" y="265" type="line"/>
      <point x="415" y="200" type="line"/>
      <point x="255" y="200" type="line"/>
      <point x="255" y="500" type="line"/>
      <point x="555" y="500" type="line"/>
      <point x="555" y="700" type="line"/>
      <point x="185" y="700" type="line"/>
      <point x="35" y="550" type="line"/>
    </contour>
  </outline>
</glyph>
<glyph name="H" format="2">
  <advance width="650"/>
  <unicode hex="0048"/>
  <anchor x="325" y="700" name="top"/>
  <anchor x="325" y="0" name="bottom"/>
  <outline>
    <contour>
      <point x="40" y="0" type="line"/>
      <point x="260" y="0" type="line"/>
      <point x="260" y="260" type="line"/>
      <point x="390" y="260" type="line"/>
      <point x="390" y="0" type="line"/>
      <point x="610" y="0" type="line"/>
      <point x="610" y="700" type="line"/>
      <point x="390" y="700" type="line"/>
      <point x="390" y="460" type="line"/>
      <point x="260" y="460" type="line"/>
      <point x="260" y="700" type="line"/>
      <point x="40" y="700" type="line"/>
    </contour>
  </outline>
</glyph>
<glyph name="I" format="2">
  <advance width="430"/>
  <unicode hex="0049"/>
  <anchor x="215" y="0" name="bottom"/>
  <anchor x="215" y="701" name="top"/>
  <outline>
    <contour>
      <point x="45" y="-4" type="line"/>
      <point x="215" y="4" type="line"/>
      <point x="385" y="-4" type="line"/>
      <point x="385" y="161" type="line"/>
      <point x="325" y="166" type="line"/>
      <point x="325" y="534" type="line"/>
      <point x="385" y="539" type="line"/>
      <point x="385" y="704" type="line"/>
      <point x="215" y="696" type="line"/>
      <point x="45" y="704" type="line"/>
      <point x="45" y="539" type="line"/>
      <point x="105" y="534" type="line"/>
      <point x="105" y="166" type="line"/>
      <point x="45" y="161" type="line"/>
    </contour>
  </outline>
</glyph>
<glyph name="J" format="2">
  <advance width="620"/>
  <unicode hex="004A"/>
  <anchor x="310" y="0" name="bottom"/>
  <anchor x="320" y="700" name="top"/>
  <outline>
    <contour>
      <point x="35" y="150" type="line"/>
      <point x="185" y="0" type="line"/>
      <point x="435" y="0" type="line"/>
      <point x="585" y="150" type="line"/>
      <point x="585" y="700" type="line"/>
      <point x="75" y="700" type="line"/>
      <point x="75" y="510" type="line"/>
      <point x="365" y="510" type="line"/>
      <point x="365" y="200" type="line"/>
      <point x="255" y="200" type="line"/>
      <point x="255" y="350" type="line"/>
      <point x="35" y="350" type="line"/>
    </contour>
  </outline>
</glyph>
<glyph name="K" format="2">
  <advance width="670"/>
  <unicode hex="004B"/>
  <anchor x="325" y="700" name="top"/>
  <anchor x="325" y="0" name="bottom"/>
  <outline>
    <contour>
      <point x="40" y="0" type="line"/>
      <point x="260" y="0" type="line"/>
      <point x="260" y="260" type="line"/>
      <point x="321" y="260" type="line"/>
      <point x="427" y="0" type="line"/>
      <point x="670" y="0" type="line"/>
      <point x="505" y="370" type="line"/>
      <point x="655" y="700" type="line"/>
      <point x="416" y="700" type="line"/>
      <point x="316" y="450" type="line"/>
      <point x="260" y="450" type="line"/>
      <point x="260" y="700" type="line"/>
      <point x="40" y="700" type="line"/>
    </contour>
  </outline>
</glyph>
<glyph name="L" format="2">
  <advance width="575"/>
  <unicode hex="004C"/>
  <anchor x="295" y="0" name="bottom"/>
  <anchor x="170" y="700" name="top"/>
  <outline>
    <contour>
      <point x="40" y="0" type="line"/>
      <point x="550" y="0" type="line"/>
      <point x="550" y="280" type="line"/>
      <point x="350" y="280" type="line"/>
      <point x="350" y="200" type="line"/>
      <point x="260" y="200" type="line"/>
      <point x="260" y="700" type="line"/>
      <point x="40" y="700" type="line"/>
    </contour>
  </outline>
</glyph>
<glyph name="M" format="2">
  <advance width="780"/>
  <unicode hex="004D"/>
  <anchor x="390" y="700" name="top"/>
  <anchor x="390" y="0" name="bottom"/>
  <outline>
    <contour>
      <point x="40" y="0" type="line"/>
      <point x="256" y="0" type="line"/>
      <point x="256" y="417" type="line"/>
      <point x="350" y="180" type="line"/>
      <point x="430" y="180" type="line"/>
      <point x="524" y="417" type="line"/>
      <point x="524" y="0" type="line"/>
      <point x="740" y="0" type="line"/>
      <point x="740" y="700" type="line"/>
      <point x="480" y="700" type="line"/>
      <point x="390" y="456" type="line"/>
      <point x="300" y="700" type="line"/>
      <point x="40" y="700" type="line"/>
    </contour>
  </outline>
</glyph>
<glyph name="N" format="2">
  <advance width="680"/>
  <unicode hex="004E"/>
  <anchor x="340" y="700" name="top"/>
  <anchor x="340" y="0" name="bottom"/>
  <outline>
    <contour>
      <point x="40" y="0" type="line"/>
      <point x="240" y="0" type="line"/>
      <point x="240" y="345" type="line"/>
      <point x="460" y="0" type="line"/>
      <point x="640" y="0" type="line"/>
      <point x="640" y="700" type="line"/>
      <point x="440" y="700" type="line"/>
      <point x="440" y="355" type="line"/>
      <point x="220" y="700" type="line"/>
      <point x="40" y="700" type="line"/>
    </contour>
  </outline>
</glyph>
<glyph name="O" format="2">
  <advance width="650"/>
  <unicode hex="004F"/>
  <anchor x="325" y="0" name="bottom"/>
  <anchor x="325" y="700" name="top"/>
  <outline>
    <contour>
      <point x="35" y="150" type="line"/>
      <point x="185" y="0" type="line"/>
      <point x="465" y="0" type="line"/>
      <point x="615" y="150" type="line"/>
      <point x="615" y="550" type="line"/>
      <point x="465" y="700" type="line"/>
      <point x="185" y="700" type="line"/>
      <point x="35" y="550" type="line"/>
    </contour>
    <contour>
      <point x="255" y="500" type="line"/>
      <point x="395" y="500" type="line"/>
      <point x="395" y="200" type="line"/>
      <point x="255" y="200" type="line"/>
    </contour>
  </outline>
</glyph>
<glyph name="P" format="2">
  <advance width="630"/>
  <unicode hex="0050"/>
  <anchor x="200" y="0" name="bottom"/>
  <anchor x="280" y="700" name="top"/>
  <outline>
    <contour>
      <point x="260" y="320" type="line"/>
      <point x="260" y="530" type="line"/>
      <point x="390" y="530" type="line"/>
      <point x="390" y="320" type="line"/>
    </contour>
    <contour>
      <point x="610" y="550" type="line"/>
      <point x="460" y="700" type="line"/>
      <point x="40" y="700" type="line"/>
      <point x="40" y="0" type="line"/>
      <point x="260" y="0" type="line"/>
      <point x="260" y="150" type="line"/>
      <point x="460" y="150" type="line"/>
      <point x="610" y="300" type="line"/>
    </contour>
  </outline>
</glyph>
<glyph name="Q" format="2">
  <advance width="680"/>
  <unicode hex="0051"/>
  <anchor x="340" y="0" name="bottom"/>
  <anchor x="340" y="700" name="top"/>
  <outline>
    <contour>
      <point x="35" y="150" type="line"/>
      <point x="185" y="0" type="line"/>
      <point x="655" y="-100" type="line"/>
      <point x="655" y="105" type="line"/>
      <point x="265" y="175" type="line"/>
      <point x="265" y="510" type="line"/>
      <point x="415" y="510" type="line"/>
      <point x="415" y="60" type="line"/>
      <point x="645" y="207" type="line"/>
      <point x="645" y="550" type="line"/>
      <point x="495" y="700" type="line"/>
      <point x="185" y="700" type="line"/>
      <point x="35" y="550" type="line"/>
    </contour>
  </outline>
</glyph>
<glyph name="R" format="2">
  <advance width="650"/>
  <unicode hex="0052"/>
  <anchor x="315" y="0" name="bottom"/>
  <anchor x="295" y="700" name="top"/>
  <outline>
    <contour>
      <point x="260" y="340" type="line"/>
      <point x="260" y="530" type="line"/>
      <point x="400" y="530" type="line"/>
      <point x="400" y="340" type="line"/>
    </contour>
    <contour>
      <point x="620" y="550" type="line"/>
      <point x="470" y="700" type="line"/>
      <point x="40" y="700" type="line"/>
      <point x="40" y="0" type="line"/>
      <point x="260" y="0" type="line"/>
      <point x="260" y="170" type="line"/>
      <point x="329" y="170" type="line"/>
      <point x="402" y="0" type="line"/>
      <point x="650" y="0" type="line"/>
      <point x="530" y="238" type="line"/>
      <point x="620" y="328" type="line"/>
    </contour>
  </outline>
</glyph>
<glyph name="S" format="2">
  <advance width="640"/>
  <unicode hex="0053"/>
  <anchor x="300" y="0" name="bottom"/>
  <anchor x="340" y="700" name="top"/>
  <outline>
    <contour>
      <point x="45" y="0" type="line"/>
      <point x="465" y="0" type="line"/>
      <point x="605" y="140" type="line"/>
      <point x="605" y="417" type="line"/>
      <point x="255" y="450" type="line"/>
      <point x="255" y="510" type="line"/>
      <point x="595" y="510" type="line"/>
      <point x="595" y="700" type="line"/>
      <point x="175" y="700" type="line"/>
      <point x="35" y="560" type="line"/>
      <point x="35" y="293" type="line"/>
      <point x="385" y="260" type="line"/>
      <point x="385" y="190" type="line"/>
      <point x="45" y="190" type="line"/>
    </contour>
  </outline>
</glyph>
<glyph name="T" format="2">
  <advance width="560"/>
  <unicode hex="0054"/>
  <anchor x="280" y="0" name="bottom"/>
  <anchor x="280" y="700" name="top"/>
  <outline>
    <contour>
      <point x="170" y="0" type="line"/>
      <point x="390" y="0" type="line"/>
      <point x="390" y="520" type="line"/>
      <point x="540" y="520" type="line"/>
      <point x="540" y="700" type="line"/>
      <point x="20" y="700" type="line"/>
      <point x="20" y="520" type="line"/>
      <point x="170" y="520" type="line"/>
    </contour>
  </outline>
</glyph>
<glyph name="U" format="2">
  <advance width="650"/>
  <unicode hex="0055"/>
  <anchor x="325" y="0" name="bottom"/>
  <anchor x="360" y="-0" name="ogonek"/>
  <anchor x="325" y="700" name="top"/>
  <outline>
    <contour>
      <point x="40" y="150" type="line"/>
      <point x="190" y="0" type="line"/>
      <point x="460" y="0" type="line"/>
      <point x="610" y="150" type="line"/>
      <point x="610" y="700" type="line"/>
      <point x="390" y="700" type="line"/>
      <point x="390" y="200" type="line"/>
      <point x="260" y="200" type="line"/>
      <point x="260" y="700" type="line"/>
      <point x="40" y="700" type="line"/>
    </contour>
  </outline>
</glyph>
<glyph name="V" format="2">
  <advance width="640"/>
  <unicode hex="0056"/>
  <anchor x="320" y="0" name="bottom"/>
  <anchor x="320" y="700" name="top"/>
  <outline>
    <contour>
      <point x="130" y="0" type="line"/>
      <point x="510" y="0" type="line"/>
      <point x="635" y="700" type="line"/>
      <point x="397" y="700" type="line"/>
      <point x="335" y="200" type="line"/>
      <point x="305" y="200" type="line"/>
      <point x="243" y="700" type="line"/>
      <point x="5" y="700" type="line"/>
    </contour>
  </outline>
</glyph>
<glyph name="W" format="2">
  <advance width="860"/>
  <unicode hex="0057"/>
  <anchor x="430" y="0" name="bottom"/>
  <anchor x="430" y="700" name="top"/>
  <outline>
    <contour>
      <point x="112" y="0" type="line"/>
      <point x="388" y="0" type="line"/>
      <point x="430" y="257" type="line"/>
      <point x="472" y="0" type="line"/>
      <point x="748" y="0" type="line"/>
      <point x="860" y="700" type="line"/>
      <point x="615" y="700" type="line"/>
      <point x="560" y="240" type="line"/>
      <point x="550" y="240" type="line"/>
      <point x="492" y="590" type="line"/>
      <point x="368" y="590" type="line"/>
      <point x="310" y="240" type="line"/>
      <point x="300" y="240" type="line"/>
      <point x="245" y="700" type="line"/>
      <point x="0" y="700" type="line"/>
    </contour>
  </outline>
</glyph>
<glyph name="X" format="2">
  <advance width="660"/>
  <unicode hex="0058"/>
  <anchor x="330" y="700" name="top"/>
  <anchor x="330" y="0" name="bottom"/>
  <outline>
    <contour>
      <point x="0" y="0" type="line"/>
      <point x="238" y="0" type="line"/>
      <point x="310" y="260" type="line"/>
      <point x="350" y="260" type="line"/>
      <point x="422" y="0" type="line"/>
      <point x="660" y="0" type="line"/>
      <point x="520" y="370" type="line"/>
      <point x="645" y="700" type="line"/>
      <point x="410" y="700" type="line"/>
      <point x="345" y="460" type="line"/>
      <point x="315" y="460" type="line"/>
      <point x="250" y="700" type="line"/>
      <point x="15" y="700" type="line"/>
      <point x="140" y="370" type="line"/>
    </contour>
  </outline>
</glyph>
<glyph name="Y" format="2">
  <advance width="640"/>
  <unicode hex="0059"/>
  <anchor x="320" y="0" name="bottom"/>
  <anchor x="320" y="700" name="top"/>
  <outline>
    <contour>
      <point x="210" y="0" type="line"/>
      <point x="430" y="0" type="line"/>
      <point x="430" y="210" type="line"/>
      <point x="513" y="210" type="line"/>
      <point x="635" y="700" type="line"/>
      <point x="400" y="700" type="line"/>
      <point x="345" y="400" type="line"/>
      <point x="295" y="400" type="line"/>
      <point x="240" y="700" type="line"/>
      <point x="5" y="700" type="line"/>
      <point x="127" y="210" type="line"/>
      <point x="210" y="210" type="line"/>
    </contour>
  </outline>
</glyph>
<glyph name="Z" format="2">
  <advance width="565"/>
  <unicode hex="005A"/>
  <anchor x="282.5" y="700" name="top"/>
  <anchor x="282.5" y="0" name="bottom"/>
  <outline>
    <contour>
      <point x="20" y="0" type="line"/>
      <point x="545" y="0" type="line"/>
      <point x="545" y="180" type="line"/>
      <point x="265" y="180" type="line"/>
      <point x="540" y="540" type="line"/>
      <point x="540" y="700" type="line"/>
      <point x="25" y="700" type="line"/>
      <point x="25" y="520" type="line"/>
      <point x="295" y="520" type="line"/>
      <point x="20" y="160" type="line"/>
    </contour>
  </outline>
</glyph>
<glyph name="bracketleft" format="2">
  <advance width="350"/>
  <unicode hex="005B"/>
  <outline>
    <contour>
      <point x="40" y="-140" type="line"/>
      <point x="330" y="-140" type="line"/>
      <point x="330" y="25" type="line"/>
      <point x="250" y="25" type="line"/>
      <point x="250" y="585" type="line"/>
      <point x="330" y="585" type="line"/>
      <point x="330" y="750" type="line"/>
      <point x="40" y="750" type="line"/>
    </contour>
  </outline>
</glyph>
<glyph name="asciicircum" format="2">
  <advance width="550"/>
  <unicode hex="005E"/>
  <outline>
    <contour>
      <point x="-5" y="350" type="line"/>
      <point x="228" y="350" type="line"/>
      <point x="275" y="540" type="line"/>
      <point x="322" y="350" type="line"/>
      <point x="555" y="350" type="line"/>
      <point x="400" y="700" type="line"/>
      <point x="150" y="700" type="line"/>
    </contour>
  </outline>
</glyph>
<glyph name="a" format="2">
  <advance width="600"/>
  <unicode hex="0061"/>
  <anchor x="280" y="560" name="top"/>
  <anchor x="280" y="0" name="bottom"/>
  <anchor x="450" y="0" name="ogonek"/>
  <outline>
    <contour>
      <point x="30" y="140" type="line"/>
      <point x="170" y="0" type="line"/>
      <point x="560" y="0" type="line"/>
      <point x="560" y="420" type="line"/>
      <point x="420" y="560" type="line"/>
      <point x="50" y="560" type="line"/>
      <point x="50" y="380" type="line"/>
      <point x="340" y="380" type="line"/>
      <point x="340" y="330" type="line"/>
      <point x="30" y="320" type="line"/>
    </contour>
    <contour>
      <point x="250" y="220" type="line"/>
      <point x="340" y="240" type="line"/>
      <point x="340" y="170" type="line"/>
      <point x="250" y="170" type="line"/>
    </contour>
  </outline>
</glyph>
<glyph name="b" format="2">
  <advance width="620"/>
  <unicode hex="0062"/>
  <anchor x="260" y="0" name="bottom"/>
  <anchor x="260" y="700" name="top"/>
  <outline>
    <contour>
      <point x="40" y="0" type="line"/>
      <point x="440" y="0" type="line"/>
      <point x="590" y="150" type="line"/>
      <point x="590" y="410" type="line"/>
      <point x="440" y="560" type="line"/>
      <point x="260" y="560" type="line"/>
      <point x="260" y="700" type="line"/>
      <point x="40" y="700" type="line"/>
    </contour>
    <contour>
      <point x="260" y="180" type="line"/>
      <point x="260" y="380" type="line"/>
      <point x="370" y="380" type="line"/>
      <point x="370" y="180" type="line"/>
    </contour>
  </outline>
</glyph>
<glyph name="c" format="2">
  <advance width="520"/>
  <unicode hex="0063"/>
  <anchor x="310" y="0" name="bottom"/>
  <anchor x="310" y="560" name="top"/>
  <outline>
    <contour>
      <point x="30" y="130" type="line"/>
      <point x="160" y="0" type="line"/>
      <point x="500" y="0" type="line"/>
      <point x="500" y="200" type="line"/>
      <point x="250" y="200" type="line"/>
      <point x="250" y="360" type="line"/>
      <point x="500" y="360" type="line"/>
      <point x="500" y="560" type="line"/>
      <point x="160" y="560" type="line"/>
      <point x="30" y="430" type="line"/>
    </contour>
  </outline>
</glyph>
<glyph name="d" format="2">
  <advance width="620"/>
  <unicode hex="0064"/>
  <anchor x="360" y="0" name="bottom"/>
  <anchor x="360" y="700" name="top"/>
  <outline>
    <contour>
      <point x="580" y="700" type="line"/>
      <point x="360" y="700" type="line"/>
      <point x="360" y="560" type="line"/>
      <point x="180" y="560" type="line"/>
      <point x="30" y="410" type="line"/>
      <point x="30" y="150" type="line"/>
      <point x="180" y="0" type="line"/>
      <point x="580" y="0" type="line"/>
    </contour>
    <contour>
      <point x="250" y="180" type="line"/>
      <point x="250" y="380" type="line"/>
      <point x="360" y="380" type="line"/>
      <point x="360" y="180" type="line"/>
    </contour>
  </outline>
</glyph>
<glyph name="e" format="2">
  <advance width="590"/>
  <unicode hex="0065"/>
  <anchor x="310" y="560" name="top"/>
  <anchor x="430" y="0" name="ogonek"/>
  <anchor x="310" y="0" name="bottom"/>
  <outline>
    <contour>
      <point x="30" y="130" type="line"/>
      <point x="160" y="0" type="line"/>
      <point x="540" y="0" type="line"/>
      <point x="540" y="180" type="line"/>
      <point x="250" y="180" type="line"/>
      <point x="250" y="240" type="line"/>
      <point x="560" y="240" type="line"/>
      <point x="560" y="560" type="line"/>
      <point x="160" y="560" type="line"/>
      <point x="30" y="430" type="line"/>
    </contour>
    <contour>
      <point x="250" y="330" type="line"/>
      <point x="250" y="400" type="line"/>
      <point x="380" y="400" type="line"/>
      <point x="380" y="340" type="line"/>
    </contour>
  </outline>
</glyph>
<glyph name="g" format="2">
  <advance width="610"/>
  <unicode hex="0067"/>
  <anchor x="320" y="560" name="top"/>
  <anchor x="290" y="-160" name="bottom"/>
  <outline>
    <contour>
      <point x="60" y="-140" type="line"/>
      <point x="406" y="-140" type="line"/>
      <point x="570" y="24" type="line"/>
      <point x="570" y="560" type="line"/>
      <point x="160" y="560" type="line"/>
      <point x="30" y="430" type="line"/>
      <point x="30" y="210" type="line"/>
      <point x="160" y="80" type="line"/>
      <point x="350" y="80" type="line"/>
      <point x="350" y="40" type="line"/>
      <point x="60" y="40" type="line"/>
    </contour>
    <contour>
      <point x="250" y="380" type="line"/>
      <point x="350" y="380" type="line"/>
      <point x="350" y="250" type="line"/>
      <point x="250" y="250" type="line"/>
    </contour>
  </outline>
</glyph>
<glyph name="h" format="2">
  <advance width="620"/>
  <unicode hex="0068"/>
  <anchor x="310" y="0" name="bottom"/>
  <anchor x="260" y="700" name="top"/>
  <outline>
    <contour>
      <point x="40" y="0" type="line"/>
      <point x="260" y="0" type="line"/>
      <point x="260" y="380" type="line"/>
      <point x="360" y="380" type="line"/>
      <point x="360" y="0" type="line"/>
      <point x="580" y="0" type="line"/>
      <point x="580" y="420" type="line"/>
      <point x="440" y="560" type="line"/>
      <point x="260" y="560" type="line"/>
      <point x="260" y="700" type="line"/>
      <point x="40" y="700" type="line"/>
    </contour>
  </outline>
</glyph>
<glyph name="i" format="2">
  <advance width="300"/>
  <unicode hex="0069"/>
  <anchor x="150" y="0" name="bottom"/>
  <anchor x="150" y="730" name="top"/>
  <outline>
    <contour>
      <point x="40" y="0" type="line"/>
      <point x="260" y="0" type="line"/>
      <point x="260" y="560" type="line"/>
      <point x="40" y="560" type="line"/>
    </contour>
    <contour>
      <point x="40" y="600" type="line"/>
      <point x="260" y="600" type="line"/>
      <point x="260" y="730" type="line"/>
      <point x="40" y="730" type="line"/>
    </contour>
  </outline>
</glyph>
<glyph name="j" format="2">
  <advance width="300"/>
  <unicode hex="006A"/>
  <anchor x="150" y="730" name="top"/>
  <outline>
    <contour>
      <point x="40" y="-160" type="line"/>
      <point x="260" y="-160" type="line"/>
      <point x="260" y="560" type="line"/>
      <point x="40" y="560" type="line"/>
    </contour>
    <contour>
      <point x="40" y="600" type="line"/>
      <point x="260" y="600" type="line"/>
      <point x="260" y="730" type="line"/>
      <point x="40" y="730" type="line"/>
    </contour>
  </outline>
</glyph>
<glyph name="k" format="2">
  <advance width="620"/>
  <unicode hex="006B"/>
  <anchor x="260" y="700" name="top"/>
  <anchor x="305" y="0" name="bottom"/>
  <outline>
    <contour>
      <point x="40" y="0" type="line"/>
      <point x="260" y="0" type="line"/>
      <point x="260" y="201" type="line"/>
      <point x="304" y="201" type="line"/>
      <point x="372" y="0" type="line"/>
      <point x="620" y="0" type="line"/>
      <point x="480" y="301" type="line"/>
      <point x="610" y="560" type="line"/>
      <point x="364" y="560" type="line"/>
      <point x="301" y="381" type="line"/>
      <point x="260" y="381" type="line"/>
      <point x="260" y="700" type="line"/>
      <point x="40" y="700" type="line"/>
    </contour>
  </outline>
</glyph>
<glyph name="l" format="2">
  <advance width="300"/>
  <unicode hex="006C"/>
  <anchor x="150" y="700" name="top"/>
  <anchor x="150" y="0" name="bottom"/>
  <outline>
    <contour>
      <point x="40" y="0" type="line"/>
      <point x="260" y="0" type="line"/>
      <point x="260" y="700" type="line"/>
      <point x="40" y="700" type="line"/>
    </contour>
  </outline>
</glyph>
<glyph name="m" format="2">
  <advance width="920"/>
  <unicode hex="006D"/>
  <anchor x="460" y="560" name="top"/>
  <anchor x="460" y="0" name="bottom"/>
  <outline>
    <contour>
      <point x="40" y="560" type="line"/>
      <point x="40" y="0" type="line"/>
      <point x="255" y="0" type="line"/>
      <point x="255" y="385" type="line"/>
      <point x="355" y="385" type="line"/>
      <point x="355" y="0" type="line"/>
      <point x="565" y="0" type="line"/>
      <point x="565" y="385" type="line"/>
      <point x="665" y="385" type="line"/>
      <point x="665" y="0" type="line"/>
      <point x="880" y="0" type="line"/>
      <point x="880" y="420" type="line"/>
      <point x="740" y="560" type="line"/>
    </contour>
  </outline>
</glyph>
<glyph name="o" format="2">
  <advance width="600"/>
  <unicode hex="006F"/>
  <anchor x="300" y="0" name="bottom"/>
  <anchor x="300" y="560" name="top"/>
  <outline>
    <contour>
      <point x="30" y="130" type="line"/>
      <point x="160" y="0" type="line"/>
      <point x="440" y="0" type="line"/>
      <point x="570" y="130" type="line"/>
      <point x="570" y="430" type="line"/>
      <point x="440" y="560" type="line"/>
      <point x="160" y="560" type="line"/>
      <point x="30" y="430" type="line"/>
    </contour>
    <contour>
      <point x="250" y="170" type="line"/>
      <point x="250" y="390" type="line"/>
      <point x="350" y="390" type="line"/>
      <point x="350" y="170" type="line"/>
    </contour>
  </outline>
</glyph>
<glyph name="q" format="2">
  <advance width="620"/>
  <unicode hex="0071"/>
  <anchor x="360" y="-140" name="bottom"/>
  <anchor x="340" y="560" name="top"/>
  <outline>
    <contour>
      <point x="580" y="560" type="line"/>
      <point x="180" y="560" type="line"/>
      <point x="30" y="410" type="line"/>
      <point x="30" y="150" type="line"/>
      <point x="180" y="0" type="line"/>
      <point x="360" y="0" type="line"/>
      <point x="360" y="-140" type="line"/>
      <point x="580" y="-140" type="line"/>
    </contour>
    <contour>
      <point x="360" y="380" type="line"/>
      <point x="360" y="180" type="line"/>
      <point x="250" y="180" type="line"/>
      <point x="250" y="380" type="line"/>
    </contour>
  </outline>
</glyph>
<glyph name="r" format="2">
  <advance width="470"/>
  <unicode hex="0072"/>
  <anchor x="150" y="0" name="bottom"/>
  <anchor x="250" y="560" name="top"/>
  <outline>
    <contour>
      <point x="40" y="0" type="line"/>
      <point x="260" y="0" type="line"/>
      <point x="260" y="360" type="line"/>
      <point x="450" y="360" type="line"/>
      <point x="450" y="560" type="line"/>
      <point x="180" y="560" type="line"/>
      <point x="40" y="420" type="line"/>
    </contour>
  </outline>
</glyph>
<glyph name="s" format="2">
  <advance width="580"/>
  <unicode hex="0073"/>
  <anchor x="290" y="0" name="bottom"/>
  <anchor x="290" y="560" name="top"/>
  <outline>
    <contour>
      <point x="30" y="0" type="line"/>
      <point x="423" y="0" type="line"/>
      <point x="550" y="127" type="line"/>
      <point x="550" y="330" type="line"/>
      <point x="250" y="330" type="line"/>
      <point x="250" y="390" type="line"/>
      <point x="550" y="390" type="line"/>
      <point x="550" y="560" type="line"/>
      <point x="160" y="560" type="line"/>
      <point x="30" y="430" type="line"/>
      <point x="30" y="230" type="line"/>
      <point x="330" y="230" type="line"/>
      <point x="330" y="170" type="line"/>
      <point x="30" y="170" type="line"/>
    </contour>
  </outline>
</glyph>
<glyph name="t" format="2">
  <advance width="430"/>
  <unicode hex="0074"/>
  <anchor x="240" y="0" name="bottom"/>
  <anchor x="250" y="700" name="top"/>
  <outline>
    <contour>
      <point x="40" y="650" type="line"/>
      <point x="40" y="140" type="line"/>
      <point x="180" y="0" type="line"/>
      <point x="410" y="0" type="line"/>
      <point x="410" y="180" type="line"/>
      <point x="260" y="180" type="line"/>
      <point x="260" y="360" type="line"/>
      <point x="410" y="360" type="line"/>
      <point x="410" y="540" type="line"/>
      <point x="260" y="540" type="line"/>
      <point x="260" y="700" type="line"/>
    </contour>
  </outline>
</glyph>
<glyph name="u" format="2">
  <advance width="620"/>
  <unicode hex="0075"/>
  <anchor x="310" y="560" name="top"/>
  <anchor x="310" y="0" name="bottom"/>
  <anchor x="450" y="0" name="ogonek"/>
  <outline>
    <contour>
      <point x="580" y="560" type="line"/>
      <point x="360" y="560" type="line"/>
      <point x="360" y="190" type="line"/>
      <point x="260" y="190" type="line"/>
      <point x="260" y="560" type="line"/>
      <point x="40" y="560" type="line"/>
      <point x="40" y="140" type="line"/>
      <point x="180" y="0" type="line"/>
      <point x="580" y="0" type="line"/>
    </contour>
  </outline>
</glyph>
<glyph name="v" format="2">
  <advance width="580"/>
  <unicode hex="0076"/>
  <anchor x="290" y="0" name="bottom"/>
  <anchor x="290" y="560" name="top"/>
  <outline>
    <contour>
      <point x="109" y="0" type="line"/>
      <point x="471" y="0" type="line"/>
      <point x="575" y="560" type="line"/>
      <point x="355" y="560" type="line"/>
      <point x="315" y="180" type="line"/>
      <point x="269" y="180" type="line"/>
      <point x="230" y="560" type="line"/>
      <point x="5" y="560" type="line"/>
    </contour>
  </outline>
</glyph>
<glyph name="w" format="2">
  <advance width="840"/>
  <unicode hex="0077"/>
  <anchor x="420" y="0" name="bottom"/>
  <anchor x="420" y="560" name="top"/>
  <outline>
    <contour>
      <point x="94" y="0" type="line"/>
      <point x="368" y="0" type="line"/>
      <point x="420" y="287" type="line"/>
      <point x="472" y="0" type="line"/>
      <point x="746" y="0" type="line"/>
      <point x="825" y="560" type="line"/>
      <point x="601" y="560" type="line"/>
      <point x="566" y="180" type="line"/>
      <point x="556" y="180" type="line"/>
      <point x="508" y="500" type="line"/>
      <point x="332" y="500" type="line"/>
      <point x="284" y="180" type="line"/>
      <point x="274" y="180" type="line"/>
      <point x="239" y="560" type="line"/>
      <point x="15" y="560" type="line"/>
    </contour>
  </outline>
</glyph>
<glyph name="x" format="2">
  <advance width="630"/>
  <unicode hex="0078"/>
  <anchor x="315" y="560" name="top"/>
  <anchor x="315" y="0" name="bottom"/>
  <outline>
    <contour>
      <point x="10" y="0" type="line"/>
      <point x="258" y="0" type="line"/>
      <point x="299" y="191" type="line"/>
      <point x="331" y="191" type="line"/>
      <point x="372" y="0" type="line"/>
      <point x="620" y="0" type="line"/>
      <point x="500" y="291" type="line"/>
      <point x="614" y="560" type="line"/>
      <point x="369" y="560" type="line"/>
      <point x="326" y="371" type="line"/>
      <point x="304" y="371" type="line"/>
      <point x="261" y="560" type="line"/>
      <point x="16" y="560" type="line"/>
      <point x="130" y="291" type="line"/>
    </contour>
  </outline>
</glyph>
<glyph name="y" format="2">
  <advance width="600"/>
  <unicode hex="0079"/>
  <anchor x="230" y="-160" name="bottom"/>
  <anchor x="300" y="560" name="top"/>
  <outline>
    <contour>
      <point x="40" y="-140" type="line"/>
      <point x="438" y="-140" type="line"/>
      <point x="595" y="560" type="line"/>
      <point x="372" y="560" type="line"/>
      <point x="322" y="250" type="line"/>
      <point x="280" y="250" type="line"/>
      <point x="230" y="560" type="line"/>
      <point x="5" y="560" type="line"/>
      <point x="114" y="80" type="line"/>
      <point x="289" y="80" type="line"/>
      <point x="282" y="40" type="line"/>
      <point x="40" y="40" type="line"/>
    </contour>
  </outline>
</glyph>
<glyph name="z" format="2">
  <advance width="530"/>
  <unicode hex="007A"/>
  <anchor x="265" y="0" name="bottom"/>
  <anchor x="265" y="560" name="top"/>
  <outline>
    <contour>
      <point x="20" y="0" type="line"/>
      <point x="510" y="0" type="line"/>
      <point x="510" y="180" type="line"/>
      <point x="290" y="180" type="line"/>
      <point x="510" y="400" type="line"/>
      <point x="510" y="560" type="line"/>
      <point x="20" y="560" type="line"/>
      <point x="20" y="380" type="line"/>
      <point x="240" y="380" type="line"/>
      <point x="20" y="160" type="line"/>
    </contour>
  </outline>
</glyph>
<glyph name="braceleft" format="2">
  <advance width="410"/>
  <unicode hex="007B"/>
  <outline>
    <contour>
      <point x="100" y="10" type="line"/>
      <point x="250" y="-140" type="line"/>
      <point x="390" y="-140" type="line"/>
      <point x="390" y="35" type="line"/>
      <point x="320" y="35" type="line"/>
      <point x="320" y="225" type="line"/>
      <point x="240" y="305" type="line"/>
      <point x="320" y="385" type="line"/>
      <point x="320" y="575" type="line"/>
      <point x="390" y="575" type="line"/>
      <point x="390" y="750" type="line"/>
      <point x="250" y="750" type="line"/>
      <point x="100" y="600" type="line"/>
      <point x="100" y="390" type="line"/>
      <point x="20" y="390" type="line"/>
      <point x="20" y="220" type="line"/>
      <point x="100" y="220" type="line"/>
    </contour>
  </outline>
</glyph>
<glyph name="asciitilde" format="2">
  <advance width="600"/>
  <unicode hex="007E"/>
  <outline>
    <contour>
      <point x="40" y="172" type="line"/>
      <point x="166" y="270" type="line"/>
      <point x="450" y="160" type="line"/>
      <point x="580" y="283" type="line"/>
      <point x="560" y="478" type="line"/>
      <point x="434" y="380" type="line"/>
      <point x="150" y="490" type="line"/>
      <point x="20" y="367" type="line"/>
    </contour>
  </outline>
</glyph>
<glyph name="cent" format="2">
  <advance width="520"/>
  <unicode hex="00A2"/>
  <outline>
    <contour>
      <point x="30" y="200" type="line"/>
      <point x="160" y="70" type="line"/>
      <point x="220" y="70" type="line"/>
      <point x="220" y="-40" type="line"/>
      <point x="390" y="-40" type="line"/>
      <point x="390" y="70" type="line"/>
      <point x="500" y="70" type="line"/>
      <point x="500" y="270" type="line"/>
      <point x="250" y="270" type="line"/>
      <point x="250" y="430" type="line"/>
      <point x="500" y="430" type="line"/>
      <point x="500" y="630" type="line"/>
      <point x="390" y="630" type="line"/>
      <point x="390" y="740" type="line"/>
      <point x="220" y="740" type="line"/>
      <point x="220" y="630" type="line"/>
      <point x="160" y="630" type="line"/>
      <point x="30" y="500" type="line"/>
    </contour>
  </outline>
</glyph>
<glyph name="sterling" format="2">
  <advance width="640"/>
  <unicode hex="00A3"/>
  <outline>
    <contour>
      <point x="500" y="250" type="line"/>
      <point x="500" y="420" type="line"/>
      <point x="370" y="420" type="line"/>
      <point x="370" y="530" type="line"/>
      <point x="426" y="530" type="line"/>
      <point x="426" y="470" type="line"/>
      <point x="590" y="470" type="line"/>
      <point x="590" y="700" type="line"/>
      <point x="230" y="700" type="line"/>
      <point x="150" y="620" type="line"/>
      <point x="150" y="420" type="line"/>
      <point x="70" y="420" type="line"/>
      <point x="70" y="250" type="line"/>
      <point x="150" y="250" type="line"/>
      <point x="150" y="180" type="line"/>
      <point x="30" y="180" type="line"/>
      <point x="30" y="0" type="line"/>
      <point x="620" y="0" type="line"/>
      <point x="620" y="180" type="line"/>
      <point x="370" y="180" type="line"/>
      <point x="370" y="250" type="line"/>
    </contour>
  </outline>
</glyph>
<glyph name="currency" format="2">
  <advance width="670"/>
  <unicode hex="00A4"/>
  <outline>
    <contour>
      <point x="105" y="270" type="line"/>
      <point x="151" y="224" type="line"/>
      <point x="16" y="0" type="line"/>
      <point x="261" y="0" type="line"/>
      <point x="314" y="160" type="line"/>
      <point x="356" y="160" type="line"/>
      <point x="409" y="0" type="line"/>
      <point x="654" y="0" type="line"/>
      <point x="519" y="224" type="line"/>
      <point x="565" y="270" type="line"/>
      <point x="565" y="430" type="line"/>
      <point x="519" y="476" type="line"/>
      <point x="654" y="700" type="line"/>
      <point x="409" y="700" type="line"/>
      <point x="356" y="540" type="line"/>
      <point x="314" y="540" type="line"/>
      <point x="261" y="700" type="line"/>
      <point x="16" y="700" type="line"/>
      <point x="151" y="476" type="line"/>
      <point x="105" y="430" type="line"/>
    </contour>
    <contour>
      <point x="305" y="300" type="line"/>
      <point x="305" y="400" type="line"/>
      <point x="365" y="400" type="line"/>
      <point x="365" y="300" type="line"/>
    </contour>
  </outline>
</glyph>
<glyph name="yen" format="2">
  <advance width="640"/>
  <unicode hex="00A5"/>
  <outline>
    <contour>
      <point x="210" y="0" type="line"/>
      <point x="430" y="0" type="line"/>
      <point x="430" y="90" type="line"/>
      <point x="610" y="90" type="line"/>
      <point x="610" y="210" type="line"/>
      <point x="430" y="210" type="line"/>
      <point x="430" y="260" type="line"/>
      <point x="610" y="260" type="line"/>
      <point x="610" y="380" type="line"/>
      <point x="536" y="380" type="line"/>
      <point x="635" y="700" type="line"/>
      <point x="400" y="700" type="line"/>
      <point x="335" y="380" type="line"/>
      <point x="305" y="380" type="line"/>
      <point x="240" y="700" type="line"/>
      <point x="5" y="700" type="line"/>
      <point x="104" y="380" type="line"/>
      <point x="30" y="380" type="line"/>
      <point x="30" y="260" type="line"/>
      <point x="210" y="260" type="line"/>
      <point x="210" y="210" type="line"/>
      <point x="30" y="210" type="line"/>
      <point x="30" y="90" type="line"/>
      <point x="210" y="90" type="line"/>
    </contour>
  </outline>
</glyph>
<glyph name="brokenbar" format="2">
  <advance width="320"/>
  <unicode hex="00A6"/>
  <outline>
    <contour>
      <point x="60" y="-200" type="line"/>
      <point x="260" y="-200" type="line"/>
      <point x="260" y="250" type="line"/>
      <point x="60" y="250" type="line"/>
    </contour>
    <contour>
      <point x="60" y="350" type="line"/>
      <point x="260" y="350" type="line"/>
      <point x="260" y="800" type="line"/>
      <point x="60" y="800" type="line"/>
    </contour>
  </outline>
</glyph>
<glyph name="section" format="2">
  <advance width="640"/>
  <unicode hex="00A7"/>
  <outline>
    <contour>
      <point x="55" y="-100" type="line"/>
      <point x="473" y="-100" type="line"/>
      <point x="600" y="27" type="line"/>
      <point x="600" y="360" type="line"/>
      <point x="490" y="470" type="line"/>
      <point x="250" y="470" type="line"/>
      <point x="250" y="540" type="line"/>
      <point x="580" y="540" type="line"/>
      <point x="580" y="700" type="line"/>
      <point x="170" y="700" type="line"/>
      <point x="40" y="570" type="line"/>
      <point x="40" y="240" type="line"/>
      <point x="150" y="130" type="line"/>
      <point x="390" y="130" type="line"/>
      <point x="390" y="60" type="line"/>
      <point x="55" y="60" type="line"/>
    </contour>
    <contour>
      <point x="250" y="250" type="line"/>
      <point x="250" y="350" type="line"/>
      <point x="390" y="350" type="line"/>
      <point x="390" y="250" type="line"/>
    </contour>
  </outline>
</glyph>
<glyph name="dieresis" format="2">
  <advance width="540"/>
  <unicode hex="00A8"/>
  <outline>
    <contour>
      <point x="40" y="600" type="line"/>
      <point x="240" y="600" type="line"/>
      <point x="240" y="730" type="line"/>
      <point x="40" y="730" type="line"/>
    </contour>
    <contour>
      <point x="300" y="600" type="line"/>
      <point x="500" y="600" type="line"/>
      <point x="500" y="730" type="line"/>
      <point x="300" y="730" type="line"/>
    </contour>
  </outline>
</glyph>
<glyph name="copyright" format="2">
  <advance width="900"/>
  <unicode hex="00A9"/>
  <outline>
    <contour>
      <point x="235" y="210" type="line"/>
      <point x="365" y="80" type="line"/>
      <point x="665" y="80" type="line"/>
      <point x="665" y="280" type="line"/>
      <point x="445" y="280" type="line"/>
      <point x="445" y="360" type="line"/>
      <point x="665" y="360" type="line"/>
      <point x="665" y="560" type="line"/>
      <point x="365" y="560" type="line"/>
      <point x="235" y="430" type="line"/>
    </contour>
    <contour>
      <point x="35" y="50" type="line"/>
      <point x="185" y="-100" type="line"/>
      <point x="715" y="-100" type="line"/>
      <point x="865" y="50" type="line"/>
      <point x="865" y="590" type="line"/>
      <point x="715" y="740" type="line"/>
      <point x="185" y="740" type="line"/>
      <point x="35" y="590" type="line"/>
    </contour>
    <contour>
      <point x="185" y="610" type="line"/>
      <point x="715" y="610" type="line"/>
      <point x="715" y="30" type="line"/>
      <point x="185" y="30" type="line"/>
    </contour>
  </outline>
</glyph>
<glyph name="ordfeminine" format="2">
  <advance width="510"/>
  <unicode hex="00AA"/>
  <outline>
    <contour>
      <point x="30" y="350" type="line"/>
      <point x="130" y="250" type="line"/>
      <point x="470" y="250" type="line"/>
      <point x="470" y="600" type="line"/>
      <point x="370" y="700" type="line"/>
      <point x="50" y="700" type="line"/>
      <point x="50" y="560" type="line"/>
      <point x="280" y="560" type="line"/>
      <point x="280" y="520" type="line"/>
      <point x="30" y="510" type="line"/>
    </contour>
    <contour>
      <point x="220" y="430" type="line"/>
      <point x="280" y="450" type="line"/>
      <point x="280" y="380" type="line"/>
      <point x="220" y="380" type="line"/>
    </contour>
  </outline>
</glyph>
<glyph name="guillemotleft" format="2">
  <advance width="750"/>
  <unicode hex="00AB"/>
  <outline>
    <contour>
      <point x="20" y="275" type="line"/>
      <point x="190" y="0" type="line"/>
      <point x="430" y="0" type="line"/>
      <point x="261" y="280" type="line"/>
      <point x="430" y="560" type="line"/>
      <point x="190" y="560" type="line"/>
      <point x="20" y="285" type="line"/>
    </contour>
    <contour>
      <point x="320" y="275" type="line"/>
      <point x="490" y="0" type="line"/>
      <point x="730" y="0" type="line"/>
      <point x="561" y="280" type="line"/>
      <point x="730" y="560" type="line"/>
      <point x="490" y="560" type="line"/>
      <point x="320" y="285" type="line"/>
    </contour>
  </outline>
</glyph>
<glyph name="registered" format="2">
  <advance width="400"/>
  <unicode hex="00AE"/>
  <outline>
    <contour>
      <point x="200" y="370" type="curve" smooth="yes"/>
      <point x="305" y="370"/>
      <point x="380" y="442"/>
      <point x="380" y="540" type="curve" smooth="yes"/>
      <point x="380" y="638"/>
      <point x="305" y="710"/>
      <point x="200" y="710" type="curve" smooth="yes"/>
      <point x="95" y="710"/>
      <point x="20" y="638"/>
      <point x="20" y="540" type="curve" smooth="yes"/>
      <point x="20" y="442"/>
      <point x="95" y="370"/>
    </contour>
    <contour>
      <point x="71" y="541" type="curve" smooth="yes"/>
      <point x="71" y="615"/>
      <point x="122" y="664"/>
      <point x="200" y="664" type="curve" smooth="yes"/>
      <point x="278" y="664"/>
      <point x="329" y="615"/>
      <point x="329" y="541" type="curve" smooth="yes"/>
      <point x="329" y="465"/>
      <point x="278" y="416"/>
      <point x="200" y="416" type="curve" smooth="yes"/>
      <point x="122" y="416"/>
      <point x="71" y="465"/>
    </contour>
    <contour>
      <point x="129" y="455" type="line"/>
      <point x="185" y="455" type="line"/>
      <point x="185" y="502" type="line"/>
      <point x="207" y="502" type="line"/>
      <point x="227" y="455" type="line"/>
      <point x="293" y="455" type="line"/>
      <point x="253" y="511" type="line"/>
      <point x="274" y="521"/>
      <point x="285" y="540"/>
      <point x="285" y="565" type="curve" smooth="yes"/>
      <point x="285" y="606"/>
      <point x="255" y="630"/>
      <point x="206" y="630" type="curve" smooth="yes"/>
      <point x="129" y="630" type="line"/>
    </contour>
    <contour>
      <point x="185" y="542" type="line"/>
      <point x="185" y="585" type="line"/>
      <point x="205" y="585" type="line" smooth="yes"/>
      <point x="221" y="585"/>
      <point x="229" y="578"/>
      <point x="229" y="564" type="curve" smooth="yes"/>
      <point x="229" y="549"/>
      <point x="221" y="542"/>
      <point x="205" y="542" type="curve" smooth="yes"/>
    </contour>
  </outline>
</glyph>
<glyph name="macron" format="2">
  <advance width="420"/>
  <unicode hex="00AF"/>
  <outline>
    <contour>
      <point x="40" y="600" type="line"/>
      <point x="380" y="600" type="line"/>
      <point x="380" y="730" type="line"/>
      <point x="40" y="730" type="line"/>
    </contour>
  </outline>
</glyph>
<glyph name="twosuperior" format="2">
  <advance width="470"/>
  <unicode hex="00B2"/>
  <outline>
    <contour>
      <point x="430" y="414" type="line"/>
      <point x="220" y="414" type="line"/>
      <point x="220" y="437" type="line"/>
      <point x="430" y="466" type="line"/>
      <point x="430" y="614" type="line"/>
      <point x="323" y="700" type="line"/>
      <point x="40" y="700" type="line"/>
      <point x="40" y="586" type="line"/>
      <point x="250" y="586" type="line"/>
      <point x="250" y="551" type="line"/>
      <point x="40" y="523" type="line"/>
      <point x="40" y="300" type="line"/>
      <point x="430" y="300" type="line"/>
    </contour>
  </outline>
</glyph>
<glyph name="threesuperior" format="2">
  <advance width="460"/>
  <unicode hex="00B3"/>
  <outline>
    <contour>
      <point x="364" y="300" type="line"/>
      <point x="440" y="376" type="line"/>
      <point x="440" y="463" type="line"/>
      <point x="371" y="509" type="line"/>
      <point x="426" y="545" type="line"/>
      <point x="426" y="624" type="line"/>
      <point x="350" y="700" type="line"/>
      <point x="37" y="700" type="line"/>
      <point x="37" y="586" type="line"/>
      <point x="226" y="586" type="line"/>
      <point x="226" y="551" type="line"/>
      <point x="73" y="551" type="line"/>
      <point x="73" y="454" type="line"/>
      <point x="240" y="454" type="line"/>
      <point x="240" y="414" type="line"/>
      <point x="30" y="414" type="line"/>
      <point x="30" y="300" type="line"/>
    </contour>
  </outline>
</glyph>
<glyph name="uni00B5" format="2">
  <advance width="620"/>
  <unicode hex="00B5"/>
  <outline>
    <contour>
      <point x="580" y="560" type="line"/>
      <point x="360" y="560" type="line"/>
      <point x="360" y="190" type="line"/>
      <point x="260" y="190" type="line"/>
      <point x="260" y="560" type="line"/>
      <point x="40" y="560" type="line"/>
      <point x="40" y="-160" type="line"/>
      <point x="260" y="-160" type="line"/>
      <point x="260" y="0" type="line"/>
      <point x="580" y="0" type="line"/>
    </contour>
  </outline>
</glyph>
<glyph name="paragraph" format="2">
  <advance width="740"/>
  <unicode hex="00B6"/>
  <outline>
    <contour>
      <point x="700" y="-140" type="line"/>
      <point x="700" y="700" type="line"/>
      <point x="170" y="700" type="line"/>
      <point x="20" y="550" type="line"/>
      <point x="20" y="280" type="line"/>
      <point x="150" y="150" type="line"/>
      <point x="260" y="150" type="line"/>
      <point x="260" y="-140" type="line"/>
      <point x="450" y="-140" type="line"/>
      <point x="450" y="530" type="line"/>
      <point x="510" y="530" type="line"/>
      <point x="510" y="-140" type="line"/>
    </contour>
  </outline>
</glyph>
<glyph name="onesuperior" format="2">
  <advance width="350"/>
  <unicode hex="00B9"/>
  <outline>
    <contour>
      <point x="43" y="298" type="line"/>
      <point x="174" y="302" type="line"/>
      <point x="305" y="298" type="line"/>
      <point x="305" y="392" type="line"/>
      <point x="265" y="395" type="line"/>
      <point x="265" y="700" type="line"/>
      <point x="43" y="677" type="line"/>
      <point x="43" y="577" type="line"/>
      <point x="85" y="582" type="line"/>
      <point x="85" y="395" type="line"/>
      <point x="43" y="392" type="line"/>
    </contour>
  </outline>
</glyph>
<glyph name="AE" format="2">
  <advance width="845"/>
  <unicode hex="00C6"/>
  <anchor x="422.5" y="0" name="bottom"/>
  <anchor x="470" y="700" name="top"/>
  <outline>
    <contour>
      <point x="5" y="0" type="line"/>
      <point x="240" y="0" type="line"/>
      <point x="256" y="130" type="line"/>
      <point x="355" y="130" type="line"/>
      <point x="355" y="0" type="line"/>
      <point x="815" y="0" type="line"/>
      <point x="815" y="180" type="line"/>
      <point x="565" y="180" type="line"/>
      <point x="565" y="270" type="line"/>
      <point x="755" y="270" type="line"/>
      <point x="755" y="440" type="line"/>
      <point x="565" y="440" type="line"/>
      <point x="565" y="520" type="line"/>
      <point x="805" y="520" type="line"/>
      <point x="805" y="700" type="line"/>
      <point x="136" y="700" type="line"/>
    </contour>
    <contour>
      <point x="274" y="280" type="line"/>
      <point x="305" y="530" type="line"/>
      <point x="355" y="530" type="line"/>
      <point x="355" y="280" type="line"/>
    </contour>
  </outline>
</glyph>
<glyph name="multiply" format="2">
  <advance width="600"/>
  <unicode hex="00D7"/>
  <outline>
    <contour>
      <point x="35" y="189" type="line"/>
      <point x="169" y="55" type="line"/>
      <point x="300" y="186" type="line"/>
      <point x="431" y="55" type="line"/>
      <point x="565" y="189" type="line"/>
      <point x="434" y="320" type="line"/>
      <point x="565" y="451" type="line"/>
      <point x="431" y="585" type="line"/>
      <point x="300" y="454" type="line"/>
      <point x="169" y="585" type="line"/>
      <point x="35" y="451" type="line"/>
      <point x="166" y="320" type="line"/>
    </contour>
  </outline>
</glyph>
<glyph name="Oslash" format="2">
  <advance width="650"/>
  <unicode hex="00D8"/>
  <anchor x="325" y="0" name="bottom"/>
  <anchor x="325" y="700" name="top"/>
  <outline>
    <contour>
      <point x="35" y="150" type="line"/>
      <point x="185" y="0" type="line"/>
      <point x="465" y="0" type="line"/>
      <point x="615" y="150" type="line"/>
      <point x="615" y="550" type="line"/>
      <point x="465" y="700" type="line"/>
      <point x="185" y="700" type="line"/>
      <point x="35" y="550" type="line"/>
    </contour>
    <contour>
      <point x="255" y="510" type="line"/>
      <point x="395" y="510" type="line"/>
      <point x="395" y="190" type="line"/>
      <point x="255" y="190" type="line"/>
    </contour>
    <contour>
      <point x="40" y="0" type="line"/>
      <point x="115" y="0" type="line"/>
      <point x="610" y="700" type="line"/>
      <point x="535" y="700" type="line"/>
    </contour>
  </outline>
</glyph>
<glyph name="Thorn" format="2">
  <advance width="640"/>
  <unicode hex="00DE"/>
  <outline>
    <contour>
      <point x="40" y="0" type="line"/>
      <point x="260" y="0" type="line"/>
      <point x="260" y="90" type="line"/>
      <point x="470" y="90" type="line"/>
      <point x="620" y="240" type="line"/>
      <point x="620" y="470" type="line"/>
      <point x="470" y="620" type="line"/>
      <point x="260" y="620" type="line"/>
      <point x="260" y="700" type="line"/>
      <point x="40" y="700" type="line"/>
    </contour>
    <contour>
      <point x="260" y="260" type="line"/>
      <point x="260" y="450" type="line"/>
      <point x="400" y="450" type="line"/>
      <point x="400" y="260" type="line"/>
    </contour>
  </outline>
</glyph>
<glyph name="germandbls" format="2">
  <advance width="630"/>
  <unicode hex="00DF"/>
  <outline>
    <contour>
      <point x="590" y="550" type="line"/>
      <point x="440" y="700" type="line"/>
      <point x="190" y="700" type="line"/>
      <point x="40" y="550" type="line"/>
      <point x="40" y="0" type="line"/>
      <point x="260" y="0" type="line"/>
      <point x="260" y="530" type="line"/>
      <point x="375" y="530" type="line"/>
      <point x="375" y="425" type="line"/>
      <point x="310" y="425" type="line"/>
      <point x="310" y="285" type="line"/>
      <point x="390" y="285" type="line"/>
      <point x="390" y="170" type="line"/>
      <point x="310" y="170" type="line"/>
      <point x="310" y="0" type="line"/>
      <point x="480" y="0" type="line"/>
      <point x="610" y="130" type="line"/>
      <point x="610" y="286" type="line"/>
      <point x="513" y="366" type="line"/>
      <point x="590" y="429" type="line"/>
    </contour>
  </outline>
</glyph>
<glyph name="ae" format="2">
  <advance width="900"/>
  <unicode hex="00E6"/>
  <anchor x="450" y="0" name="bottom"/>
  <anchor x="450" y="560" name="top"/>
  <outline>
    <contour>
      <point x="30" y="140" type="line"/>
      <point x="170" y="0" type="line"/>
      <point x="850" y="0" type="line"/>
      <point x="850" y="170" type="line"/>
      <point x="560" y="170" type="line"/>
      <point x="560" y="240" type="line"/>
      <point x="870" y="240" type="line"/>
      <point x="870" y="560" type="line"/>
      <point x="540" y="560" type="line"/>
      <point x="450" y="470" type="line"/>
      <point x="360" y="560" type="line"/>
      <point x="50" y="560" type="line"/>
      <point x="50" y="380" type="line"/>
      <point x="340" y="380" type="line"/>
      <point x="340" y="330" type="line"/>
      <point x="30" y="320" type="line"/>
    </contour>
    <contour>
      <point x="560" y="330" type="line"/>
      <point x="560" y="400" type="line"/>
      <point x="690" y="400" type="line"/>
      <point x="690" y="340" type="line"/>
    </contour>
    <contour>
      <point x="250" y="220" type="line"/>
      <point x="340" y="240" type="line"/>
      <point x="340" y="160" type="line"/>
      <point x="250" y="160" type="line"/>
    </contour>
  </outline>
</glyph>
<glyph name="eth" format="2">
  <advance width="600"/>
  <unicode hex="00F0"/>
  <outline>
    <contour>
      <point x="170" y="0" type="line"/>
      <point x="30" y="140" type="line"/>
      <point x="30" y="382" type="line"/>
      <point x="309" y="457" type="line"/>
      <point x="100" y="700" type="line"/>
      <point x="360" y="700" type="line"/>
      <point x="570" y="452" type="line"/>
      <point x="570" y="140" type="line"/>
      <point x="430" y="0" type="line"/>
    </contour>
    <contour>
      <point x="350" y="356" type="line"/>
      <point x="250" y="316" type="line"/>
      <point x="250" y="180" type="line"/>
      <point x="350" y="180" type="line"/>
    </contour>
    <contour>
      <point x="80" y="479" type="line"/>
      <point x="80" y="582" type="line"/>
      <point x="520" y="700" type="line"/>
      <point x="520" y="597" type="line"/>
    </contour>
  </outline>
</glyph>
<glyph name="oslash" format="2">
  <advance width="600"/>
  <unicode hex="00F8"/>
  <anchor x="300" y="560" name="top"/>
  <anchor x="300" y="0" name="bottom"/>
  <outline>
    <contour>
      <point x="30" y="130" type="line"/>
      <point x="160" y="0" type="line"/>
      <point x="440" y="0" type="line"/>
      <point x="570" y="130" type="line"/>
      <point x="570" y="430" type="line"/>
      <point x="440" y="560" type="line"/>
      <point x="160" y="560" type="line"/>
      <point x="30" y="430" type="line"/>
    </contour>
    <contour>
      <point x="245" y="160" type="line"/>
      <point x="245" y="400" type="line"/>
      <point x="355" y="400" type="line"/>
      <point x="355" y="160" type="line"/>
    </contour>
    <contour>
      <point x="30" y="0" type="line"/>
      <point x="105" y="0" type="line"/>
      <point x="570" y="560" type="line"/>
      <point x="495" y="560" type="line"/>
    </contour>
  </outline>
</glyph>
<glyph name="thorn" format="2">
  <advance width="620"/>
  <unicode hex="00FE"/>
  <anchor x="260" y="-140" name="bottom"/>
  <anchor x="260" y="700" name="top"/>
  <outline>
    <contour>
      <point x="40" y="-140" type="line"/>
      <point x="260" y="-140" type="line"/>
      <point x="260" y="0" type="line"/>
      <point x="440" y="0" type="line"/>
      <point x="590" y="150" type="line"/>
      <point x="590" y="410" type="line"/>
      <point x="440" y="560" type="line"/>
      <point x="260" y="560" type="line"/>
      <point x="260" y="700" type="line"/>
      <point x="40" y="700" type="line"/>
    </contour>
    <contour>
      <point x="260" y="180" type="line"/>
      <point x="260" y="380" type="line"/>
      <point x="370" y="380" type="line"/>
      <point x="370" y="180" type="line"/>
    </contour>
  </outline>
</glyph>
<glyph name="dcroat" format="2">
  <advance width="620"/>
  <unicode hex="0111"/>
  <anchor x="360" y="0" name="bottom"/>
  <anchor x="360" y="700" name="top"/>
  <outline>
    <contour>
      <point x="580" y="700" type="line"/>
      <point x="360" y="700" type="line"/>
      <point x="360" y="510" type="line"/>
      <point x="180" y="510" type="line"/>
      <point x="30" y="360" type="line"/>
      <point x="30" y="150" type="line"/>
      <point x="180" y="0" type="line"/>
      <point x="580" y="0" type="line"/>
    </contour>
    <contour>
      <point x="250" y="180" type="line"/>
      <point x="250" y="330" type="line"/>
      <point x="360" y="330" type="line"/>
      <point x="360" y="180" type="line"/>
    </contour>
    <contour>
      <point x="175" y="564" type="line"/>
      <point x="575" y="564" type="line"/>
      <point x="575" y="640" type="line"/>
      <point x="175" y="640" type="line"/>
    </contour>
  </outline>
</glyph>
<glyph name="hbar" format="2">
  <advance width="620"/>
  <unicode hex="0127"/>
  <anchor x="310" y="0" name="bottom"/>
  <anchor x="260" y="700" name="top"/>
  <outline>
    <contour>
      <point x="40" y="0" type="line"/>
      <point x="260" y="0" type="line"/>
      <point x="260" y="330" type="line"/>
      <point x="360" y="330" type="line"/>
      <point x="360" y="0" type="line"/>
      <point x="580" y="0" type="line"/>
      <point x="580" y="370" type="line"/>
      <point x="440" y="510" type="line"/>
      <point x="260" y="510" type="line"/>
      <point x="260" y="700" type="line"/>
      <point x="40" y="700" type="line"/>
    </contour>
    <contour>
      <point x="5" y="564" type="line"/>
      <point x="445" y="564" type="line"/>
      <point x="445" y="640" type="line"/>
      <point x="5" y="640" type="line"/>
    </contour>
  </outline>
</glyph>
<glyph name="itilde" format="2">
  <advance width="300"/>
  <unicode hex="0129"/>
  <anchor x="150" y="730" name="top"/>
  <anchor x="150" y="0" name="bottom"/>
  <outline>
    <contour>
      <point x="40" y="0" type="line"/>
      <point x="260" y="0" type="line"/>
      <point x="260" y="560" type="line"/>
      <point x="40" y="560" type="line"/>
    </contour>
    <contour>
      <point x="-10" y="570" type="line"/>
      <point x="69" y="615" type="line"/>
      <point x="230" y="575" type="line"/>
      <point x="310" y="635" type="line"/>
      <point x="310" y="750" type="line"/>
      <point x="231" y="705" type="line"/>
      <point x="70" y="745" type="line"/>
      <point x="-10" y="685" type="line"/>
    </contour>
  </outline>
</glyph>
<glyph name="dotlessi" format="2">
  <advance width="300"/>
  <unicode hex="0131"/>
  <anchor x="150" y="560" name="top"/>
  <anchor x="150" y="0" name="bottom"/>
  <outline>
    <contour>
      <point x="40" y="0" type="line"/>
      <point x="260" y="0" type="line"/>
      <point x="260" y="560" type="line"/>
      <point x="40" y="560" type="line"/>
    </contour>
  </outline>
</glyph>
<glyph name="lslash" format="2">
  <advance width="340"/>
  <unicode hex="0142"/>
  <anchor x="170" y="700" name="top"/>
  <anchor x="170" y="0" name="bottom"/>
  <outline>
    <component base="l" xOffset="20"/>
    <contour>
      <point x="5" y="160" type="line"/>
      <point x="335" y="340" type="line"/>
      <point x="335" y="540" type="line"/>
      <point x="5" y="360" type="line"/>
    </contour>
  </outline>
</glyph>
<glyph name="Eng" format="2">
  <advance width="680"/>
  <unicode hex="014A"/>
  <anchor x="340" y="700" name="top"/>
  <anchor x="340" y="-160" name="bottom"/>
  <outline>
    <contour>
      <point x="40" y="0" type="line"/>
      <point x="240" y="0" type="line"/>
      <point x="240" y="345" type="line"/>
      <point x="440" y="31" type="line"/>
      <point x="440" y="-10" type="line"/>
      <point x="370" y="-10" type="line"/>
      <point x="370" y="-160" type="line"/>
      <point x="516" y="-160" type="line"/>
      <point x="640" y="-36" type="line"/>
      <point x="640" y="700" type="line"/>
      <point x="440" y="700" type="line"/>
      <point x="440" y="355" type="line"/>
      <point x="220" y="700" type="line"/>
      <point x="40" y="700" type="line"/>
    </contour>
  </outline>
</glyph>
<glyph name="eng" format="2">
  <advance width="620"/>
  <unicode hex="014B"/>
  <anchor x="310" y="560" name="top"/>
  <anchor x="310" y="-160" name="bottom"/>
  <outline>
    <contour>
      <point x="40" y="0" type="line"/>
      <point x="260" y="0" type="line"/>
      <point x="260" y="370" type="line"/>
      <point x="360" y="370" type="line"/>
      <point x="360" y="-10" type="line"/>
      <point x="310" y="-10" type="line"/>
      <point x="310" y="-160" type="line"/>
      <point x="456" y="-160" type="line"/>
      <point x="580" y="-36" type="line"/>
      <point x="580" y="420" type="line"/>
      <point x="440" y="560" type="line"/>
      <point x="40" y="560" type="line"/>
    </contour>
  </outline>
</glyph>
<glyph name="OE" format="2">
  <advance width="915"/>
  <unicode hex="0152"/>
  <anchor x="457.5" y="0" name="bottom"/>
  <anchor x="457.5" y="700" name="top"/>
  <outline>
    <contour>
      <point x="35" y="150" type="line"/>
      <point x="185" y="0" type="line"/>
      <point x="885" y="0" type="line"/>
      <point x="885" y="180" type="line"/>
      <point x="615" y="180" type="line"/>
      <point x="615" y="270" type="line"/>
      <point x="825" y="270" type="line"/>
      <point x="825" y="440" type="line"/>
      <point x="615" y="440" type="line"/>
      <point x="615" y="520" type="line"/>
      <point x="875" y="520" type="line"/>
      <point x="875" y="700" type="line"/>
      <point x="185" y="700" type="line"/>
      <point x="35" y="550" type="line"/>
    </contour>
    <contour>
      <point x="255" y="500" type="line"/>
      <point x="395" y="500" type="line"/>
      <point x="395" y="200" type="line"/>
      <point x="255" y="200" type="line"/>
    </contour>
  </outline>
</glyph>
<glyph name="oe" format="2">
  <advance width="910"/>
  <unicode hex="0153"/>
  <anchor x="455" y="0" name="bottom"/>
  <anchor x="455" y="560" name="top"/>
  <outline>
    <contour>
      <point x="30" y="140" type="line"/>
      <point x="170" y="0" type="line"/>
      <point x="400" y="0" type="line"/>
      <point x="460" y="60" type="line"/>
      <point x="520" y="0" type="line"/>
      <point x="860" y="0" type="line"/>
      <point x="860" y="180" type="line"/>
      <point x="570" y="180" type="line"/>
      <point x="570" y="240" type="line"/>
      <point x="880" y="240" type="line"/>
      <point x="880" y="560" type="line"/>
      <point x="520" y="560" type="line"/>
      <point x="460" y="500" type="line"/>
      <point x="400" y="560" type="line"/>
      <point x="170" y="560" type="line"/>
      <point x="30" y="420" type="line"/>
    </contour>
    <contour>
      <point x="250" y="170" type="line"/>
      <point x="250" y="390" type="line"/>
      <point x="350" y="390" type="line"/>
      <point x="350" y="170" type="line"/>
    </contour>
    <contour>
      <point x="570" y="330" type="line"/>
      <point x="570" y="400" type="line"/>
      <point x="700" y="400" type="line"/>
      <point x="700" y="340" type="line"/>
    </contour>
  </outline>
</glyph>
<glyph name="tcaron" format="2">
  <advance width="430"/>
  <unicode hex="0165"/>
  <anchor x="240" y="0" name="bottom"/>
  <anchor x="250" y="700" name="top"/>
  <outline>
    <component base="t"/>
    <contour>
      <point x="344" y="570" type="line"/>
      <point x="410" y="570" type="line"/>
      <point x="410" y="700" type="line"/>
      <point x="344" y="700" type="line"/>
    </contour>
  </outline>
</glyph>
<glyph name="Tbar" format="2">
  <advance width="560"/>
  <unicode hex="0166"/>
  <anchor x="280" y="0" name="bottom"/>
  <anchor x="280" y="700" name="top"/>
  <outline>
    <component base="T"/>
    <contour>
      <point x="60" y="264" type="line"/>
      <point x="500" y="264" type="line"/>
      <point x="500" y="340" type="line"/>
      <point x="60" y="340" type="line"/>
    </contour>
  </outline>
</glyph>
<glyph name="tbar" format="2">
  <advance width="430"/>
  <unicode hex="0167"/>
  <anchor x="240" y="0" name="bottom"/>
  <anchor x="250" y="700" name="top"/>
  <outline>
    <contour>
      <point x="40" y="650" type="line"/>
      <point x="40" y="140" type="line"/>
      <point x="180" y="0" type="line"/>
      <point x="410" y="0" type="line"/>
      <point x="410" y="180" type="line"/>
      <point x="260" y="180" type="line"/>
      <point x="260" y="370" type="line"/>
      <point x="410" y="370" type="line"/>
      <point x="410" y="540" type="line"/>
      <point x="260" y="540" type="line"/>
      <point x="260" y="700" type="line"/>
    </contour>
    <contour>
      <point x="5" y="240" type="line"/>
      <point x="410" y="240" type="line"/>
      <point x="410" y="316" type="line"/>
      <point x="5" y="316" type="line"/>
    </contour>
  </outline>
</glyph>
<glyph name="longs" format="2">
  <advance width="430"/>
  <unicode hex="017F"/>
  <anchor x="220" y="0" name="bottom"/>
  <anchor x="220" y="700" name="top"/>
  <outline>
    <contour>
      <point x="40" y="0" type="line"/>
      <point x="260" y="0" type="line"/>
      <point x="260" y="510" type="line"/>
      <point x="410" y="510" type="line"/>
      <point x="410" y="700" type="line"/>
      <point x="170" y="700" type="line"/>
      <point x="40" y="570" type="line"/>
    </contour>
  </outline>
</glyph>
<glyph name="uni0181" format="2">
  <advance width="835"/>
  <unicode hex="0181"/>
  <anchor x="475" y="0" name="bottom"/>
  <anchor x="475" y="700" name="top"/>
  <outline>
    <contour>
      <point x="190" y="530" type="line"/>
      <point x="225" y="530" type="line"/>
      <point x="225" y="0" type="line"/>
      <point x="675" y="0" type="line"/>
      <point x="815" y="140" type="line"/>
      <point x="815" y="296" type="line"/>
      <point x="728" y="366" type="line"/>
      <point x="795" y="419" type="line"/>
      <point x="795" y="560" type="line"/>
      <point x="655" y="700" type="line"/>
      <point x="130" y="700" type="line"/>
      <point x="10" y="580" type="line"/>
      <point x="10" y="420" type="line"/>
      <point x="190" y="420" type="line"/>
    </contour>
    <contour>
      <point x="445" y="425" type="line"/>
      <point x="445" y="530" type="line"/>
      <point x="570" y="530" type="line"/>
      <point x="570" y="425" type="line"/>
    </contour>
    <contour>
      <point x="445" y="170" type="line"/>
      <point x="445" y="285" type="line"/>
      <point x="585" y="285" type="line"/>
      <point x="585" y="170" type="line"/>
    </contour>
  </outline>
</glyph>
<glyph name="uni018A" format="2">
  <advance width="820"/>
  <unicode hex="018A"/>
  <anchor x="475" y="0" name="bottom"/>
  <anchor x="475" y="700" name="top"/>
  <outline>
    <contour>
      <point x="190" y="530" type="line"/>
      <point x="225" y="530" type="line"/>
      <point x="225" y="0" type="line"/>
      <point x="635" y="0" type="line"/>
      <point x="785" y="150" type="line"/>
      <point x="785" y="550" type="line"/>
      <point x="635" y="700" type="line"/>
      <point x="130" y="700" type="line"/>
      <point x="10" y="580" type="line"/>
      <point x="10" y="420" type="line"/>
      <point x="190" y="420" type="line"/>
    </contour>
    <contour>
      <point x="445" y="190" type="line"/>
      <point x="445" y="510" type="line"/>
      <point x="565" y="510" type="line"/>
      <point x="565" y="190" type="line"/>
    </contour>
  </outline>
</glyph>
<glyph name="uni018F" format="2">
  <advance width="650"/>
  <unicode hex="018F"/>
  <anchor x="305" y="700" name="top"/>
  <anchor x="325" y="0" name="bottom"/>
  <outline>
    <contour>
      <point x="615" y="570" type="line"/>
      <point x="485" y="700" type="line"/>
      <point x="55" y="700" type="line"/>
      <point x="55" y="520" type="line"/>
      <point x="395" y="520" type="line"/>
      <point x="395" y="440" type="line"/>
      <point x="35" y="440" type="line"/>
      <point x="35" y="130" type="line"/>
      <point x="165" y="0" type="line"/>
      <point x="485" y="0" type="line"/>
      <point x="615" y="130" type="line"/>
    </contour>
    <contour>
      <point x="395" y="310" type="line"/>
      <point x="395" y="180" type="line"/>
      <point x="255" y="180" type="line"/>
      <point x="255" y="300" type="line"/>
    </contour>
  </outline>
</glyph>
<glyph name="uni0190" format="2">
  <advance width="630"/>
  <unicode hex="0190"/>
  <anchor x="356" y="0" name="bottom"/>
  <anchor x="356" y="700" name="top"/>
  <outline>
    <contour>
      <point x="160" y="0" type="line"/>
      <point x="20" y="140" type="line"/>
      <point x="20" y="296" type="line"/>
      <point x="107" y="366" type="line"/>
      <point x="40" y="419" type="line"/>
      <point x="40" y="560" type="line"/>
      <point x="180" y="700" type="line"/>
      <point x="590" y="700" type="line"/>
      <point x="590" y="520" type="line"/>
      <point x="265" y="520" type="line"/>
      <point x="265" y="440" type="line"/>
      <point x="540" y="440" type="line"/>
      <point x="540" y="270" type="line"/>
      <point x="245" y="270" type="line"/>
      <point x="245" y="180" type="line"/>
      <point x="600" y="180" type="line"/>
      <point x="600" y="0" type="line"/>
    </contour>
  </outline>
</glyph>
<glyph name="uni0191" format="2">
  <advance width="550"/>
  <unicode hex="0191"/>
  <outline>
    <contour>
      <point x="0" y="0" type="line"/>
      <point x="150" y="0" type="line"/>
      <point x="260" y="110" type="line"/>
      <point x="260" y="210" type="line"/>
      <point x="500" y="210" type="line"/>
      <point x="500" y="400" type="line"/>
      <point x="260" y="400" type="line"/>
      <point x="260" y="500" type="line"/>
      <point x="520" y="500" type="line"/>
      <point x="520" y="700" type="line"/>
      <point x="40" y="700" type="line"/>
      <point x="40" y="190" type="line"/>
      <point x="0" y="190" type="line"/>
    </contour>
  </outline>
</glyph>
<glyph name="florin" format="2">
  <advance width="430"/>
  <unicode hex="0192"/>
  <outline>
    <contour>
      <point x="0" y="-140" type="line"/>
      <point x="130" y="-140" type="line"/>
      <point x="260" y="-10" type="line"/>
      <point x="260" y="240" type="line"/>
      <point x="410" y="240" type="line"/>
      <point x="410" y="420" type="line"/>
      <point x="260" y="420" type="line"/>
      <point x="260" y="510" type="line"/>
      <point x="410" y="510" type="line"/>
      <point x="410" y="700" type="line"/>
      <point x="170" y="700" type="line"/>
      <point x="40" y="570" type="line"/>
      <point x="40" y="50" type="line"/>
      <point x="0" y="50" type="line"/>
    </contour>
  </outline>
</glyph>
<glyph name="uni0192" format="2">
  <advance width="450"/>
  <unicode hex="0192"/>
  <outline>
    <contour>
      <point x="20" y="-140" type="line"/>
      <point x="150" y="-140" type="line"/>
      <point x="280" y="-10" type="line"/>
      <point x="280" y="240" type="line"/>
      <point x="430" y="240" type="line"/>
      <point x="430" y="420" type="line"/>
      <point x="280" y="420" type="line"/>
      <point x="280" y="510" type="line"/>
      <point x="430" y="510" type="line"/>
      <point x="430" y="700" type="line"/>
      <point x="190" y="700" type="line"/>
      <point x="60" y="570" type="line"/>
      <point x="60" y="50" type="line"/>
      <point x="20" y="50" type="line"/>
    </contour>
  </outline>
</glyph>
<glyph name="uni0193" format="2">
  <advance width="640"/>
  <unicode hex="0193"/>
  <outline>
    <contour>
      <point x="185" y="0" type="line"/>
      <point x="605" y="0" type="line"/>
      <point x="605" y="435" type="line"/>
      <point x="315" y="435" type="line"/>
      <point x="315" y="265" type="line"/>
      <point x="415" y="265" type="line"/>
      <point x="415" y="200" type="line"/>
      <point x="255" y="200" type="line"/>
      <point x="255" y="500" type="line"/>
      <point x="555" y="500" type="line"/>
      <point x="555" y="670" type="line"/>
      <point x="620" y="670" type="line"/>
      <point x="620" y="860" type="line"/>
      <point x="455" y="860" type="line"/>
      <point x="365" y="770" type="line"/>
      <point x="365" y="700" type="line"/>
      <point x="185" y="700" type="line"/>
      <point x="35" y="550" type="line"/>
      <point x="35" y="150" type="line"/>
    </contour>
  </outline>
</glyph>
<glyph name="uni0194" format="2">
  <advance width="620"/>
  <unicode hex="0194"/>
  <anchor x="310" y="0" name="bottom"/>
  <anchor x="310" y="700" name="top"/>
  <outline>
    <contour>
      <point x="185" y="0" type="line"/>
      <point x="435" y="0" type="line"/>
      <point x="565" y="130" type="line"/>
      <point x="565" y="285" type="line"/>
      <point x="470" y="406" type="line"/>
      <point x="615" y="700" type="line"/>
      <point x="368" y="700" type="line"/>
      <point x="316" y="495" type="line"/>
      <point x="304" y="495" type="line"/>
      <point x="252" y="700" type="line"/>
      <point x="5" y="700" type="line"/>
      <point x="150" y="406" type="line"/>
      <point x="55" y="285" type="line"/>
      <point x="55" y="130" type="line"/>
    </contour>
    <contour>
      <point x="265" y="180" type="line"/>
      <point x="265" y="257" type="line"/>
      <point x="310" y="313" type="line"/>
      <point x="355" y="257" type="line"/>
      <point x="355" y="180" type="line"/>
    </contour>
  </outline>
</glyph>
<glyph name="uni0197" format="2">
  <advance width="430"/>
  <unicode hex="0197"/>
  <anchor x="215" y="0" name="bottom"/>
  <anchor x="215" y="700" name="top"/>
  <outline>
    <contour>
      <point x="45" y="-4" type="line"/>
      <point x="215" y="4" type="line"/>
      <point x="385" y="-4" type="line"/>
      <point x="385" y="161" type="line"/>
      <point x="325" y="166" type="line"/>
      <point x="325" y="534" type="line"/>
      <point x="385" y="539" type="line"/>
      <point x="385" y="704" type="line"/>
      <point x="215" y="696" type="line"/>
      <point x="45" y="704" type="line"/>
      <point x="45" y="539" type="line"/>
      <point x="105" y="534" type="line"/>
      <point x="105" y="166" type="line"/>
      <point x="45" y="161" type="line"/>
    </contour>
    <contour>
      <point x="55" y="295" type="line"/>
      <point x="375" y="295" type="line"/>
      <point x="375" y="405" type="line"/>
      <point x="55" y="405" type="line"/>
    </contour>
  </outline>
</glyph>
<glyph name="uni0198" format="2">
  <advance width="650"/>
  <unicode hex="0198"/>
  <outline>
    <contour>
      <point x="40" y="0" type="line"/>
      <point x="260" y="0" type="line"/>
      <point x="260" y="260" type="line"/>
      <point x="310" y="260" type="line"/>
      <point x="402" y="0" type="line"/>
      <point x="650" y="0" type="line"/>
      <point x="500" y="370" type="line"/>
      <point x="635" y="700" type="line"/>
      <point x="390" y="700" type="line"/>
      <point x="305" y="450" type="line"/>
      <point x="260" y="450" type="line"/>
      <point x="260" y="540" type="line"/>
      <point x="300" y="540" type="line"/>
      <point x="300" y="700" type="line"/>
      <point x="140" y="700" type="line"/>
      <point x="40" y="600" type="line"/>
    </contour>
  </outline>
</glyph>
<glyph name="uni0199" format="2">
  <advance width="620"/>
  <unicode hex="0199"/>
  <outline>
    <contour>
      <point x="40" y="0" type="line"/>
      <point x="260" y="0" type="line"/>
      <point x="260" y="201" type="line"/>
      <point x="304" y="201" type="line"/>
      <point x="372" y="0" type="line"/>
      <point x="620" y="0" type="line"/>
      <point x="480" y="301" type="line"/>
      <point x="614" y="560" type="line"/>
      <point x="369" y="560" type="line"/>
      <point x="299" y="381" type="line"/>
      <point x="260" y="381" type="line"/>
      <point x="260" y="540" type="line"/>
      <point x="310" y="540" type="line"/>
      <point x="310" y="700" type="line"/>
      <point x="170" y="700" type="line"/>
      <point x="40" y="570" type="line"/>
    </contour>
  </outline>
</glyph>
<glyph name="uni019D" format="2">
  <advance width="680"/>
  <unicode hex="019D"/>
  <outline>
    <contour>
      <point x="0" y="0" type="line"/>
      <point x="150" y="0" type="line"/>
      <point x="240" y="90" type="line"/>
      <point x="240" y="345" type="line"/>
      <point x="460" y="0" type="line"/>
      <point x="640" y="0" type="line"/>
      <point x="640" y="700" type="line"/>
      <point x="440" y="700" type="line"/>
      <point x="440" y="355" type="line"/>
      <point x="220" y="700" type="line"/>
      <point x="40" y="700" type="line"/>
      <point x="40" y="190" type="line"/>
      <point x="0" y="190" type="line"/>
    </contour>
  </outline>
</glyph>
<glyph name="Ohorn" format="2">
  <advance width="650"/>
  <unicode hex="01A0"/>
  <anchor x="325" y="0" name="bottom"/>
  <anchor x="315" y="700" name="top"/>
  <outline>
    <contour>
      <point x="35" y="150" type="line"/>
      <point x="185" y="0" type="line"/>
      <point x="465" y="0" type="line"/>
      <point x="615" y="150" type="line"/>
      <point x="615" y="580" type="line"/>
      <point x="675" y="640" type="line"/>
      <point x="675" y="780" type="line"/>
      <point x="525" y="780" type="line"/>
      <point x="525" y="700" type="line"/>
      <point x="185" y="700" type="line"/>
      <point x="35" y="550" type="line"/>
    </contour>
    <contour>
      <point x="255" y="500" type="line"/>
      <point x="395" y="500" type="line"/>
      <point x="395" y="200" type="line"/>
      <point x="255" y="200" type="line"/>
    </contour>
  </outline>
</glyph>
<glyph name="ohorn" format="2">
  <advance width="630"/>
  <unicode hex="01A1"/>
  <anchor x="280" y="560" name="top"/>
  <anchor x="300" y="0" name="bottom"/>
  <outline>
    <contour>
      <point x="30" y="130" type="line"/>
      <point x="160" y="0" type="line"/>
      <point x="440" y="0" type="line"/>
      <point x="570" y="130" type="line"/>
      <point x="570" y="420" type="line"/>
      <point x="650" y="500" type="line"/>
      <point x="650" y="640" type="line"/>
      <point x="500" y="640" type="line"/>
      <point x="500" y="560" type="line"/>
      <point x="160" y="560" type="line"/>
      <point x="30" y="430" type="line"/>
    </contour>
    <contour>
      <point x="250" y="170" type="line"/>
      <point x="250" y="390" type="line"/>
      <point x="350" y="390" type="line"/>
      <point x="350" y="170" type="line"/>
    </contour>
  </outline>
</glyph>
<glyph name="Uhorn" format="2">
  <advance width="650"/>
  <unicode hex="01AF"/>
  <anchor x="325" y="700" name="top"/>
  <anchor x="325" y="0" name="bottom"/>
  <outline>
    <contour>
      <point x="40" y="150" type="line"/>
      <point x="190" y="0" type="line"/>
      <point x="460" y="0" type="line"/>
      <point x="610" y="150" type="line"/>
      <point x="610" y="540" type="line"/>
      <point x="710" y="640" type="line"/>
      <point x="710" y="780" type="line"/>
      <point x="560" y="780" type="line"/>
      <point x="560" y="700" type="line"/>
      <point x="390" y="700" type="line"/>
      <point x="390" y="200" type="line"/>
      <point x="260" y="200" type="line"/>
      <point x="260" y="700" type="line"/>
      <point x="40" y="700" type="line"/>
    </contour>
  </outline>
</glyph>
<glyph name="uhorn" format="2">
  <advance width="630"/>
  <unicode hex="01B0"/>
  <anchor x="315" y="560" name="top"/>
  <anchor x="315" y="0" name="bottom"/>
  <anchor x="450" y="0" name="ogonek"/>
  <outline>
    <contour>
      <point x="40" y="140" type="line"/>
      <point x="180" y="0" type="line"/>
      <point x="580" y="0" type="line"/>
      <point x="580" y="420" type="line"/>
      <point x="660" y="500" type="line"/>
      <point x="660" y="640" type="line"/>
      <point x="510" y="640" type="line"/>
      <point x="510" y="560" type="line"/>
      <point x="360" y="560" type="line"/>
      <point x="360" y="190" type="line"/>
      <point x="260" y="190" type="line"/>
      <point x="260" y="560" type="line"/>
      <point x="40" y="560" type="line"/>
    </contour>
  </outline>
</glyph>
<glyph name="uni01B2" format="2">
  <advance width="650"/>
  <unicode hex="01B2"/>
  <anchor x="325" y="700" name="top"/>
  <anchor x="325" y="0" name="bottom"/>
  <outline>
    <contour>
      <point x="190" y="0" type="line"/>
      <point x="460" y="0" type="line"/>
      <point x="610" y="150" type="line"/>
      <point x="610" y="590" type="line"/>
      <point x="500" y="700" type="line"/>
      <point x="320" y="700" type="line"/>
      <point x="320" y="510" type="line"/>
      <point x="390" y="510" type="line"/>
      <point x="390" y="200" type="line"/>
      <point x="260" y="200" type="line"/>
      <point x="260" y="700" type="line"/>
      <point x="40" y="700" type="line"/>
      <point x="40" y="150" type="line"/>
    </contour>
  </outline>
</glyph>
<glyph name="uni01B3" format="2">
  <advance width="650"/>
  <unicode hex="01B3"/>
  <outline>
    <contour>
      <point x="210" y="0" type="line"/>
      <point x="430" y="0" type="line"/>
      <point x="430" y="210" type="line"/>
      <point x="513" y="210" type="line"/>
      <point x="590" y="510" type="line"/>
      <point x="645" y="510" type="line"/>
      <point x="645" y="700" type="line"/>
      <point x="456" y="700" type="line"/>
      <point x="396" y="640" type="line"/>
      <point x="345" y="400" type="line"/>
      <point x="295" y="400" type="line"/>
      <point x="240" y="700" type="line"/>
      <point x="5" y="700" type="line"/>
      <point x="127" y="210" type="line"/>
      <point x="210" y="210" type="line"/>
    </contour>
  </outline>
</glyph>
<glyph name="uni01B4" format="2">
  <advance width="600"/>
  <unicode hex="01B4"/>
  <outline>
    <contour>
      <point x="40" y="-140" type="line"/>
      <point x="448" y="-140" type="line"/>
      <point x="570" y="540" type="line"/>
      <point x="600" y="540" type="line"/>
      <point x="600" y="700" type="line"/>
      <point x="452" y="700" type="line"/>
      <point x="382" y="630" type="line"/>
      <point x="322" y="250" type="line"/>
      <point x="280" y="250" type="line"/>
      <point x="230" y="560" type="line"/>
      <point x="5" y="560" type="line"/>
      <point x="114" y="80" type="line"/>
      <point x="289" y="80" type="line"/>
      <point x="282" y="40" type="line"/>
      <point x="40" y="40" type="line"/>
    </contour>
  </outline>
</glyph>
<glyph name="uni01B7" format="2">
  <advance width="610"/>
  <unicode hex="01B7"/>
  <outline>
    <contour>
      <point x="450" y="0" type="line"/>
      <point x="590" y="140" type="line"/>
      <point x="590" y="330" type="line"/>
      <point x="500" y="420" type="line"/>
      <point x="339" y="420" type="line"/>
      <point x="570" y="560" type="line"/>
      <point x="570" y="700" type="line"/>
      <point x="40" y="700" type="line"/>
      <point x="40" y="520" type="line"/>
      <point x="277" y="520" type="line"/>
      <point x="120" y="410" type="line"/>
      <point x="120" y="270" type="line"/>
      <point x="365" y="270" type="line"/>
      <point x="365" y="180" type="line"/>
      <point x="30" y="180" type="line"/>
      <point x="30" y="0" type="line"/>
    </contour>
  </outline>
</glyph>
<glyph name="uni01C0" format="2">
  <advance width="290"/>
  <unicode hex="01C0"/>
  <outline>
    <contour>
      <point x="45" y="-30" type="line"/>
      <point x="245" y="-30" type="line"/>
      <point x="245" y="730" type="line"/>
      <point x="45" y="730" type="line"/>
    </contour>
  </outline>
</glyph>
<glyph name="uni01C2" format="2">
  <advance width="600"/>
  <unicode hex="01C2"/>
  <outline>
    <contour>
      <point x="200" y="-30" type="line"/>
      <point x="400" y="-30" type="line"/>
      <point x="400" y="730" type="line"/>
      <point x="200" y="730" type="line"/>
    </contour>
    <contour>
      <point x="40" y="380" type="line"/>
      <point x="560" y="380" type="line"/>
      <point x="560" y="550" type="line"/>
      <point x="40" y="550" type="line"/>
    </contour>
    <contour>
      <point x="40" y="150" type="line"/>
      <point x="560" y="150" type="line"/>
      <point x="560" y="320" type="line"/>
      <point x="40" y="320" type="line"/>
    </contour>
  </outline>
</glyph>
<glyph name="uni01C3" format="2">
  <advance width="300"/>
  <unicode hex="01C3"/>
  <outline>
    <contour>
      <point x="50" y="0" type="line"/>
      <point x="250" y="0" type="line"/>
      <point x="250" y="200" type="line"/>
      <point x="50" y="200" type="line"/>
    </contour>
    <contour>
      <point x="65" y="250" type="line"/>
      <point x="235" y="250" type="line"/>
      <point x="275" y="700" type="line"/>
      <point x="25" y="700" type="line"/>
    </contour>
  </outline>
</glyph>
<glyph name="uni01C4" format="2">
  <advance width="1200"/>
  <unicode hex="01C4"/>
  <anchor x="918" y="-0" name="bottom"/>
  <anchor x="918" y="700" name="top"/>
  <outline>
    <contour>
      <point x="260" y="190" type="line"/>
      <point x="260" y="510" type="line"/>
      <point x="380" y="510" type="line"/>
      <point x="380" y="190" type="line"/>
    </contour>
    <contour>
      <point x="40" y="0" type="line"/>
      <point x="450" y="0" type="line"/>
      <point x="600" y="150" type="line"/>
      <point x="600" y="550" type="line"/>
      <point x="450" y="700" type="line"/>
      <point x="40" y="700" type="line"/>
    </contour>
    <contour>
      <point x="655" y="0" type="line"/>
      <point x="1180" y="0" type="line"/>
      <point x="1180" y="180" type="line"/>
      <point x="900" y="180" type="line"/>
      <point x="1175" y="540" type="line"/>
      <point x="1175" y="700" type="line"/>
      <point x="660" y="700" type="line"/>
      <point x="660" y="520" type="line"/>
      <point x="930" y="520" type="line"/>
      <point x="655" y="160" type="line"/>
    </contour>
    <contour>
      <point x="1108" y="910" type="line"/>
      <point x="918" y="850" type="line"/>
      <point x="728" y="910" type="line"/>
      <point x="728" y="790" type="line"/>
      <point x="918" y="730" type="line"/>
      <point x="1108" y="790" type="line"/>
    </contour>
  </outline>
</glyph>
<glyph name="uni01C5" format="2">
  <advance width="1165"/>
  <unicode hex="01C5"/>
  <anchor x="900" y="-0" name="bottom"/>
  <anchor x="900" y="560" name="top"/>
  <outline>
    <contour>
      <point x="260" y="190" type="line"/>
      <point x="260" y="510" type="line"/>
      <point x="380" y="510" type="line"/>
      <point x="380" y="190" type="line"/>
    </contour>
    <contour>
      <point x="40" y="0" type="line"/>
      <point x="450" y="0" type="line"/>
      <point x="600" y="150" type="line"/>
      <point x="600" y="550" type="line"/>
      <point x="450" y="700" type="line"/>
      <point x="40" y="700" type="line"/>
    </contour>
    <contour>
      <point x="655" y="0" type="line"/>
      <point x="1145" y="0" type="line"/>
      <point x="1145" y="180" type="line"/>
      <point x="925" y="180" type="line"/>
      <point x="1145" y="400" type="line"/>
      <point x="1145" y="560" type="line"/>
      <point x="655" y="560" type="line"/>
      <point x="655" y="380" type="line"/>
      <point x="875" y="380" type="line"/>
      <point x="655" y="160" type="line"/>
    </contour>
    <contour>
      <point x="1090" y="770" type="line"/>
      <point x="900" y="710" type="line"/>
      <point x="710" y="770" type="line"/>
      <point x="710" y="650" type="line"/>
      <point x="900" y="590" type="line"/>
      <point x="1090" y="650" type="line"/>
    </contour>
  </outline>
</glyph>
<glyph name="uni01C6" format="2">
  <advance width="1150"/>
  <unicode hex="01C6"/>
  <anchor x="885" y="-0" name="bottom"/>
  <anchor x="885" y="560" name="top"/>
  <outline>
    <contour>
      <point x="580" y="700" type="line"/>
      <point x="360" y="700" type="line"/>
      <point x="360" y="560" type="line"/>
      <point x="180" y="560" type="line"/>
      <point x="30" y="410" type="line"/>
      <point x="30" y="150" type="line"/>
      <point x="180" y="0" type="line"/>
      <point x="580" y="0" type="line"/>
    </contour>
    <contour>
      <point x="250" y="180" type="line"/>
      <point x="250" y="380" type="line"/>
      <point x="360" y="380" type="line"/>
      <point x="360" y="180" type="line"/>
    </contour>
    <contour>
      <point x="640" y="0" type="line"/>
      <point x="1130" y="0" type="line"/>
      <point x="1130" y="180" type="line"/>
      <point x="910" y="180" type="line"/>
      <point x="1130" y="400" type="line"/>
      <point x="1130" y="560" type="line"/>
      <point x="640" y="560" type="line"/>
      <point x="640" y="380" type="line"/>
      <point x="860" y="380" type="line"/>
      <point x="640" y="160" type="line"/>
    </contour>
    <contour>
      <point x="1075" y="770" type="line"/>
      <point x="885" y="710" type="line"/>
      <point x="695" y="770" type="line"/>
      <point x="695" y="650" type="line"/>
      <point x="885" y="590" type="line"/>
      <point x="1075" y="650" type="line"/>
    </contour>
  </outline>
</glyph>
<glyph name="uni01E4" format="2">
  <advance width="640"/>
  <unicode hex="01E4"/>
  <anchor x="340" y="700" name="top"/>
  <anchor x="340" y="0" name="bottom"/>
  <outline>
    <contour>
      <point x="35" y="150" type="line"/>
      <point x="185" y="0" type="line"/>
      <point x="605" y="0" type="line"/>
      <point x="605" y="435" type="line"/>
      <point x="305" y="435" type="line"/>
      <point x="305" y="315" type="line"/>
      <point x="415" y="315" type="line"/>
      <point x="415" y="190" type="line"/>
      <point x="255" y="190" type="line"/>
      <point x="255" y="500" type="line"/>
      <point x="555" y="500" type="line"/>
      <point x="555" y="700" type="line"/>
      <point x="185" y="700" type="line"/>
      <point x="35" y="550" type="line"/>
    </contour>
    <contour>
      <point x="305" y="214" type="line"/>
      <point x="635" y="214" type="line"/>
      <point x="635" y="290" type="line"/>
      <point x="305" y="290" type="line"/>
    </contour>
  </outline>
</glyph>
<glyph name="uni01E5" format="2">
  <advance width="610"/>
  <unicode hex="01E5"/>
  <anchor x="320" y="560" name="top"/>
  <anchor x="290" y="-160" name="bottom"/>
  <outline>
    <contour>
      <point x="60" y="-140" type="line"/>
      <point x="406" y="-140" type="line"/>
      <point x="570" y="24" type="line"/>
      <point x="570" y="560" type="line"/>
      <point x="160" y="560" type="line"/>
      <point x="30" y="430" type="line"/>
      <point x="30" y="227" type="line"/>
      <point x="100" y="157" type="line"/>
      <point x="350" y="157" type="line"/>
      <point x="350" y="30" type="line"/>
      <point x="60" y="30" type="line"/>
    </contour>
    <contour>
      <point x="250" y="380" type="line"/>
      <point x="350" y="380" type="line"/>
      <point x="350" y="260" type="line"/>
      <point x="250" y="260" type="line"/>
    </contour>
    <contour>
      <point x="90" y="60" type="line"/>
      <point x="605" y="60" type="line"/>
      <point x="605" y="126" type="line"/>
      <point x="90" y="126" type="line"/>
    </contour>
  </outline>
</glyph>
<glyph name="uni0237" format="2">
  <advance width="300"/>
  <unicode hex="0237"/>
  <anchor x="150" y="560" name="top"/>
  <anchor x="150" y="-140" name="bottom"/>
  <outline>
    <contour>
      <point x="40" y="-140" type="line"/>
      <point x="260" y="-140" type="line"/>
      <point x="260" y="560" type="line"/>
      <point x="40" y="560" type="line"/>
    </contour>
  </outline>
</glyph>
<glyph name="uni0244" format="2">
  <advance width="650"/>
  <unicode hex="0244"/>
  <anchor x="325" y="0" name="bottom"/>
  <anchor x="325" y="700" name="top"/>
  <outline>
    <component base="U"/>
    <contour>
      <point x="5" y="345" type="line"/>
      <point x="645" y="345" type="line"/>
      <point x="645" y="455" type="line"/>
      <point x="5" y="455" type="line"/>
    </contour>
  </outline>
</glyph>
<glyph name="uni0253" format="2">
  <advance width="620"/>
  <unicode hex="0253"/>
  <outline>
    <contour>
      <point x="260" y="180" type="line"/>
      <point x="260" y="350" type="line"/>
      <point x="370" y="350" type="line"/>
      <point x="370" y="180" type="line"/>
    </contour>
    <contour>
      <point x="40" y="0" type="line"/>
      <point x="440" y="0" type="line"/>
      <point x="590" y="150" type="line"/>
      <point x="590" y="350" type="line"/>
      <point x="440" y="500" type="line"/>
      <point x="260" y="500" type="line"/>
      <point x="260" y="540" type="line"/>
      <point x="310" y="540" type="line"/>
      <point x="310" y="700" type="line"/>
      <point x="170" y="700" type="line"/>
      <point x="40" y="570" type="line"/>
    </contour>
  </outline>
</glyph>
<glyph name="uni0256" format="2">
  <advance width="620"/>
  <unicode hex="0256"/>
  <outline>
    <contour>
      <point x="580" y="50" type="line"/>
      <point x="580" y="700" type="line"/>
      <point x="360" y="700" type="line"/>
      <point x="360" y="560" type="line"/>
      <point x="180" y="560" type="line"/>
      <point x="30" y="410" type="line"/>
      <point x="30" y="150" type="line"/>
      <point x="180" y="0" type="line"/>
      <point x="360" y="0" type="line"/>
      <point x="360" y="-50" type="line"/>
      <point x="450" y="-140" type="line"/>
      <point x="620" y="-140" type="line"/>
      <point x="620" y="50" type="line"/>
    </contour>
    <contour>
      <point x="250" y="380" type="line"/>
      <point x="360" y="380" type="line"/>
      <point x="360" y="180" type="line"/>
      <point x="250" y="180" type="line"/>
    </contour>
  </outline>
</glyph>
<glyph name="uni0257" format="2">
  <advance width="620"/>
  <unicode hex="0257"/>
  <outline>
    <contour>
      <point x="250" y="180" type="line"/>
      <point x="250" y="380" type="line"/>
      <point x="360" y="380" type="line"/>
      <point x="360" y="180" type="line"/>
    </contour>
    <contour>
      <point x="30" y="150" type="line"/>
      <point x="180" y="0" type="line"/>
      <point x="580" y="0" type="line"/>
      <point x="580" y="540" type="line"/>
      <point x="620" y="540" type="line"/>
      <point x="620" y="700" type="line"/>
      <point x="440" y="700" type="line"/>
      <point x="360" y="620" type="line"/>
      <point x="360" y="560" type="line"/>
      <point x="180" y="560" type="line"/>
      <point x="30" y="410" type="line"/>
    </contour>
  </outline>
</glyph>
<glyph name="uni0259" format="2">
  <advance width="590"/>
  <unicode hex="0259"/>
  <anchor x="295" y="0" name="bottom"/>
  <anchor x="270" y="560" name="top"/>
  <outline>
    <contour>
      <point x="560" y="430" type="line"/>
      <point x="430" y="560" type="line"/>
      <point x="50" y="560" type="line"/>
      <point x="50" y="380" type="line"/>
      <point x="340" y="380" type="line"/>
      <point x="340" y="320" type="line"/>
      <point x="30" y="320" type="line"/>
      <point x="30" y="130" type="line"/>
      <point x="160" y="0" type="line"/>
      <point x="430" y="0" type="line"/>
      <point x="560" y="130" type="line"/>
    </contour>
    <contour>
      <point x="340" y="230" type="line"/>
      <point x="340" y="160" type="line"/>
      <point x="220" y="160" type="line"/>
      <point x="220" y="220" type="line"/>
    </contour>
  </outline>
</glyph>
<glyph name="uni0263" format="2">
  <advance width="620"/>
  <unicode hex="0263"/>
  <anchor x="310" y="-140" name="bottom"/>
  <anchor x="310" y="560" name="top"/>
  <outline>
    <contour>
      <point x="185" y="-140" type="line"/>
      <point x="435" y="-140" type="line"/>
      <point x="565" y="-10" type="line"/>
      <point x="565" y="145" type="line"/>
      <point x="470" y="266" type="line"/>
      <point x="615" y="560" type="line"/>
      <point x="368" y="560" type="line"/>
      <point x="316" y="355" type="line"/>
      <point x="304" y="355" type="line"/>
      <point x="252" y="560" type="line"/>
      <point x="5" y="560" type="line"/>
      <point x="150" y="266" type="line"/>
      <point x="55" y="145" type="line"/>
      <point x="55" y="-10" type="line"/>
    </contour>
    <contour>
      <point x="265" y="40" type="line"/>
      <point x="265" y="117" type="line"/>
      <point x="310" y="173" type="line"/>
      <point x="355" y="117" type="line"/>
      <point x="355" y="40" type="line"/>
    </contour>
  </outline>
</glyph>
<glyph name="uni0272" format="2">
  <advance width="620"/>
  <unicode hex="0272"/>
  <outline>
    <contour>
      <point x="0" y="-140" type="line"/>
      <point x="130" y="-140" type="line"/>
      <point x="260" y="-10" type="line"/>
      <point x="260" y="370" type="line"/>
      <point x="360" y="370" type="line"/>
      <point x="360" y="0" type="line"/>
      <point x="580" y="0" type="line"/>
      <point x="580" y="420" type="line"/>
      <point x="440" y="560" type="line"/>
      <point x="40" y="560" type="line"/>
      <point x="40" y="50" type="line"/>
      <point x="0" y="50" type="line"/>
    </contour>
  </outline>
</glyph>
<glyph name="uni0289" format="2">
  <advance width="620"/>
  <unicode hex="0289"/>
  <anchor x="310" y="560" name="top"/>
  <anchor x="310" y="0" name="bottom"/>
  <anchor x="450" y="0" name="ogonek"/>
  <outline>
    <component base="u"/>
    <contour>
      <point x="5" y="290" type="line"/>
      <point x="615" y="290" type="line"/>
      <point x="615" y="400" type="line"/>
      <point x="5" y="400" type="line"/>
    </contour>
  </outline>
</glyph>
<glyph name="uni028B" format="2">
  <advance width="620"/>
  <unicode hex="028B"/>
  <outline>
    <contour>
      <point x="180" y="0" type="line"/>
      <point x="440" y="0" type="line"/>
      <point x="580" y="140" type="line"/>
      <point x="580" y="450" type="line"/>
      <point x="470" y="560" type="line"/>
      <point x="320" y="560" type="line"/>
      <point x="320" y="380" type="line"/>
      <point x="360" y="380" type="line"/>
      <point x="360" y="190" type="line"/>
      <point x="260" y="190" type="line"/>
      <point x="260" y="560" type="line"/>
      <point x="40" y="560" type="line"/>
      <point x="40" y="140" type="line"/>
    </contour>
  </outline>
</glyph>
<glyph name="uni0292" format="2">
  <advance width="610"/>
  <unicode hex="0292"/>
  <outline>
    <contour>
      <point x="450" y="-140" type="line"/>
      <point x="590" y="0" type="line"/>
      <point x="590" y="180" type="line"/>
      <point x="500" y="270" type="line"/>
      <point x="339" y="270" type="line"/>
      <point x="570" y="420" type="line"/>
      <point x="570" y="560" type="line"/>
      <point x="40" y="560" type="line"/>
      <point x="40" y="380" type="line"/>
      <point x="277" y="380" type="line"/>
      <point x="120" y="260" type="line"/>
      <point x="120" y="120" type="line"/>
      <point x="365" y="120" type="line"/>
      <point x="365" y="40" type="line"/>
      <point x="30" y="40" type="line"/>
      <point x="30" y="-140" type="line"/>
    </contour>
  </outline>
</glyph>
<glyph name="uni0294" format="2">
  <advance width="560"/>
  <unicode hex="0294"/>
  <outline>
    <contour>
      <point x="310" y="0" type="line"/>
      <point x="310" y="277" type="line"/>
      <point x="545" y="343" type="line"/>
      <point x="545" y="560" type="line"/>
      <point x="405" y="700" type="line"/>
      <point x="15" y="700" type="line"/>
      <point x="15" y="510" type="line"/>
      <point x="345" y="510" type="line"/>
      <point x="345" y="470" type="line"/>
      <point x="110" y="417" type="line"/>
      <point x="110" y="0" type="line"/>
    </contour>
  </outline>
</glyph>
<glyph name="uni02BA" format="2">
  <advance width="460"/>
  <unicode hex="02BA"/>
  <outline>
    <contour>
      <point x="30" y="440" type="line"/>
      <point x="180" y="440" type="line"/>
      <point x="220" y="700" type="line"/>
      <point x="30" y="700" type="line"/>
    </contour>
    <contour>
      <point x="250" y="440" type="line"/>
      <point x="400" y="440" type="line"/>
      <point x="440" y="700" type="line"/>
      <point x="250" y="700" type="line"/>
    </contour>
  </outline>
</glyph>
<glyph name="dotaccent" format="2">
  <advance width="300"/>
  <unicode hex="02D9"/>
  <outline>
    <contour>
      <point x="40" y="600" type="line"/>
      <point x="260" y="600" type="line"/>
      <point x="260" y="730" type="line"/>
      <point x="40" y="730" type="line"/>
    </contour>
  </outline>
</glyph>
<glyph name="ogonek" format="2">
  <advance width="310"/>
  <unicode hex="02DB"/>
  <outline>
    <contour>
      <point x="270" y="-40" type="line"/>
      <point x="120" y="-40" type="line"/>
      <point x="40" y="-200" type="line"/>
      <point x="230" y="-200" type="line"/>
    </contour>
  </outline>
</glyph>
<glyph name="tilde" format="2">
  <advance width="500"/>
  <unicode hex="02DC"/>
  <outline>
    <contour>
      <point x="60" y="570" type="line"/>
      <point x="156" y="615" type="line"/>
      <point x="360" y="575" type="line"/>
      <point x="460" y="635" type="line"/>
      <point x="440" y="750" type="line"/>
      <point x="344" y="705" type="line"/>
      <point x="140" y="745" type="line"/>
      <point x="40" y="685" type="line"/>
    </contour>
  </outline>
</glyph>
<glyph name="gravecomb" format="2">
  <unicode hex="0300"/>
  <anchor x="0" y="560" name="_top"/>
  <outline>
    <contour>
      <point x="130" y="600" type="line"/>
      <point x="130" y="700" type="line"/>
      <point x="-190" y="730" type="line"/>
      <point x="-190" y="600" type="line"/>
    </contour>
  </outline>
</glyph>
<glyph name="tildecomb" format="2">
  <unicode hex="0303"/>
  <anchor x="0" y="560" name="_top"/>
  <anchor x="0" y="730" name="top"/>
  <outline>
    <contour>
      <point x="-190" y="570" type="line"/>
      <point x="-94" y="615" type="line"/>
      <point x="110" y="575" type="line"/>
      <point x="210" y="635" type="line"/>
      <point x="190" y="750" type="line"/>
      <point x="94" y="705" type="line"/>
      <point x="-110" y="745" type="line"/>
      <point x="-210" y="685" type="line"/>
    </contour>
  </outline>
</glyph>
<glyph name="uni0306" format="2">
  <unicode hex="0306"/>
  <anchor x="0" y="560" name="_top"/>
  <outline>
    <contour>
      <point x="50" y="740" type="line"/>
      <point x="50" y="680" type="line"/>
      <point x="-50" y="680" type="line"/>
      <point x="-50" y="740" type="line"/>
      <point x="-220" y="740" type="line"/>
      <point x="-120" y="590" type="line"/>
      <point x="120" y="590" type="line"/>
      <point x="220" y="740" type="line"/>
    </contour>
  </outline>
</glyph>
<glyph name="uni0308" format="2">
  <unicode hex="0308"/>
  <anchor x="0" y="560" name="_top"/>
  <outline>
    <contour>
      <point x="-230" y="600" type="line"/>
      <point x="-30" y="600" type="line"/>
      <point x="-30" y="750" type="line"/>
      <point x="-230" y="750" type="line"/>
    </contour>
    <contour>
      <point x="30" y="600" type="line"/>
      <point x="230" y="600" type="line"/>
      <point x="230" y="750" type="line"/>
      <point x="30" y="750" type="line"/>
    </contour>
  </outline>
</glyph>
<glyph name="uni030A" format="2">
  <unicode hex="030A"/>
  <anchor x="0" y="560" name="_top"/>
  <anchor x="0" y="800" name="top"/>
  <outline>
    <contour>
      <point x="-133" y="641" type="line"/>
      <point x="-57" y="580" type="line"/>
      <point x="57" y="580" type="line"/>
      <point x="133" y="641" type="line"/>
      <point x="133" y="739" type="line"/>
      <point x="57" y="800" type="line"/>
      <point x="-57" y="800" type="line"/>
      <point x="-133" y="739" type="line"/>
    </contour>
    <contour>
      <point x="-39" y="660" type="line"/>
      <point x="-39" y="720" type="line"/>
      <point x="39" y="720" type="line"/>
      <point x="39" y="660" type="line"/>
    </contour>
  </outline>
</glyph>
<glyph name="uni030B" format="2">
  <unicode hex="030B"/>
  <anchor x="0" y="560" name="_top"/>
  <outline>
    <contour>
      <point x="-155" y="590" type="line"/>
      <point x="-35" y="590" type="line"/>
      <point x="45" y="730" type="line"/>
      <point x="-115" y="730" type="line"/>
    </contour>
    <contour>
      <point x="10" y="590" type="line"/>
      <point x="130" y="590" type="line"/>
      <point x="230" y="730" type="line"/>
      <point x="70" y="730" type="line"/>
    </contour>
  </outline>
</glyph>
<glyph name="uni030C" format="2">
  <unicode hex="030C"/>
  <anchor x="0" y="560" name="_top"/>
  <outline>
    <contour>
      <point x="190" y="770" type="line"/>
      <point x="0" y="710" type="line"/>
      <point x="-190" y="770" type="line"/>
      <point x="-190" y="650" type="line"/>
      <point x="0" y="590" type="line"/>
      <point x="190" y="650" type="line"/>
    </contour>
  </outline>
</glyph>
<glyph name="uni0311" format="2">
  <unicode hex="0311"/>
  <anchor x="0" y="560" name="_top"/>
  <outline>
    <contour>
      <point x="-50" y="585" type="line"/>
      <point x="-50" y="645" type="line"/>
      <point x="50" y="645" type="line"/>
      <point x="50" y="585" type="line"/>
      <point x="220" y="585" type="line"/>
      <point x="120" y="735" type="line"/>
      <point x="-120" y="735" type="line"/>
      <point x="-220" y="585" type="line"/>
    </contour>
  </outline>
</glyph>
<glyph name="uni0312" format="2">
  <unicode hex="0312"/>
  <anchor x="0" y="560" name="_top"/>
  <outline>
    <contour>
      <point x="125" y="750" type="line"/>
      <point x="-25" y="750" type="line"/>
      <point x="-115" y="600" type="line"/>
      <point x="75" y="600" type="line"/>
    </contour>
  </outline>
</glyph>
<glyph name="uni031B" format="2">
  <unicode hex="031B"/>
  <outline>
    <contour>
      <point x="-90" y="700" type="line"/>
      <point x="-195" y="700" type="line"/>
      <point x="-195" y="540" type="line"/>
      <point x="-40" y="540" type="line"/>
      <point x="60" y="640" type="line"/>
      <point x="60" y="780" type="line"/>
      <point x="-90" y="780" type="line"/>
    </contour>
  </outline>
</glyph>
<glyph name="dotbelowcomb" format="2">
  <unicode hex="0323"/>
  <anchor x="0" y="0" name="_bottom"/>
  <outline>
    <contour>
      <point x="-110" y="-190" type="line"/>
      <point x="110" y="-190" type="line"/>
      <point x="110" y="-60" type="line"/>
      <point x="-110" y="-60" type="line"/>
    </contour>
  </outline>
</glyph>
<glyph name="uni0327" format="2">
  <unicode hex="0327"/>
  <anchor x="0" y="0" name="_bottom"/>
  <outline>
    <contour>
      <point x="-125" y="-200" type="line"/>
      <point x="25" y="-200" type="line"/>
      <point x="115" y="-50" type="line"/>
      <point x="-75" y="-50" type="line"/>
    </contour>
  </outline>
</glyph>
<glyph name="uni037E" format="2">
  <advance width="280"/>
  <unicode hex="037E"/>
  <outline>
    <contour>
      <point x="40" y="0" type="line"/>
      <point x="115" y="0" type="line"/>
      <point x="0" y="-140" type="line"/>
      <point x="125" y="-140" type="line"/>
      <point x="240" y="0" type="line"/>
      <point x="240" y="200" type="line"/>
      <point x="40" y="200" type="line"/>
    </contour>
    <contour>
      <point x="30" y="360" type="line"/>
      <point x="230" y="360" type="line"/>
      <point x="230" y="560" type="line"/>
      <point x="30" y="560" type="line"/>
    </contour>
  </outline>
</glyph>
<glyph name="tonos" format="2">
  <advance width="240"/>
  <unicode hex="0384"/>
  <outline>
    <contour>
      <point x="30" y="440" type="line"/>
      <point x="180" y="440" type="line"/>
      <point x="220" y="700" type="line"/>
      <point x="30" y="700" type="line"/>
    </contour>
  </outline>
</glyph>
<glyph name="iotadieresistonos" format="2">
  <advance width="340"/>
  <unicode hex="0390"/>
  <anchor x="170" y="0" name="bottom"/>
  <anchor x="150" y="730" name="top"/>
  <outline>
    <component base="tonoscomb" xOffset="150" yOffset="170"/>
    <contour>
      <point x="40" y="560" type="line"/>
      <point x="40" y="110" type="line"/>
      <point x="150" y="0" type="line"/>
      <point x="320" y="0" type="line"/>
      <point x="320" y="190" type="line"/>
      <point x="260" y="190" type="line"/>
      <point x="260" y="560" type="line"/>
    </contour>
    <contour>
      <point x="-80" y="600" type="line"/>
      <point x="120" y="600" type="line"/>
      <point x="120" y="730" type="line"/>
      <point x="-80" y="730" type="line"/>
    </contour>
    <contour>
      <point x="180" y="600" type="line"/>
      <point x="380" y="600" type="line"/>
      <point x="380" y="730" type="line"/>
      <point x="180" y="730" type="line"/>
    </contour>
  </outline>
</glyph>
<glyph name="uni0394" format="2">
  <advance width="700"/>
  <unicode hex="0394"/>
  <outline>
    <contour>
      <point x="540" y="700" type="line"/>
      <point x="160" y="700" type="line"/>
      <point x="5" y="0" type="line"/>
      <point x="250" y="0" type="line"/>
      <point x="335" y="520" type="line"/>
      <point x="365" y="520" type="line"/>
      <point x="450" y="0" type="line"/>
      <point x="695" y="0" type="line"/>
    </contour>
    <contour>
      <point x="60" y="0" type="line"/>
      <point x="640" y="0" type="line"/>
      <point x="640" y="180" type="line"/>
      <point x="60" y="180" type="line"/>
    </contour>
  </outline>
</glyph>
<glyph name="Theta" format="2">
  <advance width="650"/>
  <unicode hex="0398"/>
  <anchor x="325" y="700" name="top"/>
  <anchor x="325" y="0" name="bottom"/>
  <outline>
    <contour>
      <point x="35" y="150" type="line"/>
      <point x="185" y="0" type="line"/>
      <point x="465" y="0" type="line"/>
      <point x="615" y="150" type="line"/>
      <point x="615" y="550" type="line"/>
      <point x="465" y="700" type="line"/>
      <point x="185" y="700" type="line"/>
      <point x="35" y="550" type="line"/>
    </contour>
    <contour>
      <point x="255" y="520" type="line"/>
      <point x="395" y="520" type="line"/>
      <point x="395" y="420" type="line"/>
      <point x="255" y="420" type="line"/>
    </contour>
    <contour>
      <point x="255" y="180" type="line"/>
      <point x="255" y="280" type="line"/>
      <point x="395" y="280" type="line"/>
      <point x="395" y="180" type="line"/>
    </contour>
  </outline>
</glyph>
<glyph name="Lambda" format="2">
  <advance width="640"/>
  <unicode hex="039B"/>
  <anchor x="320" y="0" name="bottom"/>
  <anchor x="320" y="700" name="top"/>
  <outline>
    <contour>
      <point x="510" y="700" type="line"/>
      <point x="130" y="700" type="line"/>
      <point x="5" y="0" type="line"/>
      <point x="243" y="0" type="line"/>
      <point x="305" y="500" type="line"/>
      <point x="335" y="500" type="line"/>
      <point x="397" y="0" type="line"/>
      <point x="635" y="0" type="line"/>
    </contour>
  </outline>
</glyph>
<glyph name="Xi" format="2">
  <advance width="660"/>
  <unicode hex="039E"/>
  <anchor x="330" y="0" name="bottom"/>
  <anchor x="330" y="700" name="top"/>
  <outline>
    <contour>
      <point x="30" y="0" type="line"/>
      <point x="630" y="0" type="line"/>
      <point x="630" y="180" type="line"/>
      <point x="440" y="180" type="line"/>
      <point x="440" y="270" type="line"/>
      <point x="570" y="270" type="line"/>
      <point x="570" y="440" type="line"/>
      <point x="440" y="440" type="line"/>
      <point x="440" y="520" type="line"/>
      <point x="620" y="520" type="line"/>
      <point x="620" y="700" type="line"/>
      <point x="40" y="700" type="line"/>
      <point x="40" y="520" type="line"/>
      <point x="220" y="520" type="line"/>
      <point x="220" y="440" type="line"/>
      <point x="90" y="440" type="line"/>
      <point x="90" y="270" type="line"/>
      <point x="220" y="270" type="line"/>
      <point x="220" y="180" type="line"/>
      <point x="30" y="180" type="line"/>
    </contour>
  </outline>
</glyph>
<glyph name="Pi" format="2">
  <advance width="650"/>
  <unicode hex="03A0"/>
  <anchor x="325" y="0" name="bottom"/>
  <anchor x="325" y="700" name="top"/>
  <outline>
    <contour>
      <point x="40" y="0" type="line"/>
      <point x="260" y="0" type="line"/>
      <point x="260" y="510" type="line"/>
      <point x="390" y="510" type="line"/>
      <point x="390" y="0" type="line"/>
      <point x="610" y="0" type="line"/>
      <point x="610" y="700" type="line"/>
      <point x="40" y="700" type="line"/>
    </contour>
  </outline>
</glyph>
<glyph name="Phi" format="2">
  <advance width="870"/>
  <unicode hex="03A6"/>
  <anchor x="435" y="700" name="top"/>
  <anchor x="435" y="0" name="bottom"/>
  <outline>
    <contour>
      <point x="35" y="200" type="line"/>
      <point x="175" y="60" type="line"/>
      <point x="695" y="60" type="line"/>
      <point x="835" y="200" type="line"/>
      <point x="835" y="500" type="line"/>
      <point x="695" y="640" type="line"/>
      <point x="175" y="640" type="line"/>
      <point x="35" y="500" type="line"/>
    </contour>
    <contour>
      <point x="245" y="470" type="line"/>
      <point x="625" y="470" type="line"/>
      <point x="625" y="230" type="line"/>
      <point x="245" y="230" type="line"/>
    </contour>
    <contour>
      <point x="535" y="0" type="line"/>
      <point x="535" y="700" type="line"/>
      <point x="335" y="700" type="line"/>
      <point x="335" y="0" type="line"/>
    </contour>
  </outline>
</glyph>
<glyph name="Psi" format="2">
  <advance width="870"/>
  <unicode hex="03A8"/>
  <anchor x="435" y="700" name="top"/>
  <anchor x="435" y="0" name="bottom"/>
  <outline>
    <contour>
      <point x="185" y="160" type="line"/>
      <point x="335" y="160" type="line"/>
      <point x="335" y="0" type="line"/>
      <point x="535" y="0" type="line"/>
      <point x="535" y="160" type="line"/>
      <point x="685" y="160" type="line"/>
      <point x="835" y="310" type="line"/>
      <point x="835" y="700" type="line"/>
      <point x="625" y="700" type="line"/>
      <point x="625" y="330" type="line"/>
      <point x="535" y="330" type="line"/>
      <point x="535" y="700" type="line"/>
      <point x="335" y="700" type="line"/>
      <point x="335" y="330" type="line"/>
      <point x="245" y="330" type="line"/>
      <point x="245" y="700" type="line"/>
      <point x="35" y="700" type="line"/>
      <point x="35" y="310" type="line"/>
    </contour>
  </outline>
</glyph>
<glyph name="upsilondieresistonos" format="2">
  <advance width="620"/>
  <unicode hex="03B0"/>
  <anchor x="310" y="0" name="bottom"/>
  <anchor x="310" y="730" name="top"/>
  <outline>
    <component base="tonoscomb" xOffset="310" yOffset="170"/>
    <contour>
      <point x="580" y="560" type="line"/>
      <point x="360" y="560" type="line"/>
      <point x="360" y="190" type="line"/>
      <point x="260" y="190" type="line"/>
      <point x="260" y="560" type="line"/>
      <point x="40" y="560" type="line"/>
      <point x="40" y="140" type="line"/>
      <point x="180" y="0" type="line"/>
      <point x="440" y="0" type="line"/>
      <point x="580" y="140" type="line"/>
    </contour>
    <contour>
      <point x="80" y="600" type="line"/>
      <point x="280" y="600" type="line"/>
      <point x="280" y="730" type="line"/>
      <point x="80" y="730" type="line"/>
    </contour>
    <contour>
      <point x="340" y="600" type="line"/>
      <point x="540" y="600" type="line"/>
      <point x="540" y="730" type="line"/>
      <point x="340" y="730" type="line"/>
    </contour>
  </outline>
</glyph>
<glyph name="alpha" format="2">
  <advance width="610"/>
  <unicode hex="03B1"/>
  <anchor x="305" y="0" name="bottom"/>
  <anchor x="305" y="560" name="top"/>
  <outline>
    <contour>
      <point x="140" y="0" type="line"/>
      <point x="290" y="0" type="line"/>
      <point x="355" y="110" type="line"/>
      <point x="365" y="0" type="line"/>
      <point x="590" y="0" type="line"/>
      <point x="548" y="280" type="line"/>
      <point x="590" y="560" type="line"/>
      <point x="365" y="560" type="line"/>
      <point x="355" y="450" type="line"/>
      <point x="290" y="560" type="line"/>
      <point x="140" y="560" type="line"/>
      <point x="30" y="450" type="line"/>
      <point x="30" y="110" type="line"/>
    </contour>
    <contour>
      <point x="250" y="175" type="line"/>
      <point x="250" y="385" type="line"/>
      <point x="355" y="385" type="line"/>
      <point x="355" y="175" type="line"/>
    </contour>
  </outline>
</glyph>
<glyph name="beta" format="2">
  <advance width="630"/>
  <unicode hex="03B2"/>
  <outline>
    <contour>
      <point x="590" y="550" type="line"/>
      <point x="440" y="700" type="line"/>
      <point x="190" y="700" type="line"/>
      <point x="40" y="550" type="line"/>
      <point x="40" y="-100" type="line"/>
      <point x="260" y="-100" type="line"/>
      <point x="260" y="530" type="line"/>
      <point x="375" y="530" type="line"/>
      <point x="375" y="425" type="line"/>
      <point x="300" y="425" type="line"/>
      <point x="300" y="285" type="line"/>
      <point x="390" y="285" type="line"/>
      <point x="390" y="170" type="line"/>
      <point x="230" y="170" type="line"/>
      <point x="230" y="0" type="line"/>
      <point x="480" y="0" type="line"/>
      <point x="610" y="130" type="line"/>
      <point x="610" y="286" type="line"/>
      <point x="513" y="366" type="line"/>
      <point x="590" y="429" type="line"/>
    </contour>
  </outline>
</glyph>
<glyph name="gamma" format="2">
  <advance width="580"/>
  <unicode hex="03B3"/>
  <anchor x="290" y="-140" name="bottom"/>
  <anchor x="290" y="560" name="top"/>
  <outline>
    <contour>
      <point x="170" y="-30" type="line"/>
      <point x="170" y="-140" type="line"/>
      <point x="410" y="-140" type="line"/>
      <point x="410" y="-30" type="line"/>
      <point x="575" y="560" type="line"/>
      <point x="355" y="560" type="line"/>
      <point x="305" y="200" type="line"/>
      <point x="279" y="200" type="line"/>
      <point x="230" y="560" type="line"/>
      <point x="5" y="560" type="line"/>
    </contour>
  </outline>
</glyph>
<glyph name="delta" format="2">
  <advance width="600"/>
  <unicode hex="03B4"/>
  <anchor x="300" y="700" name="top"/>
  <anchor x="300" y="0" name="bottom"/>
  <outline>
    <contour>
      <point x="170" y="0" type="line"/>
      <point x="430" y="0" type="line"/>
      <point x="570" y="140" type="line"/>
      <point x="570" y="440" type="line"/>
      <point x="335" y="550" type="line"/>
      <point x="550" y="550" type="line"/>
      <point x="550" y="700" type="line"/>
      <point x="85" y="700" type="line"/>
      <point x="85" y="560" type="line"/>
      <point x="350" y="385" type="line"/>
      <point x="350" y="180" type="line"/>
      <point x="250" y="180" type="line"/>
      <point x="250" y="380" type="line"/>
      <point x="328" y="437" type="line"/>
      <point x="236" y="525" type="line"/>
      <point x="30" y="430" type="line"/>
      <point x="30" y="140" type="line"/>
    </contour>
  </outline>
</glyph>
<glyph name="zeta" format="2">
  <advance width="510"/>
  <unicode hex="03B6"/>
  <anchor x="255" y="700" name="top"/>
  <anchor x="255" y="-120" name="bottom"/>
  <outline>
    <contour>
      <point x="160" y="0" type="line"/>
      <point x="300" y="0" type="line"/>
      <point x="300" y="-120" type="line"/>
      <point x="490" y="-120" type="line"/>
      <point x="490" y="200" type="line"/>
      <point x="250" y="200" type="line"/>
      <point x="250" y="340" type="line"/>
      <point x="480" y="540" type="line"/>
      <point x="480" y="700" type="line"/>
      <point x="30" y="700" type="line"/>
      <point x="30" y="530" type="line"/>
      <point x="255" y="530" type="line"/>
      <point x="30" y="380" type="line"/>
      <point x="30" y="130" type="line"/>
    </contour>
  </outline>
</glyph>
<glyph name="theta" format="2">
  <advance width="630"/>
  <unicode hex="03B8"/>
  <anchor x="315" y="700" name="top"/>
  <anchor x="315" y="0" name="bottom"/>
  <outline>
    <contour>
      <point x="35" y="150" type="line"/>
      <point x="185" y="0" type="line"/>
      <point x="445" y="0" type="line"/>
      <point x="595" y="150" type="line"/>
      <point x="595" y="550" type="line"/>
      <point x="445" y="700" type="line"/>
      <point x="185" y="700" type="line"/>
      <point x="35" y="550" type="line"/>
    </contour>
    <contour>
      <point x="245" y="530" type="line"/>
      <point x="385" y="530" type="line"/>
      <point x="385" y="420" type="line"/>
      <point x="245" y="420" type="line"/>
    </contour>
    <contour>
      <point x="245" y="170" type="line"/>
      <point x="245" y="280" type="line"/>
      <point x="385" y="280" type="line"/>
      <point x="385" y="170" type="line"/>
    </contour>
  </outline>
</glyph>
<glyph name="iota" format="2">
  <advance width="340"/>
  <unicode hex="03B9"/>
  <anchor x="170" y="0" name="bottom"/>
  <anchor x="150" y="560" name="top"/>
  <outline>
    <contour>
      <point x="40" y="560" type="line"/>
      <point x="40" y="110" type="line"/>
      <point x="150" y="0" type="line"/>
      <point x="320" y="0" type="line"/>
      <point x="320" y="190" type="line"/>
      <point x="260" y="190" type="line"/>
      <point x="260" y="560" type="line"/>
    </contour>
  </outline>
</glyph>
<glyph name="kappa" format="2">
  <advance width="620"/>
  <unicode hex="03BA"/>
  <anchor x="300" y="560" name="top"/>
  <anchor x="310" y="0" name="bottom"/>
  <outline>
    <contour>
      <point x="40" y="0" type="line"/>
      <point x="260" y="0" type="line"/>
      <point x="260" y="201" type="line"/>
      <point x="304" y="201" type="line"/>
      <point x="372" y="0" type="line"/>
      <point x="620" y="0" type="line"/>
      <point x="480" y="301" type="line"/>
      <point x="614" y="560" type="line"/>
      <point x="369" y="560" type="line"/>
      <point x="299" y="381" type="line"/>
      <point x="260" y="381" type="line"/>
      <point x="260" y="560" type="line"/>
      <point x="40" y="560" type="line"/>
    </contour>
  </outline>
</glyph>
<glyph name="lambda" format="2">
  <advance width="600"/>
  <unicode hex="03BB"/>
  <anchor x="300" y="0" name="bottom"/>
  <anchor x="300" y="700" name="top"/>
  <outline>
    <contour>
      <point x="110" y="700" type="line"/>
      <point x="110" y="540" type="line"/>
      <point x="277" y="540" type="line"/>
      <point x="292" y="480" type="line"/>
      <point x="114" y="480" type="line"/>
      <point x="5" y="0" type="line"/>
      <point x="230" y="0" type="line"/>
      <point x="280" y="320" type="line"/>
      <point x="322" y="320" type="line"/>
      <point x="372" y="0" type="line"/>
      <point x="595" y="0" type="line"/>
      <point x="438" y="700" type="line"/>
    </contour>
  </outline>
</glyph>
<glyph name="uni03BC" format="2">
  <advance width="660"/>
  <unicode hex="03BC"/>
  <outline>
    <contour>
      <point x="40" y="-160" type="line"/>
      <point x="250" y="-160" type="line"/>
      <point x="250" y="0" type="line"/>
      <point x="330" y="0" type="line"/>
      <point x="400" y="70" type="line"/>
      <point x="470" y="0" type="line"/>
      <point x="640" y="0" type="line"/>
      <point x="640" y="190" type="line"/>
      <point x="580" y="190" type="line"/>
      <point x="580" y="560" type="line"/>
      <point x="360" y="560" type="line"/>
      <point x="360" y="190" type="line"/>
      <point x="250" y="190" type="line"/>
      <point x="250" y="560" type="line"/>
      <point x="40" y="560" type="line"/>
    </contour>
  </outline>
</glyph>
<glyph name="nu" format="2">
  <advance width="580"/>
  <unicode hex="03BD"/>
  <anchor x="290" y="0" name="bottom"/>
  <anchor x="290" y="560" name="top"/>
  <outline>
    <contour>
      <point x="119" y="0" type="line"/>
      <point x="461" y="0" type="line"/>
      <point x="575" y="560" type="line"/>
      <point x="355" y="560" type="line"/>
      <point x="305" y="180" type="line"/>
      <point x="279" y="180" type="line"/>
      <point x="230" y="560" type="line"/>
      <point x="5" y="560" type="line"/>
    </contour>
  </outline>
</glyph>
<glyph name="xi" format="2">
  <advance width="540"/>
  <unicode hex="03BE"/>
  <outline>
    <contour>
      <point x="120" y="0" type="line"/>
      <point x="310" y="0" type="line"/>
      <point x="310" y="-120" type="line"/>
      <point x="510" y="-120" type="line"/>
      <point x="510" y="180" type="line"/>
      <point x="235" y="180" type="line"/>
      <point x="235" y="265" type="line"/>
      <point x="500" y="265" type="line"/>
      <point x="500" y="435" type="line"/>
      <point x="250" y="435" type="line"/>
      <point x="250" y="520" type="line"/>
      <point x="505" y="520" type="line"/>
      <point x="505" y="700" type="line"/>
      <point x="140" y="700" type="line"/>
      <point x="40" y="600" type="line"/>
      <point x="40" y="424" type="line"/>
      <point x="107" y="371" type="line"/>
      <point x="20" y="301" type="line"/>
      <point x="20" y="100" type="line"/>
    </contour>
  </outline>
</glyph>
<glyph name="rho" format="2">
  <advance width="620"/>
  <unicode hex="03C1"/>
  <anchor x="320" y="560" name="top"/>
  <anchor x="260" y="-140" name="bottom"/>
  <outline>
    <contour>
      <point x="40" y="-140" type="line"/>
      <point x="260" y="-140" type="line"/>
      <point x="260" y="0" type="line"/>
      <point x="440" y="0" type="line"/>
      <point x="590" y="150" type="line"/>
      <point x="590" y="410" type="line"/>
      <point x="440" y="560" type="line"/>
      <point x="190" y="560" type="line"/>
      <point x="40" y="410" type="line"/>
    </contour>
    <contour>
      <point x="370" y="380" type="line"/>
      <point x="370" y="180" type="line"/>
      <point x="260" y="180" type="line"/>
      <point x="260" y="380" type="line"/>
    </contour>
  </outline>
</glyph>
<glyph name="uni03C2" format="2">
  <advance width="520"/>
  <unicode hex="03C2"/>
  <anchor x="310" y="560" name="top"/>
  <anchor x="310" y="-100" name="bottom"/>
  <outline>
    <contour>
      <point x="160" y="0" type="line"/>
      <point x="300" y="0" type="line"/>
      <point x="300" y="-120" type="line"/>
      <point x="500" y="-120" type="line"/>
      <point x="500" y="200" type="line"/>
      <point x="250" y="200" type="line"/>
      <point x="250" y="360" type="line"/>
      <point x="500" y="360" type="line"/>
      <point x="500" y="560" type="line"/>
      <point x="160" y="560" type="line"/>
      <point x="30" y="430" type="line"/>
      <point x="30" y="130" type="line"/>
    </contour>
  </outline>
</glyph>
<glyph name="sigma" format="2">
  <advance width="600"/>
  <unicode hex="03C3"/>
  <anchor x="300" y="0" name="bottom"/>
  <anchor x="300" y="560" name="top"/>
  <outline>
    <contour>
      <point x="30" y="130" type="line"/>
      <point x="160" y="0" type="line"/>
      <point x="440" y="0" type="line"/>
      <point x="570" y="130" type="line"/>
      <point x="570" y="320" type="line"/>
      <point x="460" y="390" type="line"/>
      <point x="580" y="390" type="line"/>
      <point x="580" y="560" type="line"/>
      <point x="160" y="560" type="line"/>
      <point x="30" y="430" type="line"/>
    </contour>
    <contour>
      <point x="250" y="170" type="line"/>
      <point x="250" y="390" type="line"/>
      <point x="350" y="390" type="line"/>
      <point x="350" y="170" type="line"/>
    </contour>
  </outline>
</glyph>
<glyph name="tau" format="2">
  <advance width="520"/>
  <unicode hex="03C4"/>
  <anchor x="320" y="0" name="bottom"/>
  <anchor x="289" y="560" name="top"/>
  <outline>
    <contour>
      <point x="120" y="120" type="line"/>
      <point x="240" y="0" type="line"/>
      <point x="500" y="0" type="line"/>
      <point x="500" y="180" type="line"/>
      <point x="340" y="180" type="line"/>
      <point x="340" y="380" type="line"/>
      <point x="500" y="380" type="line"/>
      <point x="500" y="560" type="line"/>
      <point x="60" y="560" type="line"/>
      <point x="20" y="520" type="line"/>
      <point x="20" y="380" type="line"/>
      <point x="120" y="380" type="line"/>
    </contour>
  </outline>
</glyph>
<glyph name="upsilon" format="2">
  <advance width="620"/>
  <unicode hex="03C5"/>
  <anchor x="310" y="0" name="bottom"/>
  <anchor x="310" y="560" name="top"/>
  <outline>
    <contour>
      <point x="580" y="560" type="line"/>
      <point x="360" y="560" type="line"/>
      <point x="360" y="190" type="line"/>
      <point x="260" y="190" type="line"/>
      <point x="260" y="560" type="line"/>
      <point x="40" y="560" type="line"/>
      <point x="40" y="140" type="line"/>
      <point x="180" y="0" type="line"/>
      <point x="440" y="0" type="line"/>
      <point x="580" y="140" type="line"/>
    </contour>
  </outline>
</glyph>
<glyph name="phi" format="2">
  <advance width="820"/>
  <unicode hex="03C6"/>
  <outline>
    <contour>
      <point x="500" y="170" type="line"/>
      <point x="500" y="390" type="line"/>
      <point x="580" y="390" type="line"/>
      <point x="580" y="170" type="line"/>
    </contour>
    <contour>
      <point x="160" y="0" type="line"/>
      <point x="320" y="0" type="line"/>
      <point x="320" y="-140" type="line"/>
      <point x="500" y="-140" type="line"/>
      <point x="500" y="0" type="line"/>
      <point x="660" y="0" type="line"/>
      <point x="790" y="130" type="line"/>
      <point x="790" y="430" type="line"/>
      <point x="660" y="560" type="line"/>
      <point x="453" y="560" type="line"/>
      <point x="320" y="395" type="line"/>
      <point x="320" y="170" type="line"/>
      <point x="240" y="170" type="line"/>
      <point x="240" y="400" type="line"/>
      <point x="369" y="560" type="line"/>
      <point x="160" y="560" type="line"/>
      <point x="30" y="430" type="line"/>
      <point x="30" y="130" type="line"/>
    </contour>
  </outline>
</glyph>
<glyph name="psi" format="2">
  <advance width="880"/>
  <unicode hex="03C8"/>
  <anchor x="440" y="-140" name="bottom"/>
  <anchor x="440" y="620" name="top"/>
  <outline>
    <contour>
      <point x="180" y="0" type="line"/>
      <point x="340" y="0" type="line"/>
      <point x="340" y="-140" type="line"/>
      <point x="540" y="-140" type="line"/>
      <point x="540" y="0" type="line"/>
      <point x="700" y="0" type="line"/>
      <point x="840" y="140" type="line"/>
      <point x="840" y="560" type="line"/>
      <point x="630" y="560" type="line"/>
      <point x="630" y="170" type="line"/>
      <point x="540" y="170" type="line"/>
      <point x="540" y="620" type="line"/>
      <point x="340" y="620" type="line"/>
      <point x="340" y="170" type="line"/>
      <point x="250" y="170" type="line"/>
      <point x="250" y="560" type="line"/>
      <point x="40" y="560" type="line"/>
      <point x="40" y="140" type="line"/>
    </contour>
  </outline>
</glyph>
<glyph name="omega" format="2">
  <advance width="940"/>
  <unicode hex="03C9"/>
  <anchor x="470" y="0" name="bottom"/>
  <anchor x="470" y="560" name="top"/>
  <outline>
    <contour>
      <point x="580" y="520" type="line"/>
      <point x="360" y="520" type="line"/>
      <point x="360" y="190" type="line"/>
      <point x="260" y="190" type="line"/>
      <point x="260" y="560" type="line"/>
      <point x="40" y="560" type="line"/>
      <point x="40" y="140" type="line"/>
      <point x="180" y="0" type="line"/>
      <point x="400" y="0" type="line"/>
      <point x="470" y="70" type="line"/>
      <point x="540" y="0" type="line"/>
      <point x="760" y="0" type="line"/>
      <point x="900" y="140" type="line"/>
      <point x="900" y="560" type="line"/>
      <point x="680" y="560" type="line"/>
      <point x="680" y="190" type="line"/>
      <point x="580" y="190" type="line"/>
    </contour>
  </outline>
</glyph>
<glyph name="phi1" format="2">
  <advance width="820"/>
  <unicode hex="03D5"/>
  <outline>
    <contour>
      <point x="30" y="140" type="line"/>
      <point x="170" y="0" type="line"/>
      <point x="650" y="0" type="line"/>
      <point x="790" y="140" type="line"/>
      <point x="790" y="420" type="line"/>
      <point x="650" y="560" type="line"/>
      <point x="170" y="560" type="line"/>
      <point x="30" y="420" type="line"/>
    </contour>
    <contour>
      <point x="240" y="380" type="line"/>
      <point x="580" y="380" type="line"/>
      <point x="580" y="180" type="line"/>
      <point x="240" y="180" type="line"/>
    </contour>
    <contour>
      <point x="500" y="-140" type="line"/>
      <point x="500" y="700" type="line"/>
      <point x="320" y="700" type="line"/>
      <point x="320" y="-140" type="line"/>
    </contour>
  </outline>
</glyph>
<glyph name="uni0402" format="2">
  <advance width="720"/>
  <unicode hex="0402"/>
  <anchor x="360" y="0" name="bottom"/>
  <anchor x="360" y="700" name="top"/>
  <outline>
    <contour>
      <point x="150" y="0" type="line"/>
      <point x="370" y="0" type="line"/>
      <point x="370" y="270" type="line"/>
      <point x="470" y="270" type="line"/>
      <point x="470" y="170" type="line"/>
      <point x="410" y="170" type="line"/>
      <point x="410" y="0" type="line"/>
      <point x="560" y="0" type="line"/>
      <point x="690" y="130" type="line"/>
      <point x="690" y="310" type="line"/>
      <point x="560" y="440" type="line"/>
      <point x="370" y="440" type="line"/>
      <point x="370" y="520" type="line"/>
      <point x="600" y="520" type="line"/>
      <point x="600" y="700" type="line"/>
      <point x="20" y="700" type="line"/>
      <point x="20" y="520" type="line"/>
      <point x="150" y="520" type="line"/>
    </contour>
  </outline>
</glyph>
<glyph name="uni0404" format="2">
  <advance width="610"/>
  <unicode hex="0404"/>
  <anchor x="350" y="0" name="bottom"/>
  <anchor x="350" y="700" name="top"/>
  <outline>
    <contour>
      <point x="35" y="150" type="line"/>
      <point x="185" y="0" type="line"/>
      <point x="585" y="0" type="line"/>
      <point x="585" y="185" type="line"/>
      <point x="275" y="185" type="line"/>
      <point x="275" y="515" type="line"/>
      <point x="575" y="515" type="line"/>
      <point x="575" y="700" type="line"/>
      <point x="185" y="700" type="line"/>
      <point x="35" y="550" type="line"/>
    </contour>
    <contour>
      <point x="115" y="265" type="line"/>
      <point x="495" y="265" type="line"/>
      <point x="495" y="435" type="line"/>
      <point x="115" y="435" type="line"/>
    </contour>
  </outline>
</glyph>
<glyph name="uni0409" format="2">
  <advance width="985"/>
  <unicode hex="0409"/>
  <anchor x="493" y="0" name="bottom"/>
  <anchor x="493" y="700" name="top"/>
  <outline>
    <contour>
      <point x="635" y="700" type="line"/>
      <point x="130" y="700" type="line"/>
      <point x="5" y="0" type="line"/>
      <point x="238" y="0" type="line"/>
      <point x="310" y="500" type="line"/>
      <point x="415" y="500" type="line"/>
      <point x="415" y="0" type="line"/>
      <point x="815" y="0" type="line"/>
      <point x="965" y="150" type="line"/>
      <point x="965" y="400" type="line"/>
      <point x="815" y="550" type="line"/>
      <point x="635" y="550" type="line"/>
    </contour>
    <contour>
      <point x="745" y="380" type="line"/>
      <point x="745" y="170" type="line"/>
      <point x="635" y="170" type="line"/>
      <point x="635" y="380" type="line"/>
    </contour>
  </outline>
</glyph>
<glyph name="uni040A" format="2">
  <advance width="960"/>
  <unicode hex="040A"/>
  <anchor x="480" y="0" name="bottom"/>
  <anchor x="480" y="700" name="top"/>
  <outline>
    <contour>
      <point x="40" y="0" type="line"/>
      <point x="260" y="0" type="line"/>
      <point x="260" y="260" type="line"/>
      <point x="389" y="260" type="line"/>
      <point x="389" y="0" type="line"/>
      <point x="790" y="0" type="line"/>
      <point x="940" y="150" type="line"/>
      <point x="940" y="400" type="line"/>
      <point x="790" y="550" type="line"/>
      <point x="610" y="550" type="line"/>
      <point x="610" y="700" type="line"/>
      <point x="389" y="700" type="line"/>
      <point x="389" y="460" type="line"/>
      <point x="260" y="460" type="line"/>
      <point x="260" y="700" type="line"/>
      <point x="40" y="700" type="line"/>
    </contour>
    <contour>
      <point x="720" y="380" type="line"/>
      <point x="720" y="170" type="line"/>
      <point x="610" y="170" type="line"/>
      <point x="610" y="380" type="line"/>
    </contour>
  </outline>
</glyph>
<glyph name="uni040B" format="2">
  <advance width="730"/>
  <unicode hex="040B"/>
  <anchor x="365" y="0" name="bottom"/>
  <anchor x="365" y="700" name="top"/>
  <outline>
    <contour>
      <point x="150" y="0" type="line"/>
      <point x="370" y="0" type="line"/>
      <point x="370" y="260" type="line"/>
      <point x="470" y="260" type="line"/>
      <point x="470" y="0" type="line"/>
      <point x="690" y="0" type="line"/>
      <point x="690" y="300" type="line"/>
      <point x="550" y="440" type="line"/>
      <point x="370" y="440" type="line"/>
      <point x="370" y="520" type="line"/>
      <point x="600" y="520" type="line"/>
      <point x="600" y="700" type="line"/>
      <point x="20" y="700" type="line"/>
      <point x="20" y="520" type="line"/>
      <point x="150" y="520" type="line"/>
    </contour>
  </outline>
</glyph>
<glyph name="uni040F" format="2">
  <advance width="650"/>
  <unicode hex="040F"/>
  <anchor x="325" y="700" name="bottom"/>
  <anchor x="325" y="0" name="top"/>
  <outline>
    <contour>
      <point x="610" y="700" type="line"/>
      <point x="390" y="700" type="line"/>
      <point x="390" y="190" type="line"/>
      <point x="260" y="190" type="line"/>
      <point x="260" y="700" type="line"/>
      <point x="40" y="700" type="line"/>
      <point x="40" y="0" type="line"/>
      <point x="245" y="0" type="line"/>
      <point x="245" y="-140" type="line"/>
      <point x="405" y="-140" type="line"/>
      <point x="405" y="0" type="line"/>
      <point x="610" y="0" type="line"/>
    </contour>
  </outline>
</glyph>
<glyph name="uni0411" format="2">
  <advance width="650"/>
  <unicode hex="0411"/>
  <outline>
    <contour>
      <point x="40" y="0" type="line"/>
      <point x="490" y="0" type="line"/>
      <point x="630" y="140" type="line"/>
      <point x="630" y="300" type="line"/>
      <point x="490" y="440" type="line"/>
      <point x="260" y="440" type="line"/>
      <point x="260" y="530" type="line"/>
      <point x="570" y="530" type="line"/>
      <point x="570" y="700" type="line"/>
      <point x="40" y="700" type="line"/>
    </contour>
    <contour>
      <point x="260" y="170" type="line"/>
      <point x="260" y="280" type="line"/>
      <point x="400" y="280" type="line"/>
      <point x="400" y="170" type="line"/>
    </contour>
  </outline>
</glyph>
<glyph name="uni0414" format="2">
  <advance width="720"/>
  <unicode hex="0414"/>
  <outline>
    <contour>
      <point x="15" y="-140" type="line"/>
      <point x="175" y="-140" type="line"/>
      <point x="175" y="0" type="line"/>
      <point x="545" y="0" type="line"/>
      <point x="545" y="-140" type="line"/>
      <point x="705" y="-140" type="line"/>
      <point x="705" y="190" type="line"/>
      <point x="645" y="190" type="line"/>
      <point x="645" y="700" type="line"/>
      <point x="187" y="700" type="line"/>
      <point x="75" y="190" type="line"/>
      <point x="15" y="190" type="line"/>
    </contour>
    <contour>
      <point x="298" y="170" type="line"/>
      <point x="355" y="530" type="line"/>
      <point x="425" y="530" type="line"/>
      <point x="425" y="170" type="line"/>
    </contour>
  </outline>
</glyph>
<glyph name="uni0416" format="2">
  <advance width="960"/>
  <unicode hex="0416"/>
  <anchor x="480" y="0" name="bottom"/>
  <anchor x="480" y="700" name="top"/>
  <outline>
    <contour>
      <point x="590" y="0" type="line"/>
      <point x="590" y="260" type="line"/>
      <point x="640" y="260" type="line"/>
      <point x="712" y="0" type="line"/>
      <point x="960" y="0" type="line"/>
      <point x="830" y="370" type="line"/>
      <point x="945" y="700" type="line"/>
      <point x="700" y="700" type="line"/>
      <point x="635" y="450" type="line"/>
      <point x="590" y="450" type="line"/>
      <point x="590" y="700" type="line"/>
      <point x="370" y="700" type="line"/>
      <point x="370" y="450" type="line"/>
      <point x="325" y="450" type="line"/>
      <point x="260" y="700" type="line"/>
      <point x="15" y="700" type="line"/>
      <point x="130" y="370" type="line"/>
      <point x="0" y="0" type="line"/>
      <point x="248" y="0" type="line"/>
      <point x="320" y="260" type="line"/>
      <point x="370" y="260" type="line"/>
      <point x="370" y="0" type="line"/>
    </contour>
  </outline>
</glyph>
<glyph name="uni0417" format="2">
  <advance width="630"/>
  <unicode hex="0417"/>
  <anchor x="265" y="0" name="bottom"/>
  <anchor x="265" y="700" name="top"/>
  <outline>
    <contour>
      <point x="470" y="0" type="line"/>
      <point x="610" y="140" type="line"/>
      <point x="610" y="296" type="line"/>
      <point x="523" y="366" type="line"/>
      <point x="590" y="419" type="line"/>
      <point x="590" y="560" type="line"/>
      <point x="450" y="700" type="line"/>
      <point x="40" y="700" type="line"/>
      <point x="40" y="520" type="line"/>
      <point x="360" y="520" type="line"/>
      <point x="360" y="440" type="line"/>
      <point x="110" y="440" type="line"/>
      <point x="110" y="270" type="line"/>
      <point x="380" y="270" type="line"/>
      <point x="380" y="180" type="line"/>
      <point x="30" y="180" type="line"/>
      <point x="30" y="0" type="line"/>
    </contour>
  </outline>
</glyph>
<glyph name="uni0418" format="2">
  <advance width="680"/>
  <unicode hex="0418"/>
  <anchor x="340" y="0" name="bottom"/>
  <anchor x="340" y="700" name="top"/>
  <outline>
    <contour>
      <point x="640" y="0" type="line"/>
      <point x="640" y="700" type="line"/>
      <point x="460" y="700" type="line"/>
      <point x="255" y="335" type="line"/>
      <point x="255" y="700" type="line"/>
      <point x="40" y="700" type="line"/>
      <point x="40" y="0" type="line"/>
      <point x="220" y="0" type="line"/>
      <point x="425" y="365" type="line"/>
      <point x="425" y="0" type="line"/>
    </contour>
  </outline>
</glyph>
<glyph name="uni041B" format="2">
  <advance width="675"/>
  <unicode hex="041B"/>
  <anchor x="337.5" y="700" name="top"/>
  <anchor x="337.5" y="0" name="bottom"/>
  <outline>
    <contour>
      <point x="635" y="700" type="line"/>
      <point x="130" y="700" type="line"/>
      <point x="5" y="0" type="line"/>
      <point x="240" y="0" type="line"/>
      <point x="314" y="506" type="line"/>
      <point x="415" y="506" type="line"/>
      <point x="415" y="0" type="line"/>
      <point x="635" y="0" type="line"/>
    </contour>
  </outline>
</glyph>
<glyph name="uni0426" format="2">
  <advance width="700"/>
  <unicode hex="0426"/>
  <anchor x="350" y="700" name="bottom"/>
  <anchor x="350" y="0" name="top"/>
  <outline>
    <contour>
      <point x="610" y="700" type="line"/>
      <point x="390" y="700" type="line"/>
      <point x="390" y="190" type="line"/>
      <point x="260" y="190" type="line"/>
      <point x="260" y="700" type="line"/>
      <point x="40" y="700" type="line"/>
      <point x="40" y="0" type="line"/>
      <point x="530" y="0" type="line"/>
      <point x="530" y="-140" type="line"/>
      <point x="690" y="-140" type="line"/>
      <point x="690" y="190" type="line"/>
      <point x="610" y="190" type="line"/>
    </contour>
  </outline>
</glyph>
<glyph name="uni0427" format="2">
  <advance width="640"/>
  <unicode hex="0427"/>
  <anchor x="380" y="0" name="bottom"/>
  <anchor x="320" y="700" name="top"/>
  <outline>
    <contour>
      <point x="600" y="700" type="line"/>
      <point x="380" y="700" type="line"/>
      <point x="380" y="320" type="line"/>
      <point x="260" y="320" type="line"/>
      <point x="260" y="700" type="line"/>
      <point x="40" y="700" type="line"/>
      <point x="40" y="280" type="line"/>
      <point x="180" y="140" type="line"/>
      <point x="380" y="140" type="line"/>
      <point x="380" y="0" type="line"/>
      <point x="600" y="0" type="line"/>
    </contour>
  </outline>
</glyph>
<glyph name="uni0428" format="2">
  <advance width="980"/>
  <unicode hex="0428"/>
  <outline>
    <contour>
      <point x="600" y="700" type="line"/>
      <point x="380" y="700" type="line"/>
      <point x="380" y="190" type="line"/>
      <point x="260" y="190" type="line"/>
      <point x="260" y="700" type="line"/>
      <point x="40" y="700" type="line"/>
      <point x="40" y="0" type="line"/>
      <point x="940" y="0" type="line"/>
      <point x="940" y="700" type="line"/>
      <point x="720" y="700" type="line"/>
      <point x="720" y="190" type="line"/>
      <point x="600" y="190" type="line"/>
    </contour>
  </outline>
</glyph>
<glyph name="uni0429" format="2">
  <advance width="1030"/>
  <unicode hex="0429"/>
  <outline>
    <contour>
      <point x="600" y="700" type="line"/>
      <point x="380" y="700" type="line"/>
      <point x="380" y="190" type="line"/>
      <point x="260" y="190" type="line"/>
      <point x="260" y="700" type="line"/>
      <point x="40" y="700" type="line"/>
      <point x="40" y="0" type="line"/>
      <point x="860" y="0" type="line"/>
      <point x="860" y="-140" type="line"/>
      <point x="1020" y="-140" type="line"/>
      <point x="1020" y="190" type="line"/>
      <point x="940" y="190" type="line"/>
      <point x="940" y="700" type="line"/>
      <point x="720" y="700" type="line"/>
      <point x="720" y="190" type="line"/>
      <point x="600" y="190" type="line"/>
    </contour>
  </outline>
</glyph>
<glyph name="uni042A" format="2">
  <advance width="720"/>
  <unicode hex="042A"/>
  <anchor x="360" y="0" name="bottom"/>
  <anchor x="310" y="700" name="top"/>
  <outline>
    <contour>
      <point x="480" y="380" type="line"/>
      <point x="480" y="170" type="line"/>
      <point x="340" y="170" type="line"/>
      <point x="340" y="380" type="line"/>
    </contour>
    <contour>
      <point x="700" y="400" type="line"/>
      <point x="550" y="550" type="line"/>
      <point x="340" y="550" type="line"/>
      <point x="340" y="700" type="line"/>
      <point x="20" y="700" type="line"/>
      <point x="20" y="510" type="line"/>
      <point x="160" y="510" type="line"/>
      <point x="120" y="470" type="line"/>
      <point x="120" y="0" type="line"/>
      <point x="550" y="0" type="line"/>
      <point x="700" y="150" type="line"/>
    </contour>
  </outline>
</glyph>
<glyph name="uni042B" format="2">
  <advance width="940"/>
  <unicode hex="042B"/>
  <anchor x="470" y="700" name="top"/>
  <anchor x="470" y="0" name="bottom"/>
  <outline>
    <contour>
      <point x="400" y="380" type="line"/>
      <point x="400" y="170" type="line"/>
      <point x="260" y="170" type="line"/>
      <point x="260" y="380" type="line"/>
    </contour>
    <contour>
      <point x="620" y="400" type="line"/>
      <point x="470" y="550" type="line"/>
      <point x="260" y="550" type="line"/>
      <point x="260" y="700" type="line"/>
      <point x="40" y="700" type="line"/>
      <point x="40" y="0" type="line"/>
      <point x="470" y="0" type="line"/>
      <point x="620" y="150" type="line"/>
    </contour>
    <contour>
      <point x="680" y="0" type="line"/>
      <point x="900" y="0" type="line"/>
      <point x="900" y="700" type="line"/>
      <point x="680" y="700" type="line"/>
    </contour>
  </outline>
</glyph>
<glyph name="uni042C" format="2">
  <advance width="640"/>
  <unicode hex="042C"/>
  <anchor x="230" y="700" name="top"/>
  <anchor x="320" y="0" name="bottom"/>
  <outline>
    <contour>
      <point x="400" y="380" type="line"/>
      <point x="400" y="170" type="line"/>
      <point x="260" y="170" type="line"/>
      <point x="260" y="380" type="line"/>
    </contour>
    <contour>
      <point x="620" y="400" type="line"/>
      <point x="470" y="550" type="line"/>
      <point x="260" y="550" type="line"/>
      <point x="260" y="700" type="line"/>
      <point x="40" y="700" type="line"/>
      <point x="40" y="0" type="line"/>
      <point x="470" y="0" type="line"/>
      <point x="620" y="150" type="line"/>
    </contour>
  </outline>
</glyph>
<glyph name="uni042D" format="2">
  <advance width="610"/>
  <unicode hex="042D"/>
  <anchor x="260" y="-0" name="bottom"/>
  <anchor x="260" y="700" name="top"/>
  <outline>
    <contour>
      <point x="575" y="150" type="line"/>
      <point x="425" y="0" type="line"/>
      <point x="25" y="0" type="line"/>
      <point x="25" y="185" type="line"/>
      <point x="335" y="185" type="line"/>
      <point x="335" y="515" type="line"/>
      <point x="35" y="515" type="line"/>
      <point x="35" y="700" type="line"/>
      <point x="425" y="700" type="line"/>
      <point x="575" y="550" type="line"/>
    </contour>
    <contour>
      <point x="495" y="265" type="line"/>
      <point x="115" y="265" type="line"/>
      <point x="115" y="435" type="line"/>
      <point x="495" y="435" type="line"/>
    </contour>
  </outline>
</glyph>
<glyph name="uni042E" format="2">
  <advance width="980"/>
  <unicode hex="042E"/>
  <anchor x="490" y="0" name="bottom"/>
  <anchor x="490" y="700" name="top"/>
  <outline>
    <contour>
      <point x="40" y="0" type="line"/>
      <point x="260" y="0" type="line"/>
      <point x="260" y="250" type="line"/>
      <point x="365" y="250" type="line"/>
      <point x="365" y="150" type="line"/>
      <point x="515" y="0" type="line"/>
      <point x="795" y="0" type="line"/>
      <point x="945" y="150" type="line"/>
      <point x="945" y="550" type="line"/>
      <point x="795" y="700" type="line"/>
      <point x="515" y="700" type="line"/>
      <point x="365" y="550" type="line"/>
      <point x="365" y="450" type="line"/>
      <point x="260" y="450" type="line"/>
      <point x="260" y="700" type="line"/>
      <point x="40" y="700" type="line"/>
    </contour>
    <contour>
      <point x="585" y="500" type="line"/>
      <point x="725" y="500" type="line"/>
      <point x="725" y="200" type="line"/>
      <point x="585" y="200" type="line"/>
    </contour>
  </outline>
</glyph>
<glyph name="uni0431" format="2">
  <advance width="620"/>
  <unicode hex="0431"/>
  <outline>
    <contour>
      <point x="260" y="180" type="line"/>
      <point x="260" y="330" type="line"/>
      <point x="370" y="330" type="line"/>
      <point x="370" y="180" type="line"/>
    </contour>
    <contour>
      <point x="180" y="0" type="line"/>
      <point x="450" y="0" type="line"/>
      <point x="590" y="140" type="line"/>
      <point x="590" y="390" type="line"/>
      <point x="500" y="480" type="line"/>
      <point x="260" y="480" type="line"/>
      <point x="260" y="530" type="line"/>
      <point x="560" y="530" type="line"/>
      <point x="560" y="700" type="line"/>
      <point x="170" y="700" type="line"/>
      <point x="40" y="570" type="line"/>
      <point x="40" y="140" type="line"/>
    </contour>
  </outline>
</glyph>
<glyph name="uni0432" format="2">
  <advance width="610"/>
  <unicode hex="0432"/>
  <anchor x="305" y="560" name="top"/>
  <anchor x="305" y="0" name="bottom"/>
  <outline>
    <contour>
      <point x="40" y="560" type="line"/>
      <point x="480" y="560" type="line"/>
      <point x="570" y="470" type="line"/>
      <point x="570" y="342" type="line"/>
      <point x="514" y="296" type="line"/>
      <point x="590" y="230" type="line"/>
      <point x="590" y="90" type="line"/>
      <point x="500" y="0" type="line"/>
      <point x="40" y="0" type="line"/>
    </contour>
    <contour>
      <point x="255" y="345" type="line"/>
      <point x="360" y="345" type="line"/>
      <point x="360" y="410" type="line"/>
      <point x="255" y="410" type="line"/>
    </contour>
    <contour>
      <point x="255" y="150" type="line"/>
      <point x="370" y="150" type="line"/>
      <point x="370" y="215" type="line"/>
      <point x="255" y="215" type="line"/>
    </contour>
  </outline>
</glyph>
<glyph name="uni0437" format="2">
  <advance width="580"/>
  <unicode hex="0437"/>
  <anchor x="255" y="-0" name="bottom"/>
  <anchor x="255" y="560" name="top"/>
  <outline>
    <contour>
      <point x="560" y="100" type="line"/>
      <point x="560" y="226" type="line"/>
      <point x="473" y="296" type="line"/>
      <point x="540" y="349" type="line"/>
      <point x="540" y="460" type="line"/>
      <point x="440" y="560" type="line"/>
      <point x="40" y="560" type="line"/>
      <point x="40" y="390" type="line"/>
      <point x="309" y="390" type="line"/>
      <point x="309" y="345" type="line"/>
      <point x="70" y="345" type="line"/>
      <point x="70" y="215" type="line"/>
      <point x="329" y="215" type="line"/>
      <point x="329" y="170" type="line"/>
      <point x="30" y="170" type="line"/>
      <point x="30" y="0" type="line"/>
      <point x="460" y="0" type="line"/>
    </contour>
  </outline>
</glyph>
<glyph name="uni0438" format="2">
  <advance width="680"/>
  <unicode hex="0438"/>
  <anchor x="340" y="0" name="bottom"/>
  <anchor x="340" y="560" name="top"/>
  <outline>
    <contour>
      <point x="620" y="0" type="line"/>
      <point x="620" y="560" type="line"/>
      <point x="420" y="560" type="line"/>
      <point x="255" y="275" type="line"/>
      <point x="255" y="560" type="line"/>
      <point x="40" y="560" type="line"/>
      <point x="40" y="0" type="line"/>
      <point x="240" y="0" type="line"/>
      <point x="405" y="275" type="line"/>
      <point x="405" y="0" type="line"/>
    </contour>
  </outline>
</glyph>
<glyph name="uni043B" format="2">
  <advance width="620"/>
  <unicode hex="043B"/>
  <anchor x="310" y="0" name="bottom"/>
  <anchor x="310" y="560" name="top"/>
  <outline>
    <contour>
      <point x="580" y="560" type="line"/>
      <point x="55" y="560" type="line"/>
      <point x="55" y="380" type="line"/>
      <point x="90" y="380" type="line"/>
      <point x="65" y="190" type="line"/>
      <point x="15" y="190" type="line"/>
      <point x="15" y="0" type="line"/>
      <point x="250" y="0" type="line"/>
      <point x="293" y="380" type="line"/>
      <point x="360" y="380" type="line"/>
      <point x="360" y="0" type="line"/>
      <point x="580" y="0" type="line"/>
    </contour>
  </outline>
</glyph>
<glyph name="uni043C" format="2">
  <advance width="708"/>
  <unicode hex="043C"/>
  <anchor x="354" y="560" name="top"/>
  <anchor x="354" y="0" name="bottom"/>
  <outline>
    <contour>
      <point x="40" y="0" type="line"/>
      <point x="240" y="0" type="line"/>
      <point x="240" y="315" type="line"/>
      <point x="314" y="90" type="line"/>
      <point x="394" y="90" type="line"/>
      <point x="468" y="315" type="line"/>
      <point x="468" y="0" type="line"/>
      <point x="668" y="0" type="line"/>
      <point x="668" y="560" type="line"/>
      <point x="434" y="560" type="line"/>
      <point x="354" y="346" type="line"/>
      <point x="274" y="560" type="line"/>
      <point x="40" y="560" type="line"/>
    </contour>
  </outline>
</glyph>
<glyph name="uni043D" format="2">
  <advance width="620"/>
  <unicode hex="043D"/>
  <anchor x="310" y="0" name="bottom"/>
  <anchor x="310" y="560" name="top"/>
  <outline>
    <contour>
      <point x="40" y="0" type="line"/>
      <point x="260" y="0" type="line"/>
      <point x="260" y="190" type="line"/>
      <point x="360" y="190" type="line"/>
      <point x="360" y="0" type="line"/>
      <point x="580" y="0" type="line"/>
      <point x="580" y="560" type="line"/>
      <point x="360" y="560" type="line"/>
      <point x="360" y="390" type="line"/>
      <point x="260" y="390" type="line"/>
      <point x="260" y="560" type="line"/>
      <point x="40" y="560" type="line"/>
    </contour>
  </outline>
</glyph>
<glyph name="uni0442" format="2">
  <advance width="560"/>
  <unicode hex="0442"/>
  <anchor x="280" y="-0" name="bottom"/>
  <anchor x="280" y="560" name="top"/>
  <outline>
    <contour>
      <point x="390" y="0" type="line"/>
      <point x="170" y="0" type="line"/>
      <point x="170" y="370" type="line"/>
      <point x="20" y="370" type="line"/>
      <point x="20" y="560" type="line"/>
      <point x="540" y="560" type="line"/>
      <point x="540" y="370" type="line"/>
      <point x="390" y="370" type="line"/>
    </contour>
  </outline>
</glyph>
<glyph name="uni0447" format="2">
  <advance width="620"/>
  <unicode hex="0447"/>
  <anchor x="360" y="0" name="bottom"/>
  <anchor x="310" y="560" name="top"/>
  <outline>
    <contour>
      <point x="580" y="560" type="line"/>
      <point x="360" y="560" type="line"/>
      <point x="360" y="300" type="line"/>
      <point x="260" y="300" type="line"/>
      <point x="260" y="560" type="line"/>
      <point x="40" y="560" type="line"/>
      <point x="40" y="260" type="line"/>
      <point x="180" y="120" type="line"/>
      <point x="360" y="120" type="line"/>
      <point x="360" y="0" type="line"/>
      <point x="580" y="0" type="line"/>
    </contour>
  </outline>
</glyph>
<glyph name="uni0448" format="2">
  <advance width="940"/>
  <unicode hex="0448"/>
  <outline>
    <contour>
      <point x="580" y="560" type="line"/>
      <point x="360" y="560" type="line"/>
      <point x="360" y="190" type="line"/>
      <point x="260" y="190" type="line"/>
      <point x="260" y="560" type="line"/>
      <point x="40" y="560" type="line"/>
      <point x="40" y="0" type="line"/>
      <point x="900" y="0" type="line"/>
      <point x="900" y="560" type="line"/>
      <point x="680" y="560" type="line"/>
      <point x="680" y="190" type="line"/>
      <point x="580" y="190" type="line"/>
    </contour>
  </outline>
</glyph>
<glyph name="uni0449" format="2">
  <advance width="990"/>
  <unicode hex="0449"/>
  <outline>
    <contour>
      <point x="580" y="560" type="line"/>
      <point x="360" y="560" type="line"/>
      <point x="360" y="190" type="line"/>
      <point x="260" y="190" type="line"/>
      <point x="260" y="560" type="line"/>
      <point x="40" y="560" type="line"/>
      <point x="40" y="0" type="line"/>
      <point x="820" y="0" type="line"/>
      <point x="820" y="-140" type="line"/>
      <point x="980" y="-140" type="line"/>
      <point x="980" y="190" type="line"/>
      <point x="900" y="190" type="line"/>
      <point x="900" y="560" type="line"/>
      <point x="680" y="560" type="line"/>
      <point x="680" y="190" type="line"/>
      <point x="580" y="190" type="line"/>
    </contour>
  </outline>
</glyph>
<glyph name="uni044D" format="2">
  <advance width="570"/>
  <unicode hex="044D"/>
  <anchor x="260" y="0" name="bottom"/>
  <anchor x="140" y="0" name="ogonek"/>
  <anchor x="260" y="560" name="top"/>
  <outline>
    <contour>
      <point x="410" y="0" type="line"/>
      <point x="30" y="0" type="line"/>
      <point x="30" y="170" type="line"/>
      <point x="320" y="170" type="line"/>
      <point x="320" y="225" type="line"/>
      <point x="60" y="225" type="line"/>
      <point x="60" y="335" type="line"/>
      <point x="320" y="335" type="line"/>
      <point x="320" y="390" type="line"/>
      <point x="30" y="390" type="line"/>
      <point x="30" y="560" type="line"/>
      <point x="410" y="560" type="line"/>
      <point x="540" y="430" type="line"/>
      <point x="540" y="130" type="line"/>
    </contour>
  </outline>
</glyph>
<glyph name="uni044E" format="2">
  <advance width="900"/>
  <unicode hex="044E"/>
  <anchor x="450" y="0" name="bottom"/>
  <anchor x="450" y="560" name="top"/>
  <outline>
    <contour>
      <point x="40" y="0" type="line"/>
      <point x="260" y="0" type="line"/>
      <point x="260" y="195" type="line"/>
      <point x="330" y="195" type="line"/>
      <point x="330" y="130" type="line"/>
      <point x="460" y="0" type="line"/>
      <point x="740" y="0" type="line"/>
      <point x="870" y="130" type="line"/>
      <point x="870" y="430" type="line"/>
      <point x="740" y="560" type="line"/>
      <point x="460" y="560" type="line"/>
      <point x="330" y="430" type="line"/>
      <point x="330" y="365" type="line"/>
      <point x="260" y="365" type="line"/>
      <point x="260" y="560" type="line"/>
      <point x="40" y="560" type="line"/>
    </contour>
    <contour>
      <point x="550" y="170" type="line"/>
      <point x="550" y="390" type="line"/>
      <point x="650" y="390" type="line"/>
      <point x="650" y="170" type="line"/>
    </contour>
  </outline>
</glyph>
<glyph name="uni044F" format="2">
  <advance width="630"/>
  <unicode hex="044F"/>
  <anchor x="315" y="-0" name="bottom"/>
  <anchor x="335" y="560" name="top"/>
  <outline>
    <contour>
      <point x="250" y="290" type="line"/>
      <point x="250" y="390" type="line"/>
      <point x="370" y="390" type="line"/>
      <point x="370" y="290" type="line"/>
    </contour>
    <contour>
      <point x="30" y="240" type="line"/>
      <point x="107" y="163" type="line"/>
      <point x="0" y="0" type="line"/>
      <point x="248" y="0" type="line"/>
      <point x="301" y="130" type="line"/>
      <point x="370" y="130" type="line"/>
      <point x="370" y="0" type="line"/>
      <point x="590" y="0" type="line"/>
      <point x="590" y="560" type="line"/>
      <point x="150" y="560" type="line"/>
      <point x="30" y="440" type="line"/>
    </contour>
  </outline>
</glyph>
<glyph name="uni0452" format="2">
  <advance width="620"/>
  <unicode hex="0452"/>
  <anchor x="310" y="700" name="top"/>
  <anchor x="310" y="-160" name="bottom"/>
  <outline>
    <contour>
      <point x="40" y="0" type="line"/>
      <point x="260" y="0" type="line"/>
      <point x="260" y="330" type="line"/>
      <point x="360" y="330" type="line"/>
      <point x="360" y="-10" type="line"/>
      <point x="310" y="-10" type="line"/>
      <point x="310" y="-160" type="line"/>
      <point x="456" y="-160" type="line"/>
      <point x="580" y="-36" type="line"/>
      <point x="580" y="370" type="line"/>
      <point x="440" y="510" type="line"/>
      <point x="260" y="510" type="line"/>
      <point x="260" y="564" type="line"/>
      <point x="445" y="564" type="line"/>
      <point x="445" y="640" type="line"/>
      <point x="260" y="640" type="line"/>
      <point x="260" y="700" type="line"/>
      <point x="40" y="700" type="line"/>
    </contour>
  </outline>
</glyph>
<glyph name="uni0454" format="2">
  <advance width="570"/>
  <unicode hex="0454"/>
  <anchor x="310" y="0" name="bottom"/>
  <anchor x="430" y="0" name="ogonek"/>
  <anchor x="310" y="560" name="top"/>
  <outline>
    <contour>
      <point x="160" y="0" type="line"/>
      <point x="540" y="0" type="line"/>
      <point x="540" y="170" type="line"/>
      <point x="250" y="170" type="line"/>
      <point x="250" y="225" type="line"/>
      <point x="510" y="225" type="line"/>
      <point x="510" y="335" type="line"/>
      <point x="250" y="335" type="line"/>
      <point x="250" y="390" type="line"/>
      <point x="540" y="390" type="line"/>
      <point x="540" y="560" type="line"/>
      <point x="160" y="560" type="line"/>
      <point x="30" y="430" type="line"/>
      <point x="30" y="130" type="line"/>
    </contour>
  </outline>
</glyph>
<glyph name="uni0459" format="2">
  <advance width="920"/>
  <unicode hex="0459"/>
  <anchor x="460" y="0" name="bottom"/>
  <anchor x="460" y="560" name="top"/>
  <outline>
    <contour>
      <point x="15" y="0" type="line"/>
      <point x="250" y="0" type="line"/>
      <point x="293" y="380" type="line"/>
      <point x="360" y="380" type="line"/>
      <point x="360" y="0" type="line"/>
      <point x="760" y="0" type="line"/>
      <point x="890" y="130" type="line"/>
      <point x="890" y="310" type="line"/>
      <point x="760" y="440" type="line"/>
      <point x="580" y="440" type="line"/>
      <point x="580" y="560" type="line"/>
      <point x="55" y="560" type="line"/>
      <point x="55" y="380" type="line"/>
      <point x="90" y="380" type="line"/>
      <point x="65" y="190" type="line"/>
      <point x="15" y="190" type="line"/>
    </contour>
    <contour>
      <point x="580" y="170" type="line"/>
      <point x="580" y="270" type="line"/>
      <point x="670" y="270" type="line"/>
      <point x="670" y="170" type="line"/>
    </contour>
  </outline>
</glyph>
<glyph name="uni045A" format="2">
  <advance width="910"/>
  <unicode hex="045A"/>
  <anchor x="455" y="560" name="top"/>
  <anchor x="455" y="0" name="bottom"/>
  <outline>
    <contour>
      <point x="360" y="0" type="line"/>
      <point x="760" y="0" type="line"/>
      <point x="890" y="130" type="line"/>
      <point x="890" y="310" type="line"/>
      <point x="760" y="440" type="line"/>
      <point x="580" y="440" type="line"/>
      <point x="580" y="560" type="line"/>
      <point x="360" y="560" type="line"/>
      <point x="360" y="390" type="line"/>
      <point x="260" y="390" type="line"/>
      <point x="260" y="560" type="line"/>
      <point x="40" y="560" type="line"/>
      <point x="40" y="0" type="line"/>
      <point x="260" y="0" type="line"/>
      <point x="260" y="190" type="line"/>
      <point x="360" y="190" type="line"/>
    </contour>
    <contour>
      <point x="580" y="170" type="line"/>
      <point x="580" y="270" type="line"/>
      <point x="670" y="270" type="line"/>
      <point x="670" y="170" type="line"/>
    </contour>
  </outline>
</glyph>
<glyph name="uni0462" format="2">
  <advance width="640"/>
  <unicode hex="0462"/>
  <anchor x="310" y="0" name="bottom"/>
  <anchor x="260" y="700" name="top"/>
  <outline>
    <contour>
      <point x="40" y="0" type="line"/>
      <point x="470" y="0" type="line"/>
      <point x="610" y="140" type="line"/>
      <point x="610" y="370" type="line"/>
      <point x="470" y="510" type="line"/>
      <point x="260" y="510" type="line"/>
      <point x="260" y="564" type="line"/>
      <point x="475" y="564" type="line"/>
      <point x="475" y="640" type="line"/>
      <point x="260" y="640" type="line"/>
      <point x="260" y="700" type="line"/>
      <point x="40" y="700" type="line"/>
    </contour>
    <contour>
      <point x="260" y="170" type="line"/>
      <point x="260" y="340" type="line"/>
      <point x="390" y="340" type="line"/>
      <point x="390" y="170" type="line"/>
    </contour>
  </outline>
</glyph>
<glyph name="uni0463" format="2">
  <advance width="610"/>
  <unicode hex="0463"/>
  <anchor x="310" y="0" name="bottom"/>
  <anchor x="260" y="700" name="top"/>
  <outline>
    <contour>
      <point x="40" y="0" type="line"/>
      <point x="440" y="0" type="line"/>
      <point x="580" y="140" type="line"/>
      <point x="580" y="360" type="line"/>
      <point x="440" y="500" type="line"/>
      <point x="260" y="500" type="line"/>
      <point x="260" y="554" type="line"/>
      <point x="445" y="554" type="line"/>
      <point x="445" y="630" type="line"/>
      <point x="260" y="630" type="line"/>
      <point x="260" y="700" type="line"/>
      <point x="40" y="700" type="line"/>
    </contour>
    <contour>
      <point x="260" y="170" type="line"/>
      <point x="260" y="329" type="line"/>
      <point x="360" y="329" type="line"/>
      <point x="360" y="170" type="line"/>
    </contour>
  </outline>
</glyph>
<glyph name="uni046A" format="2">
  <advance width="960"/>
  <unicode hex="046A"/>
  <anchor x="480" y="0" name="bottom"/>
  <anchor x="480" y="700" name="top"/>
  <outline>
    <contour>
      <point x="590" y="0" type="line"/>
      <point x="590" y="260" type="line"/>
      <point x="620" y="260" type="line"/>
      <point x="712" y="0" type="line"/>
      <point x="960" y="0" type="line"/>
      <point x="810" y="370" type="line"/>
      <point x="945" y="700" type="line"/>
      <point x="15" y="700" type="line"/>
      <point x="150" y="370" type="line"/>
      <point x="0" y="0" type="line"/>
      <point x="248" y="0" type="line"/>
      <point x="340" y="260" type="line"/>
      <point x="370" y="260" type="line"/>
      <point x="370" y="0" type="line"/>
    </contour>
    <contour>
      <point x="345" y="430" type="line"/>
      <point x="310" y="530" type="line"/>
      <point x="650" y="530" type="line"/>
      <point x="615" y="430" type="line"/>
    </contour>
  </outline>
</glyph>
<glyph name="uni046B" format="2">
  <advance width="860"/>
  <unicode hex="046B"/>
  <anchor x="430" y="560" name="top"/>
  <anchor x="430" y="0" name="bottom"/>
  <outline>
    <contour>
      <point x="530" y="0" type="line"/>
      <point x="530" y="160" type="line"/>
      <point x="574" y="160" type="line"/>
      <point x="612" y="0" type="line"/>
      <point x="860" y="0" type="line"/>
      <point x="720" y="260" type="line"/>
      <point x="850" y="560" type="line"/>
      <point x="10" y="560" type="line"/>
      <point x="140" y="260" type="line"/>
      <point x="0" y="0" type="line"/>
      <point x="248" y="0" type="line"/>
      <point x="286" y="160" type="line"/>
      <point x="330" y="160" type="line"/>
      <point x="330" y="0" type="line"/>
    </contour>
    <contour>
      <point x="319" y="320" type="line"/>
      <point x="298" y="400" type="line"/>
      <point x="562" y="400" type="line"/>
      <point x="541" y="320" type="line"/>
    </contour>
  </outline>
</glyph>
<glyph name="uni0474" format="2">
  <advance width="735"/>
  <unicode hex="0474"/>
  <anchor x="367.5" y="0" name="bottom"/>
  <anchor x="367.5" y="700" name="top"/>
  <outline>
    <contour>
      <point x="130" y="0" type="line"/>
      <point x="510" y="0" type="line"/>
      <point x="603" y="520" type="line"/>
      <point x="725" y="520" type="line"/>
      <point x="725" y="700" type="line"/>
      <point x="397" y="700" type="line"/>
      <point x="335" y="200" type="line"/>
      <point x="305" y="200" type="line"/>
      <point x="243" y="700" type="line"/>
      <point x="5" y="700" type="line"/>
    </contour>
  </outline>
</glyph>
<glyph name="uni0475" format="2">
  <advance width="695"/>
  <unicode hex="0475"/>
  <anchor x="347.5" y="560" name="top"/>
  <anchor x="347.5" y="0" name="bottom"/>
  <outline>
    <contour>
      <point x="109" y="0" type="line"/>
      <point x="471" y="0" type="line"/>
      <point x="542" y="380" type="line"/>
      <point x="685" y="380" type="line"/>
      <point x="685" y="560" type="line"/>
      <point x="355" y="560" type="line"/>
      <point x="315" y="180" type="line"/>
      <point x="269" y="180" type="line"/>
      <point x="230" y="560" type="line"/>
      <point x="5" y="560" type="line"/>
    </contour>
  </outline>
</glyph>
<glyph name="uni0490" format="2">
  <advance width="510"/>
  <unicode hex="0490"/>
  <anchor x="255" y="0" name="bottom"/>
  <anchor x="255" y="830" name="top"/>
  <outline>
    <contour>
      <point x="40" y="0" type="line"/>
      <point x="260" y="0" type="line"/>
      <point x="260" y="500" type="line"/>
      <point x="500" y="500" type="line"/>
      <point x="500" y="830" type="line"/>
      <point x="300" y="830" type="line"/>
      <point x="300" y="700" type="line"/>
      <point x="40" y="700" type="line"/>
    </contour>
  </outline>
</glyph>
<glyph name="uni0491" format="2">
  <advance width="470"/>
  <unicode hex="0491"/>
  <anchor x="160" y="0" name="bottom"/>
  <anchor x="358" y="690" name="top"/>
  <outline>
    <contour>
      <point x="250" y="560" type="line"/>
      <point x="40" y="560" type="line"/>
      <point x="40" y="0" type="line"/>
      <point x="260" y="0" type="line"/>
      <point x="260" y="360" type="line"/>
      <point x="450" y="360" type="line"/>
      <point x="450" y="690" type="line"/>
      <point x="250" y="690" type="line"/>
    </contour>
  </outline>
</glyph>
<glyph name="uni0492" format="2">
  <advance width="510"/>
  <unicode hex="0492"/>
  <anchor x="255" y="0" name="bottom"/>
  <anchor x="255" y="700" name="top"/>
  <outline>
    <component base="Gamma"/>
    <contour>
      <point x="80" y="220" type="line"/>
      <point x="400" y="220" type="line"/>
      <point x="400" y="370" type="line"/>
      <point x="80" y="370" type="line"/>
    </contour>
  </outline>
</glyph>
<glyph name="uni0493" format="2">
  <advance width="470"/>
  <unicode hex="0493"/>
  <outline>
    <component base="uni0433"/>
    <contour>
      <point x="5" y="140" type="line"/>
      <point x="365" y="140" type="line"/>
      <point x="365" y="290" type="line"/>
      <point x="5" y="290" type="line"/>
    </contour>
  </outline>
</glyph>
<glyph name="uni0494" format="2">
  <advance width="630"/>
  <unicode hex="0494"/>
  <anchor x="315" y="700" name="top"/>
  <anchor x="315" y="0" name="bottom"/>
  <outline>
    <contour>
      <point x="40" y="0" type="line"/>
      <point x="270" y="0" type="line"/>
      <point x="270" y="210" type="line"/>
      <point x="380" y="210" type="line"/>
      <point x="380" y="40" type="line"/>
      <point x="290" y="40" type="line"/>
      <point x="290" y="-140" type="line"/>
      <point x="500" y="-140" type="line"/>
      <point x="600" y="-40" type="line"/>
      <point x="600" y="290" type="line"/>
      <point x="500" y="390" type="line"/>
      <point x="270" y="390" type="line"/>
      <point x="270" y="520" type="line"/>
      <point x="580" y="520" type="line"/>
      <point x="580" y="700" type="line"/>
      <point x="40" y="700" type="line"/>
    </contour>
  </outline>
</glyph>
<glyph name="uni0495" format="2">
  <advance width="600"/>
  <unicode hex="0495"/>
  <anchor x="300" y="560" name="top"/>
  <anchor x="300" y="-140" name="bottom"/>
  <outline>
    <contour>
      <point x="40" y="0" type="line"/>
      <point x="270" y="0" type="line"/>
      <point x="270" y="160" type="line"/>
      <point x="370" y="160" type="line"/>
      <point x="370" y="40" type="line"/>
      <point x="290" y="40" type="line"/>
      <point x="290" y="-140" type="line"/>
      <point x="470" y="-140" type="line"/>
      <point x="570" y="-40" type="line"/>
      <point x="570" y="220" type="line"/>
      <point x="470" y="320" type="line"/>
      <point x="270" y="320" type="line"/>
      <point x="270" y="380" type="line"/>
      <point x="570" y="380" type="line"/>
      <point x="570" y="560" type="line"/>
      <point x="40" y="560" type="line"/>
    </contour>
  </outline>
</glyph>
<glyph name="uni0496" format="2">
  <advance width="1010"/>
  <unicode hex="0496"/>
  <anchor x="505" y="-0" name="bottom"/>
  <anchor x="505" y="700" name="top"/>
  <outline>
    <contour>
      <point x="590" y="0" type="line"/>
      <point x="590" y="260" type="line"/>
      <point x="640" y="260" type="line"/>
      <point x="712" y="0" type="line"/>
      <point x="840" y="0" type="line"/>
      <point x="840" y="-140" type="line"/>
      <point x="1000" y="-140" type="line"/>
      <point x="1000" y="190" type="line"/>
      <point x="893" y="190" type="line"/>
      <point x="830" y="370" type="line"/>
      <point x="945" y="700" type="line"/>
      <point x="700" y="700" type="line"/>
      <point x="635" y="450" type="line"/>
      <point x="590" y="450" type="line"/>
      <point x="590" y="700" type="line"/>
      <point x="370" y="700" type="line"/>
      <point x="370" y="450" type="line"/>
      <point x="325" y="450" type="line"/>
      <point x="260" y="700" type="line"/>
      <point x="15" y="700" type="line"/>
      <point x="130" y="370" type="line"/>
      <point x="0" y="0" type="line"/>
      <point x="248" y="0" type="line"/>
      <point x="320" y="260" type="line"/>
      <point x="370" y="260" type="line"/>
      <point x="370" y="0" type="line"/>
    </contour>
  </outline>
</glyph>
<glyph name="uni0498" format="2">
  <advance width="630"/>
  <unicode hex="0498"/>
  <outline>
    <contour>
      <point x="470" y="0" type="line"/>
      <point x="610" y="140" type="line"/>
      <point x="610" y="296" type="line"/>
      <point x="523" y="366" type="line"/>
      <point x="590" y="419" type="line"/>
      <point x="590" y="560" type="line"/>
      <point x="450" y="700" type="line"/>
      <point x="40" y="700" type="line"/>
      <point x="40" y="520" type="line"/>
      <point x="365" y="520" type="line"/>
      <point x="365" y="440" type="line"/>
      <point x="90" y="440" type="line"/>
      <point x="90" y="270" type="line"/>
      <point x="385" y="270" type="line"/>
      <point x="385" y="180" type="line"/>
      <point x="30" y="180" type="line"/>
      <point x="30" y="0" type="line"/>
      <point x="210" y="0" type="line"/>
      <point x="210" y="-140" type="line"/>
      <point x="370" y="-140" type="line"/>
      <point x="370" y="0" type="line"/>
    </contour>
  </outline>
</glyph>
<glyph name="uni049B" format="2">
  <advance width="670"/>
  <unicode hex="049B"/>
  <anchor x="310" y="0" name="bottom"/>
  <anchor x="300" y="560" name="top"/>
  <outline>
    <contour>
      <point x="40" y="0" type="line"/>
      <point x="260" y="0" type="line"/>
      <point x="260" y="201" type="line"/>
      <point x="304" y="201" type="line"/>
      <point x="372" y="0" type="line"/>
      <point x="500" y="0" type="line"/>
      <point x="500" y="-140" type="line"/>
      <point x="660" y="-140" type="line"/>
      <point x="660" y="190" type="line"/>
      <point x="532" y="190" type="line"/>
      <point x="480" y="301" type="line"/>
      <point x="614" y="560" type="line"/>
      <point x="369" y="560" type="line"/>
      <point x="299" y="381" type="line"/>
      <point x="260" y="381" type="line"/>
      <point x="260" y="560" type="line"/>
      <point x="40" y="560" type="line"/>
    </contour>
  </outline>
</glyph>
<glyph name="uni049C" format="2">
  <advance width="690"/>
  <unicode hex="049C"/>
  <anchor x="330" y="0" name="bottom"/>
  <anchor x="330" y="700" name="top"/>
  <outline>
    <contour>
      <point x="40" y="0" type="line"/>
      <point x="260" y="0" type="line"/>
      <point x="260" y="260" type="line"/>
      <point x="390" y="260" type="line"/>
      <point x="448" y="0" type="line"/>
      <point x="690" y="0" type="line"/>
      <point x="570" y="370" type="line"/>
      <point x="675" y="700" type="line"/>
      <point x="436" y="700" type="line"/>
      <point x="385" y="450" type="line"/>
      <point x="260" y="450" type="line"/>
      <point x="260" y="700" type="line"/>
      <point x="40" y="700" type="line"/>
    </contour>
    <contour>
      <point x="368" y="120" type="line"/>
      <point x="368" y="590" type="line"/>
      <point x="292" y="590" type="line"/>
      <point x="292" y="120" type="line"/>
    </contour>
  </outline>
</glyph>
